<svg width="112.25" xmlns="http://www.w3.org/2000/svg" height="32" id="screenshot-1eebacc3-190b-80f3-8007-6acad4b8dfd7" viewBox="2685 1772 112.25 32" style="-webkit-print-color-adjust::exact" xmlns:xlink="http://www.w3.org/1999/xlink" fill="none" version="1.1">
  <g id="shape-1eebacc3-190b-80f3-8007-6acad4b8dfd7">
    <g class="frame-container-wrapper">
      <g class="frame-container-blur">
        <g class="frame-container-shadows">
          <g fill="none">
            <g class="fills" id="fills-1eebacc3-190b-80f3-8007-6acad4b8dfd7">
              <rect rx="0" ry="0" x="2685" y="1772" width="112.25" height="32" transform="matrix(1.000000, 0.000000, 0.000000, 1.000000, 0.000000, 0.000000)" class="frame-background">
              </rect>
            </g>
            <g class="frame-children">
              <g id="shape-1eebacc3-190b-80f3-8007-6abf2968ae3c" style="fill:#000000" version="1.1" x="0" y="0" xml:space="preserve" rx="0" ry="0">
                <g id="shape-1eebacc3-190b-80f3-8007-6abf2968ae3f" rx="0" ry="0">
                  <g id="shape-1eebacc3-190b-80f3-8007-6abf2968ae40">
                    <g class="fills" id="fills-1eebacc3-190b-80f3-8007-6abf2968ae40">
                      <path d="M2724.8154296875,1781.9583740234375C2725.80224609375,1781.9583740234375,2726.789306640625,1781.9583740234375,2727.745849609375,1781.9583740234375C2728.053955078125,1781.9583740234375,2728.084716796875,1782.0482177734375,2728.17724609375,1782.3477783203125C2729.2568359375,1785.971435546875,2730.521484375,1789.535400390625,2731.817138671875,1793.0692138671875C2732.032958984375,1793.6982421875,2732.06396484375,1794.4169921875,2732.403076171875,1794.9859619140625C2732.6806640625,1795.465087890625,2732.403076171875,1795.525146484375,2732.125244140625,1795.614990234375C2731.847900390625,1795.7047119140625,2731.53955078125,1795.614990234375,2731.23095703125,1795.824462890625C2730.9228515625,1796.0341796875,2729.84326171875,1795.525146484375,2729.657958984375,1795.1357421875C2729.318603515625,1794.5068359375,2729.01025390625,1793.8779296875,2728.91748046875,1793.1591796875C2728.8251953125,1792.590087890625,2728.701904296875,1792.500244140625,2728.17724609375,1792.47021484375C2726.7275390625,1792.47021484375,2725.308837890625,1792.47021484375,2723.828125,1792.47021484375C2723.550537109375,1793.4586181640625,2723.24169921875,1794.476806640625,2722.93359375,1795.525146484375C2722.1005859375,1795.525146484375,2721.23681640625,1795.525146484375,2720.25,1795.525146484375C2720.404052734375,1794.3271484375,2720.928466796875,1793.2490234375,2721.298828125,1792.140869140625C2721.6689453125,1791.03271484375,2722.038818359375,1789.894775390625,2722.470703125,1788.78662109375C2722.90283203125,1787.678466796875,2723.27294921875,1786.5704345703125,2723.673828125,1785.432373046875C2724.07470703125,1784.354248046875,2724.4140625,1783.2161865234375,2724.8154296875,1781.9583740234375ZM2726.32666015625,1784.264404296875C2725.833251953125,1786.36083984375,2725.246826171875,1788.33740234375,2724.5068359375,1790.343994140625C2725.5244140625,1790.343994140625,2726.542236328125,1790.31396484375,2727.560546875,1790.343994140625C2727.930419921875,1790.343994140625,2727.96142578125,1790.164306640625,2727.930419921875,1789.894775390625C2727.837890625,1789.50537109375,2727.7763671875,1789.086181640625,2727.621826171875,1788.69677734375C2727.09765625,1787.2891845703125,2726.7275390625,1785.8216552734375,2726.32666015625,1784.264404296875Z" style="enable-background:new 0 0 595.3 841.9;fill:#ff7400;fill-opacity:1">
                      </path>
                    </g>
                  </g>
                  <g id="shape-1eebacc3-190b-80f3-8007-6abf2968ae41">
                    <g class="fills" id="fills-1eebacc3-190b-80f3-8007-6abf2968ae41">
                      <path d="M2749.923583984375,1786.0313720703125C2749.923583984375,1784.3243408203125,2749.923583984375,1782.70703125,2749.923583984375,1781C2750.417236328125,1781,2750.84912109375,1781,2751.280517578125,1781C2751.990478515625,1781,2752.360595703125,1781.389404296875,2752.360595703125,1782.078125C2752.360595703125,1785.4024658203125,2752.360595703125,1788.69677734375,2752.360595703125,1792.02099609375C2752.360595703125,1792.7998046875,2752.51513671875,1793.5484619140625,2752.884765625,1794.207275390625C2753.100830078125,1794.566650390625,2752.91552734375,1794.8062744140625,2752.822998046875,1794.9859619140625C2752.637939453125,1795.3154296875,2752.299072265625,1795.7646484375,2751.990478515625,1795.7945556640625C2751.58935546875,1795.8544921875,2751.15771484375,1795.465087890625,2750.725341796875,1795.3753662109375C2750.2939453125,1795.285400390625,2750.6025390625,1794.5367431640625,2750.078125,1794.6865234375C2749.800537109375,1794.7763671875,2749.615478515625,1795.1357421875,2749.337646484375,1795.285400390625C2747.9189453125,1796.1240234375,2746.46875,1796.1240234375,2745.17333984375,1795.195556640625C2744.679931640625,1794.836181640625,2744.464111328125,1794.2672119140625,2744.155517578125,1793.6982421875C2743.476806640625,1792.3505859375,2743.631103515625,1790.94287109375,2743.723876953125,1789.5653076171875C2743.846923828125,1787.947998046875,2744.679931640625,1786.600341796875,2746.221923828125,1785.8216552734375C2747.20947265625,1785.342529296875,2748.25830078125,1785.37255859375,2749.30712890625,1785.8216552734375C2749.39892578125,1785.881591796875,2749.49169921875,1785.9415283203125,2749.615478515625,1786.00146484375C2749.6767578125,1786.0313720703125,2749.738525390625,1786.0313720703125,2749.923583984375,1786.0313720703125ZM2749.89306640625,1790.433837890625C2749.89306640625,1789.8348388671875,2749.89306640625,1789.23583984375,2749.89306640625,1788.6368408203125C2749.89306640625,1788.457275390625,2749.831298828125,1788.1876220703125,2749.6767578125,1788.127685546875C2749.183349609375,1787.88818359375,2748.6279296875,1787.4688720703125,2748.103515625,1787.52880859375C2747.6103515625,1787.588623046875,2746.9931640625,1787.9180908203125,2746.8701171875,1788.576904296875C2746.839111328125,1788.7266845703125,2746.74658203125,1788.8465576171875,2746.684814453125,1788.96630859375C2746.283935546875,1789.86474609375,2746.4072265625,1790.8231201171875,2746.46875,1791.75146484375C2746.499755859375,1792.2008056640625,2746.74658203125,1792.679931640625,2746.96240234375,1793.09912109375C2747.240234375,1793.6083984375,2748.01123046875,1793.9078369140625,2748.535400390625,1793.668212890625C2748.998291015625,1793.4586181640625,2749.39892578125,1793.09912109375,2749.738525390625,1792.7398681640625C2749.923583984375,1792.5302734375,2749.89306640625,1792.1708984375,2749.89306640625,1791.871337890625C2749.923583984375,1791.39208984375,2749.89306640625,1790.9129638671875,2749.89306640625,1790.433837890625Z" style="enable-background:new 0 0 595.3 841.9;fill:#ff7400;fill-opacity:1">
                      </path>
                    </g>
                  </g>
                  <g id="shape-1eebacc3-190b-80f3-8007-6abf2968ae42">
                    <g class="fills" id="fills-1eebacc3-190b-80f3-8007-6abf2968ae42">
                      <path d="M2788.01806640625,1797.5316162109375C2788.94384765625,1797.8011474609375,2789.869140625,1798.0706787109375,2790.82568359375,1797.5615234375C2791.534912109375,1797.1722412109375,2791.596923828125,1796.513427734375,2791.8125,1795.8843994140625C2791.84326171875,1795.824462890625,2791.62744140625,1795.6448974609375,2791.534912109375,1795.6448974609375C2790.64013671875,1795.6448974609375,2790.36279296875,1795.105712890625,2790.085205078125,1794.386962890625C2789.591552734375,1793.0093994140625,2789.2216796875,1791.601806640625,2788.851318359375,1790.22412109375C2788.635498046875,1789.355712890625,2788.2958984375,1788.51708984375,2788.14208984375,1787.6485595703125C2787.6484375,1787.319091796875,2788.080078125,1786.6602783203125,2787.67919921875,1786.27099609375C2787.5556640625,1786.151123046875,2787.709716796875,1785.9415283203125,2787.987548828125,1785.791748046875C2788.635498046875,1785.4622802734375,2789.2216796875,1785.5821533203125,2789.83837890625,1785.6719970703125C2790.30126953125,1785.7618408203125,2790.455322265625,1786.151123046875,2790.609375,1786.54052734375C2790.856201171875,1787.07958984375,2790.94873046875,1787.678466796875,2791.072265625,1788.2774658203125C2791.349853515625,1789.41552734375,2791.75048828125,1790.49365234375,2791.99755859375,1791.6317138671875C2792.152099609375,1792.320556640625,2792.275146484375,1793.039306640625,2792.460205078125,1793.758056640625C2792.768798828125,1792.230712890625,2793.293212890625,1790.76318359375,2793.601318359375,1789.23583984375C2793.78662109375,1788.24755859375,2794.187744140625,1787.2891845703125,2794.342041015625,1786.3009033203125C2794.4033203125,1785.8216552734375,2794.7119140625,1785.64208984375,2795.236328125,1785.64208984375C2795.853271484375,1785.64208984375,2796.500732421875,1785.55224609375,2797.1181640625,1785.8516845703125C2797.395751953125,1786.00146484375,2797.14892578125,1786.0313720703125,2797.14892578125,1786.151123046875C2796.93310546875,1787.588623046875,2796.40869140625,1788.9962158203125,2796.038330078125,1790.3739013671875C2795.4521484375,1792.5601806640625,2794.927978515625,1794.7763671875,2794.09521484375,1796.9027099609375C2793.8173828125,1797.6214599609375,2793.509033203125,1798.3701171875,2792.89208984375,1798.939208984375C2792.152099609375,1799.657958984375,2791.288330078125,1799.9874267578125,2790.23974609375,1799.9874267578125C2789.406494140625,1799.9874267578125,2788.573486328125,1800.0771484375,2787.740478515625,1799.77783203125C2787.494140625,1799.6878662109375,2787.462890625,1799.5980224609375,2787.432373046875,1799.388427734375C2787.278076171875,1798.6097412109375,2787.771728515625,1798.1005859375,2788.01806640625,1797.5316162109375Z" style="enable-background:new 0 0 595.3 841.9;fill:#ff7400;fill-opacity:1">
                      </path>
                    </g>
                  </g>
                  <g id="shape-1eebacc3-190b-80f3-8007-6abf2968ae43">
                    <g class="fills" id="fills-1eebacc3-190b-80f3-8007-6abf2968ae43">
                      <path d="M2741.4716796875,1795.824462890625C2741.22509765625,1795.734619140625,2741.040283203125,1795.7047119140625,2740.885498046875,1795.614990234375C2740.54638671875,1795.465087890625,2740.176513671875,1795.3154296875,2739.898681640625,1795.0758056640625C2739.7138671875,1794.9261474609375,2739.59033203125,1794.656494140625,2739.467041015625,1794.4169921875C2739.2509765625,1794.566650390625,2739.00439453125,1794.7164306640625,2738.8193359375,1794.8961181640625C2738.263916015625,1795.465087890625,2737.461669921875,1795.614990234375,2736.752685546875,1795.824462890625C2735.79638671875,1796.093994140625,2733.91455078125,1795.3453369140625,2733.636962890625,1793.7880859375C2733.513671875,1793.129150390625,2733.4208984375,1792.500244140625,2733.4208984375,1791.84130859375C2733.4208984375,1790.433837890625,2733.390380859375,1789.05615234375,2733.4208984375,1787.6485595703125C2733.4208984375,1787.16943359375,2733.359619140625,1786.72021484375,2733.11279296875,1786.330810546875C2732.958251953125,1786.1212158203125,2732.958251953125,1786.00146484375,2733.1435546875,1785.9114990234375C2733.822021484375,1785.612060546875,2734.531494140625,1785.37255859375,2735.302490234375,1785.5821533203125C2735.79638671875,1785.701904296875,2736.1044921875,1786.240966796875,2736.13525390625,1786.89990234375C2736.13525390625,1788.4871826171875,2736.13525390625,1790.074462890625,2736.13525390625,1791.691650390625C2736.13525390625,1791.9312744140625,2736.073974609375,1792.2008056640625,2736.13525390625,1792.410400390625C2736.22802734375,1792.7099609375,2736.22802734375,1793.0692138671875,2736.629150390625,1793.218994140625C2736.968505859375,1793.3687744140625,2737.307861328125,1793.668212890625,2737.67822265625,1793.2789306640625C2737.739501953125,1793.218994140625,2737.893798828125,1793.2490234375,2738.01708984375,1793.218994140625C2738.85009765625,1792.949462890625,2739.065673828125,1792.6500244140625,2739.096923828125,1791.871337890625C2739.096923828125,1790.04443359375,2739.096923828125,1788.2176513671875,2739.096923828125,1786.36083984375C2739.096923828125,1785.701904296875,2739.2509765625,1785.55224609375,2739.960693359375,1785.55224609375C2740.238037109375,1785.55224609375,2740.54638671875,1785.5821533203125,2740.82421875,1785.55224609375C2742.027099609375,1785.4622802734375,2742.0888671875,1785.73193359375,2742.0888671875,1786.72021484375C2742.058349609375,1788.8465576171875,2742.0888671875,1790.94287109375,2742.0888671875,1793.0692138671875C2742.0888671875,1793.4586181640625,2741.996337890625,1793.847900390625,2742.335693359375,1794.1773681640625C2742.6748046875,1794.5068359375,2742.3974609375,1794.8662109375,2742.24267578125,1795.1357421875C2741.96533203125,1795.3753662109375,2741.656982421875,1795.614990234375,2741.4716796875,1795.824462890625Z" style="enable-background:new 0 0 595.3 841.9;fill:#ff7400;fill-opacity:1">
                      </path>
                    </g>
                  </g>
                  <g id="shape-1eebacc3-190b-80f3-8007-6abf2968ae44">
                    <g class="fills" id="fills-1eebacc3-190b-80f3-8007-6abf2968ae44">
                      <path d="M2760.411376953125,1794.6865234375C2759.701904296875,1795.015869140625,2759.14697265625,1795.465087890625,2758.375732421875,1795.7047119140625C2756.74072265625,1796.183837890625,2754.7353515625,1795.554931640625,2754.365966796875,1793.398681640625C2754.211181640625,1792.5302734375,2754.365966796875,1791.242431640625,2754.889892578125,1790.703369140625C2755.507080078125,1790.074462890625,2756.308837890625,1789.625244140625,2757.26513671875,1789.625244140625C2758.15966796875,1789.625244140625,2759.05419921875,1789.625244140625,2760.040771484375,1789.625244140625C2760.040771484375,1789.2957763671875,2760.102783203125,1788.96630859375,2760.010498046875,1788.6668701171875C2759.886962890625,1788.307373046875,2759.701904296875,1787.9180908203125,2759.3935546875,1787.738525390625C2759.05419921875,1787.52880859375,2758.498779296875,1787.3790283203125,2758.1904296875,1787.498779296875C2757.57373046875,1787.7684326171875,2756.894775390625,1787.7684326171875,2756.278076171875,1787.9180908203125C2755.907958984375,1788.0079345703125,2755.507080078125,1788.5469970703125,2755.105712890625,1788.037841796875C2754.889892578125,1787.7684326171875,2754.859375,1787.34912109375,2754.7353515625,1786.98974609375C2754.674072265625,1786.8399658203125,2754.6123046875,1786.690185546875,2754.6123046875,1786.5704345703125C2754.6123046875,1786.45068359375,2754.7353515625,1786.3009033203125,2754.859375,1786.27099609375C2756.833251953125,1785.5821533203125,2757.91259765625,1785.4024658203125,2759.979248046875,1785.55224609375C2761.090087890625,1785.64208984375,2762.261962890625,1786.4805908203125,2762.539794921875,1787.678466796875C2762.909912109375,1789.2957763671875,2762.694091796875,1790.883056640625,2762.75537109375,1792.500244140625C2762.786376953125,1793.0692138671875,2762.8173828125,1793.6383056640625,2763.125732421875,1794.1474609375C2763.434326171875,1794.6865234375,2762.84814453125,1795.5849609375,2762.231201171875,1795.5849609375C2761.398193359375,1795.614990234375,2761.36767578125,1795.5849609375,2760.411376953125,1794.6865234375ZM2760.010498046875,1791.30224609375C2759.30078125,1791.30224609375,2758.653076171875,1791.30224609375,2758.00537109375,1791.30224609375C2757.48095703125,1791.30224609375,2757.049072265625,1791.7215576171875,2757.049072265625,1792.2606201171875C2757.018310546875,1793.6383056640625,2756.925537109375,1793.758056640625,2758.498779296875,1793.6982421875C2759.455078125,1793.668212890625,2760.010498046875,1793.09912109375,2760.010498046875,1792.1708984375C2760.010498046875,1791.9012451171875,2760.010498046875,1791.6317138671875,2760.010498046875,1791.30224609375Z" style="enable-background:new 0 0 595.3 841.9;fill:#ff7400;fill-opacity:1">
                      </path>
                    </g>
                  </g>
                  <g id="shape-1eebacc3-190b-80f3-8007-6abf2968ae45">
                    <g class="fills" id="fills-1eebacc3-190b-80f3-8007-6abf2968ae45">
                      <path d="M2770.498046875,1789.86474609375C2770.37451171875,1789.2957763671875,2770.281982421875,1788.7567138671875,2770.1279296875,1788.2774658203125C2769.819580078125,1787.34912109375,2768.58544921875,1787.1094970703125,2767.906982421875,1787.8582763671875C2767.721923828125,1788.06787109375,2767.41357421875,1788.367431640625,2767.4443359375,1788.60693359375C2767.505615234375,1789.2957763671875,2767.16650390625,1789.894775390625,2767.197509765625,1790.5535888671875C2767.22802734375,1791.152587890625,2767.259033203125,1791.8114013671875,2767.47509765625,1792.3505859375C2767.629638671875,1792.7998046875,2768.06103515625,1793.1591796875,2768.369384765625,1793.5484619140625C2768.616455078125,1793.847900390625,2768.98681640625,1793.668212890625,2769.294921875,1793.7281494140625C2770.004150390625,1793.7880859375,2770.652099609375,1793.6982421875,2771.145751953125,1793.129150390625C2771.207275390625,1793.0692138671875,2771.26904296875,1793.039306640625,2771.330810546875,1793.0093994140625C2771.6083984375,1792.91943359375,2772.37939453125,1793.4287109375,2772.595458984375,1793.8179931640625C2772.71923828125,1794.0576171875,2772.626220703125,1794.6265869140625,2772.410400390625,1794.7763671875C2771.546630859375,1795.3453369140625,2770.5908203125,1795.7945556640625,2769.542236328125,1795.8544921875C2768.9248046875,1795.8843994140625,2768.307861328125,1795.9443359375,2767.629638671875,1795.734619140625C2765.87109375,1795.195556640625,2765.069091796875,1794.0576171875,2764.698974609375,1792.3804931640625C2764.544677734375,1791.691650390625,2764.513916015625,1791.0028076171875,2764.4833984375,1790.31396484375C2764.452392578125,1789.3856201171875,2764.76025390625,1788.51708984375,2765.13037109375,1787.70849609375C2765.655029296875,1786.5704345703125,2766.64208984375,1785.9114990234375,2767.8759765625,1785.55224609375C2769.32568359375,1785.1329345703125,2771.114990234375,1785.522216796875,2772.0400390625,1786.5704345703125C2772.564453125,1787.1395263671875,2772.934814453125,1787.79833984375,2772.873291015625,1788.6368408203125C2772.8115234375,1789.32568359375,2772.3486328125,1789.8348388671875,2771.67041015625,1789.86474609375C2771.26904296875,1789.894775390625,2770.868408203125,1789.86474609375,2770.498046875,1789.86474609375Z" style="enable-background:new 0 0 595.3 841.9;fill:#ff7400;fill-opacity:1">
                      </path>
                    </g>
                  </g>
                  <g id="shape-1eebacc3-190b-80f3-8007-6abf2968ae46">
                    <g class="fills" id="fills-1eebacc3-190b-80f3-8007-6abf2968ae46">
                      <path d="M2781.4794921875,1787.4688720703125C2780.924072265625,1787.4688720703125,2780.52294921875,1787.4688720703125,2780.060302734375,1787.4688720703125C2780.060302734375,1786.8399658203125,2780.060302734375,1786.240966796875,2780.060302734375,1785.5821533203125C2780.491943359375,1785.5821533203125,2780.924072265625,1785.5821533203125,2781.41748046875,1785.5821533203125C2781.57177734375,1784.893310546875,2781.35546875,1784.174560546875,2781.695068359375,1783.515625C2781.972900390625,1782.9765625,2782.21923828125,1782.6771240234375,2782.8056640625,1782.6771240234375C2783.2373046875,1782.6771240234375,2783.699951171875,1782.6771240234375,2784.1630859375,1782.6771240234375C2784.1630859375,1783.6654052734375,2784.1630859375,1784.56396484375,2784.1630859375,1785.55224609375C2784.779541015625,1785.55224609375,2785.33447265625,1785.522216796875,2785.889892578125,1785.55224609375C2786.136962890625,1785.55224609375,2786.47607421875,1785.342529296875,2786.630615234375,1785.73193359375C2786.78466796875,1786.1212158203125,2787.062255859375,1786.510498046875,2786.815673828125,1786.89990234375C2786.660888671875,1787.1395263671875,2786.660888671875,1787.588623046875,2786.10595703125,1787.4688720703125C2785.519775390625,1787.34912109375,2784.903076171875,1787.43896484375,2784.193359375,1787.43896484375C2784.193359375,1789.265869140625,2784.193359375,1791.03271484375,2784.193359375,1792.8297119140625C2784.193359375,1793.1890869140625,2784.656494140625,1793.6383056640625,2785.0263671875,1793.668212890625C2785.242431640625,1793.6982421875,2785.427490234375,1793.668212890625,2785.64306640625,1793.668212890625C2786.35302734375,1793.668212890625,2786.599365234375,1793.8779296875,2786.660888671875,1794.566650390625C2786.722900390625,1795.3453369140625,2786.5380859375,1795.554931640625,2785.766845703125,1795.5849609375C2785.056884765625,1795.5849609375,2784.378662109375,1795.525146484375,2783.669189453125,1795.5849609375C2782.21923828125,1795.734619140625,2781.57177734375,1794.656494140625,2781.510009765625,1793.4586181640625C2781.41748046875,1791.871337890625,2781.4794921875,1790.2840576171875,2781.4794921875,1788.6668701171875C2781.4794921875,1788.33740234375,2781.4794921875,1787.947998046875,2781.4794921875,1787.4688720703125Z" style="enable-background:new 0 0 595.3 841.9;fill:#ff7400;fill-opacity:1">
                      </path>
                    </g>
                  </g>
                  <g id="shape-1eebacc3-190b-80f3-8007-6abf2968ae47">
                    <g class="fills" id="fills-1eebacc3-190b-80f3-8007-6abf2968ae47">
                      <path d="M2778.024658203125,1795.614990234375C2777.067626953125,1795.614990234375,2776.26611328125,1795.614990234375,2775.309814453125,1795.614990234375C2775.309814453125,1795.3154296875,2775.309814453125,1795.015869140625,2775.309814453125,1794.7164306640625C2775.309814453125,1792.679931640625,2775.309814453125,1790.6434326171875,2775.309814453125,1788.6368408203125C2775.309814453125,1788.0977783203125,2775.248046875,1787.70849609375,2774.538818359375,1787.70849609375C2774.26123046875,1787.70849609375,2774.04541015625,1787.4688720703125,2774.04541015625,1787.1395263671875C2774.04541015625,1787.0196533203125,2774.04541015625,1786.89990234375,2774.04541015625,1786.780029296875C2774.076416015625,1786.4805908203125,2773.983642578125,1786.0313720703125,2774.1376953125,1785.881591796875C2774.415283203125,1785.6719970703125,2774.847412109375,1785.5821533203125,2775.217041015625,1785.5821533203125C2775.7109375,1785.55224609375,2776.20458984375,1785.55224609375,2776.72900390625,1785.791748046875C2777.5927734375,1786.18115234375,2777.993408203125,1786.510498046875,2777.993408203125,1787.34912109375C2778.055419921875,1790.04443359375,2778.024658203125,1792.7998046875,2778.024658203125,1795.614990234375Z" style="enable-background:new 0 0 595.3 841.9;fill:#ff7400;fill-opacity:1">
                      </path>
                    </g>
                  </g>
                  <g id="shape-1eebacc3-190b-80f3-8007-6abf2968ae48">
                    <g class="fills" id="fills-1eebacc3-190b-80f3-8007-6abf2968ae48">
                      <path d="M2776.296630859375,1784.1146240234375C2774.78564453125,1784.174560546875,2774.78564453125,1784.1146240234375,2774.81640625,1782.70703125C2774.81640625,1782.557373046875,2774.754638671875,1782.377685546875,2774.81640625,1782.2279052734375C2774.908935546875,1782.0482177734375,2775.06298828125,1781.7786865234375,2775.217041015625,1781.71875C2775.618408203125,1781.62890625,2776.080810546875,1781.80859375,2776.451416015625,1781.479248046875C2776.6982421875,1781.80859375,2777.037353515625,1781.62890625,2777.345458984375,1781.6888427734375C2777.407470703125,1781.6888427734375,2777.46923828125,1781.7786865234375,2777.53076171875,1781.80859375C2777.7470703125,1781.9583740234375,2777.993408203125,1782.8568115234375,2777.900634765625,1783.096435546875C2777.5927734375,1784.1146240234375,2777.5927734375,1784.1146240234375,2776.296630859375,1784.1146240234375Z" style="enable-background:new 0 0 595.3 841.9;fill:#ff7400;fill-opacity:1">
                      </path>
                    </g>
                  </g>
                </g>
              </g>
              <g id="shape-1eebacc3-190b-80f3-8007-6abf2968ae3b" style="fill:#000000" width="800" height="800" rx="0" ry="0">
                <g id="shape-1eebacc3-190b-80f3-8007-6abf2968ae3d" style="display:none">
                  <g class="fills" id="fills-1eebacc3-190b-80f3-8007-6abf2968ae3d">
                    <rect rx="0" ry="0" x="2685" y="1772" transform="matrix(1.000000, 0.000000, 0.000000, 1.000000, 0.000000, 0.000000)" width="32" height="32" fill="none" style="fill:none">
                    </rect>
                  </g>
                </g>
                <g id="shape-1eebacc3-190b-80f3-8007-6abf2968ae3e">
                  <g class="fills" id="fills-1eebacc3-190b-80f3-8007-6abf2968ae3e">
                    <path d="M2701,1783.3740234375L2699.593994140625,1794.2249755859375L2698.18798828125,1784.383056640625L2697.486083984375,1792.8179931640625L2697.01611328125,1791.8809814453125L2696.547119140625,1786.258056640625L2696.31298828125,1791.8809814453125L2695.60888671875,1793.52197265625L2695.14208984375,1787.89892578125L2694.672119140625,1792.3499755859375L2693.969970703125,1791.178955078125L2693.969970703125,1794.458984375L2693.26611328125,1791.822021484375L2693.26611328125,1786.02392578125C2692.9580078125,1785.740966796875,2692.548095703125,1785.56494140625,2692.096923828125,1785.554931640625L2692.094970703125,1785.554931640625L2692.094970703125,1800.3160400390625C2692.10205078125,1800.3160400390625,2692.111083984375,1800.3160400390625,2692.1201171875,1800.3160400390625C2692.616943359375,1800.3160400390625,2693.049072265625,1800.033935546875,2693.262939453125,1799.6209716796875L2693.26611328125,1799.614013671875L2693.26611328125,1795.39599609375L2693.5009765625,1795.6300048828125L2694.205078125,1797.9730224609375L2694.43896484375,1795.1610107421875L2695.14306640625,1798.676025390625L2695.14306640625,1794.2249755859375L2695.610107421875,1795.39599609375L2696.31396484375,1798.676025390625L2696.31396484375,1794.2249755859375L2696.782958984375,1794.6920166015625L2697.487060546875,1798.676025390625L2698.18896484375,1793.2860107421875L2699.739013671875,1799.3590087890625L2699.8291015625,1795.6290283203125L2700.298095703125,1794.2239990234375L2700.76806640625,1800.0810546875L2702.173095703125,1794.2239990234375L2702.64208984375,1799.14404296875L2703.81396484375,1793.989013671875L2704.986083984375,1799.612060546875L2705.219970703125,1795.39404296875L2705.922119140625,1793.988037109375L2706.156982421875,1799.3779296875L2707.3291015625,1794.2230224609375L2708.031005859375,1796.5660400390625L2708.26611328125,1794.45703125L2708.73291015625,1795.39404296875L2708.73291015625,1799.612060546875C2708.950927734375,1800.031982421875,2709.383056640625,1800.31494140625,2709.881103515625,1800.31494140625C2709.888916015625,1800.31494140625,2709.89794921875,1800.31494140625,2709.906005859375,1800.31494140625L2709.905029296875,1800.31494140625L2709.905029296875,1785.553955078125C2709.451904296875,1785.56396484375,2709.0419921875,1785.739990234375,2708.73095703125,1786.02392578125L2708.73193359375,1786.02294921875L2708.73193359375,1792.0379638671875L2708.264892578125,1793.2879638671875L2708.030029296875,1789.303955078125L2707.56103515625,1792.3489990234375L2707.092041015625,1791.4119873046875L2706.85693359375,1788.1319580078125L2705.68603515625,1792.583984375L2705.450927734375,1791.64697265625L2704.7490234375,1784.6180419921875L2704.047119140625,1790.7099609375L2703.576904296875,1792.583984375L2702.639892578125,1786.258056640625L2701.702880859375,1791.64599609375L2701.23388671875,1793.052001953125ZM2701,1775.68505859375C2700.93896484375,1775.6839599609375,2700.866943359375,1775.6829833984375,2700.794921875,1775.6829833984375C2697.844970703125,1775.6829833984375,2695.123046875,1776.6600341796875,2692.93408203125,1778.3079833984375L2692.967041015625,1778.283935546875C2690.924072265625,1779.781982421875,2689.592041015625,1782.14697265625,2689.51806640625,1784.825927734375L2689.51806640625,1784.8380126953125L2689.51806640625,1785.7750244140625C2687.37890625,1787.1820068359375,2685.986083984375,1789.572021484375,2685.986083984375,1792.2879638671875C2685.986083984375,1792.4749755859375,2685.992919921875,1792.6610107421875,2686.006103515625,1792.843994140625L2686.0048828125,1792.8189697265625C2686.0048828125,1796.9580078125,2688.35888671875,1800.3170166015625,2691.39306640625,1800.3170166015625L2691.39306640625,1784.8370361328125C2691.462890625,1782.7440185546875,2692.51708984375,1780.9100341796875,2694.10498046875,1779.7769775390625L2694.125,1779.7640380859375C2695.969970703125,1778.385986328125,2698.2958984375,1777.5570068359375,2700.81494140625,1777.5570068359375C2700.8798828125,1777.5570068359375,2700.945068359375,1777.5579833984375,2701.010009765625,1777.5589599609375L2701,1777.5589599609375C2701.053955078125,1777.5579833984375,2701.117919921875,1777.5579833984375,2701.18310546875,1777.5579833984375C2703.702880859375,1777.5579833984375,2706.030029296875,1778.385986328125,2707.906005859375,1779.7850341796875L2707.8759765625,1779.7640380859375C2709.48291015625,1780.9110107421875,2710.537109375,1782.7440185546875,2710.60693359375,1784.8270263671875L2710.60693359375,1784.8380126953125L2710.60693359375,1800.3170166015625C2713.64111328125,1800.3170166015625,2715.9951171875,1796.958984375,2715.9951171875,1792.8189697265625C2716.007080078125,1792.6600341796875,2716.012939453125,1792.4739990234375,2716.012939453125,1792.2869873046875C2716.012939453125,1789.572021484375,2714.6201171875,1787.1820068359375,2712.509033203125,1785.7939453125L2712.47998046875,1785.7760009765625L2712.47998046875,1784.8389892578125C2712.406005859375,1782.14794921875,2711.073974609375,1779.783935546875,2709.053955078125,1778.302001953125L2709.031005859375,1778.2860107421875C2706.876953125,1776.6619873046875,2704.155029296875,1775.68505859375,2701.2060546875,1775.68505859375C2701.134033203125,1775.68505859375,2701.06103515625,1775.68603515625,2700.989013671875,1775.68701171875L2701,1775.68701171875Z" style="fill:#ff7400;fill-opacity:1">
                    </path>
                  </g>
                </g>
              </g>
            </g>
          </g>
        </g>
      </g>
    </g>
  </g>
</svg>