<svg width="24" xmlns="http://www.w3.org/2000/svg" height="19.689" id="screenshot-1eebacc3-190b-80f3-8007-6abf2968ae3b" viewBox="2873.845 1776.155 24 19.689" style="-webkit-print-color-adjust::exact" xmlns:xlink="http://www.w3.org/1999/xlink" fill="none" version="1.1">
  <g id="shape-1eebacc3-190b-80f3-8007-6abf2968ae3b" style="fill:#000000" width="800" height="800" rx="0" ry="0">
    <g id="shape-1eebacc3-190b-80f3-8007-6abf2968ae3e">
      <g class="fills" id="fills-1eebacc3-190b-80f3-8007-6abf2968ae3e">
        <path d="M2885.84521484375,1782.302490234375L2884.721435546875,1790.9754638671875L2883.59765625,1783.109130859375L2883.036376953125,1789.8509521484375L2882.6611328125,1789.10205078125L2882.2861328125,1784.6077880859375L2882.09912109375,1789.10205078125L2881.535888671875,1790.41357421875L2881.162841796875,1785.919189453125L2880.787353515625,1789.476806640625L2880.226318359375,1788.5408935546875L2880.226318359375,1791.16259765625L2879.663818359375,1789.0548095703125L2879.663818359375,1784.4205322265625C2879.417236328125,1784.1943359375,2879.08984375,1784.0537109375,2878.729248046875,1784.0457763671875L2878.7275390625,1784.0457763671875L2878.7275390625,1795.843994140625C2878.7333984375,1795.843994140625,2878.740234375,1795.843994140625,2878.74755859375,1795.843994140625C2879.14453125,1795.843994140625,2879.490234375,1795.618408203125,2879.6611328125,1795.288330078125L2879.663818359375,1795.2828369140625L2879.663818359375,1791.9114990234375L2879.851318359375,1792.0985107421875L2880.4140625,1793.97119140625L2880.600830078125,1791.7236328125L2881.163818359375,1794.533203125L2881.163818359375,1790.9754638671875L2881.537109375,1791.9114990234375L2882.099609375,1794.533203125L2882.099609375,1790.9754638671875L2882.474365234375,1791.348876953125L2883.037353515625,1794.533203125L2883.59814453125,1790.2249755859375L2884.837158203125,1795.0791015625L2884.9091796875,1792.0977783203125L2885.2841796875,1790.9747314453125L2885.659912109375,1795.6561279296875L2886.78271484375,1790.9747314453125L2887.157470703125,1794.9072265625L2888.09423828125,1790.786865234375L2889.031005859375,1795.28125L2889.218017578125,1791.909912109375L2889.779296875,1790.7860107421875L2889.967041015625,1795.0941162109375L2890.90380859375,1790.973876953125L2891.46484375,1792.8466796875L2891.65283203125,1791.1610107421875L2892.026123046875,1791.909912109375L2892.026123046875,1795.28125C2892.2001953125,1795.6168212890625,2892.545654296875,1795.8431396484375,2892.943603515625,1795.8431396484375C2892.949951171875,1795.8431396484375,2892.95703125,1795.8431396484375,2892.96337890625,1795.8431396484375L2892.962646484375,1795.8431396484375L2892.962646484375,1784.0450439453125C2892.6005859375,1784.052978515625,2892.27294921875,1784.193603515625,2892.0244140625,1784.4205322265625L2892.02490234375,1784.4197998046875L2892.02490234375,1789.2274169921875L2891.65185546875,1790.2265625L2891.464111328125,1787.042236328125L2891.08935546875,1789.47607421875L2890.71435546875,1788.72705078125L2890.5263671875,1786.10546875L2889.5908203125,1789.6639404296875L2889.402587890625,1788.9149169921875L2888.841552734375,1783.296875L2888.28076171875,1788.166015625L2887.90478515625,1789.6639404296875L2887.156005859375,1784.6077880859375L2886.40673828125,1788.9141845703125L2886.031982421875,1790.0380859375ZM2885.84521484375,1776.1568603515625C2885.796142578125,1776.156005859375,2885.73876953125,1776.1552734375,2885.68115234375,1776.1552734375C2883.323486328125,1776.1552734375,2881.147705078125,1776.9361572265625,2879.3984375,1778.2532958984375L2879.424560546875,1778.234130859375C2877.791748046875,1779.431396484375,2876.72705078125,1781.32177734375,2876.66796875,1783.4630126953125L2876.66796875,1783.4727783203125L2876.66796875,1784.2216796875C2874.9580078125,1785.34619140625,2873.8447265625,1787.2564697265625,2873.8447265625,1789.42724609375C2873.8447265625,1789.5767822265625,2873.85009765625,1789.7254638671875,2873.86083984375,1789.871826171875L2873.85986328125,1789.8516845703125C2873.85986328125,1793.159912109375,2875.7412109375,1795.8447265625,2878.16650390625,1795.8447265625L2878.16650390625,1783.471923828125C2878.222412109375,1781.7989501953125,2879.064697265625,1780.3331298828125,2880.333984375,1779.427490234375L2880.35009765625,1779.4171142578125C2881.82470703125,1778.3157958984375,2883.683837890625,1777.653076171875,2885.697265625,1777.653076171875C2885.7490234375,1777.653076171875,2885.80126953125,1777.65380859375,2885.853271484375,1777.6546630859375L2885.84521484375,1777.6546630859375C2885.888427734375,1777.65380859375,2885.939208984375,1777.65380859375,2885.991455078125,1777.65380859375C2888.00537109375,1777.65380859375,2889.865478515625,1778.3157958984375,2891.364990234375,1779.4339599609375L2891.341064453125,1779.4171142578125C2892.62548828125,1780.3338623046875,2893.468017578125,1781.7989501953125,2893.523681640625,1783.4638671875L2893.523681640625,1783.4727783203125L2893.523681640625,1795.8447265625C2895.948974609375,1795.8447265625,2897.830322265625,1793.1607666015625,2897.830322265625,1789.8516845703125C2897.840087890625,1789.724609375,2897.8447265625,1789.575927734375,2897.8447265625,1789.426513671875C2897.8447265625,1787.2564697265625,2896.7314453125,1785.34619140625,2895.044189453125,1784.2366943359375L2895.020751953125,1784.222412109375L2895.020751953125,1783.4735107421875C2894.961669921875,1781.322509765625,2893.89697265625,1779.4329833984375,2892.282470703125,1778.2486572265625L2892.26416015625,1778.2357177734375C2890.54248046875,1776.937744140625,2888.36669921875,1776.1568603515625,2886.009765625,1776.1568603515625C2885.952392578125,1776.1568603515625,2885.89404296875,1776.15771484375,2885.836181640625,1776.158447265625L2885.84521484375,1776.158447265625Z" style="fill:#ff7400;fill-opacity:1">
        </path>
      </g>
    </g>
  </g>
</svg>