<svg width="67" xmlns="http://www.w3.org/2000/svg" height="25" id="screenshot-1eebacc3-190b-80f3-8007-6abf2968ae33" viewBox="2953 1775.5 67 25" style="-webkit-print-color-adjust::exact" xmlns:xlink="http://www.w3.org/1999/xlink" fill="none" version="1.1">
  <g id="shape-1eebacc3-190b-80f3-8007-6abf2968ae33" style="fill:#000000" rx="0" ry="0">
    <g id="shape-1eebacc3-190b-80f3-8007-6abf2968ae34">
      <g class="fills" id="fills-1eebacc3-190b-80f3-8007-6abf2968ae34">
        <path d="M2993.67236328125,1780.376220703125C2993.642822265625,1780.376220703125,2993.62841796875,1780.376220703125,2993.598876953125,1780.361083984375C2993.62841796875,1780.376220703125,2993.657470703125,1780.376220703125,2993.67236328125,1780.376220703125ZM2957.004150390625,1775.5L2953,1775.5L2953,1796.1370849609375L2957.708251953125,1796.1370849609375C2960.17236328125,1796.1370849609375,2961.888427734375,1795.38232421875,2962.87109375,1793.8876953125C2963.853759765625,1792.39306640625,2964.337890625,1789.66064453125,2964.337890625,1785.720458984375C2964.337890625,1781.840576171875,2963.853759765625,1779.16845703125,2962.87109375,1777.7041015625C2961.888427734375,1776.23974609375,2959.937744140625,1775.5,2957.004150390625,1775.5ZM2959.644287109375,1792.861083984375C2959.292236328125,1793.5555419921875,2958.66162109375,1793.8876953125,2957.752197265625,1793.8876953125L2957.033447265625,1793.8876953125L2957.033447265625,1777.7645263671875L2957.752197265625,1777.7645263671875C2958.67626953125,1777.7645263671875,2959.306884765625,1778.353271484375,2959.658935546875,1779.5157470703125C2960.010986328125,1780.67822265625,2960.18701171875,1782.82177734375,2960.18701171875,1785.9317626953125C2960.17236328125,1789.85693359375,2959.996337890625,1792.166748046875,2959.644287109375,1792.861083984375ZM2965.115234375,1775.51513671875L2968.899169921875,1775.51513671875L2968.899169921875,1779.1231689453125L2965.115234375,1779.1231689453125ZM2965.115234375,1780.3309326171875L2968.899169921875,1780.3309326171875L2968.899169921875,1796.1370849609375L2965.115234375,1796.1370849609375ZM2975.250244140625,1787.2149658203125C2974.047607421875,1786.1280517578125,2973.328857421875,1785.3883056640625,2973.09423828125,1784.980712890625C2972.859375,1784.572998046875,2972.741943359375,1784.16552734375,2972.741943359375,1783.7276611328125C2972.741943359375,1783.365234375,2972.844970703125,1783.0936279296875,2973.050048828125,1782.8973388671875C2973.255615234375,1782.7010498046875,2973.5048828125,1782.6104736328125,2973.81298828125,1782.6104736328125C2974.179443359375,1782.6104736328125,2974.458251953125,1782.761474609375,2974.66357421875,1783.04833984375C2974.868896484375,1783.335205078125,2974.971435546875,1783.7276611328125,2974.971435546875,1784.195556640625L2977.992919921875,1784.195556640625C2977.992919921875,1782.8973388671875,2977.626220703125,1781.8858642578125,2976.907470703125,1781.17626953125C2976.18896484375,1780.466796875,2975.1474609375,1780.11962890625,2973.783447265625,1780.11962890625C2972.50732421875,1780.11962890625,2971.480712890625,1780.466796875,2970.703369140625,1781.1461181640625C2969.926025390625,1781.840576171875,2969.530029296875,1782.761474609375,2969.530029296875,1783.9239501953125C2969.530029296875,1785.041015625,2969.69140625,1785.97705078125,2969.999267578125,1786.73193359375C2970.307373046875,1787.4866943359375,2971.040771484375,1788.37744140625,2972.19921875,1789.4190673828125C2973.108642578125,1790.21923828125,2973.768798828125,1790.853271484375,2974.1650390625,1791.291015625C2974.560791015625,1791.7288818359375,2974.766357421875,1792.136474609375,2974.766357421875,1792.513916015625C2974.766357421875,1792.9215087890625,2974.67822265625,1793.223388671875,2974.487548828125,1793.434814453125C2974.296875,1793.6461181640625,2974.01806640625,1793.7366943359375,2973.63671875,1793.7366943359375C2973.24072265625,1793.7366943359375,2972.947509765625,1793.600830078125,2972.741943359375,1793.34423828125C2972.536865234375,1793.087646484375,2972.43408203125,1792.664794921875,2972.43408203125,1792.0911865234375L2969.36865234375,1792.0911865234375C2969.36865234375,1793.47998046875,2969.7353515625,1794.536865234375,2970.46875,1795.231201171875C2971.2021484375,1795.92578125,2972.287353515625,1796.27294921875,2973.739501953125,1796.27294921875C2975.0888671875,1796.27294921875,2976.14501953125,1795.8955078125,2976.92236328125,1795.15576171875C2977.69970703125,1794.416015625,2978.0810546875,1793.3743896484375,2978.0810546875,1792.03076171875C2978.0810546875,1791.1702880859375,2977.875732421875,1790.38525390625,2977.465087890625,1789.6907958984375C2977.054443359375,1788.996337890625,2976.321044921875,1788.18115234375,2975.250244140625,1787.2149658203125ZM3019.384033203125,1789.7059326171875C3018.973388671875,1789.011474609375,3018.239990234375,1788.18115234375,3017.18408203125,1787.22998046875C3015.981201171875,1786.14306640625,3015.262451171875,1785.4033203125,3015.02783203125,1784.995849609375C3014.79296875,1784.588134765625,3014.67578125,1784.1806640625,3014.67578125,1783.74267578125C3014.67578125,1783.38037109375,3014.778564453125,1783.108642578125,3014.983642578125,1782.912353515625C3015.189208984375,1782.7161865234375,3015.4384765625,1782.6256103515625,3015.74658203125,1782.6256103515625C3016.11328125,1782.6256103515625,3016.391845703125,1782.776611328125,3016.59716796875,1783.0634765625C3016.802490234375,1783.350341796875,3016.905029296875,1783.74267578125,3016.905029296875,1784.210693359375L3019.926513671875,1784.210693359375C3019.926513671875,1782.912353515625,3019.559814453125,1781.90087890625,3018.84130859375,1781.19140625C3018.12255859375,1780.48193359375,3017.0810546875,1780.134765625,3015.717041015625,1780.134765625C3014.44091796875,1780.134765625,3013.414306640625,1780.48193359375,3012.636962890625,1781.1611328125C3011.859619140625,1781.855712890625,3011.4638671875,1782.776611328125,3011.4638671875,1783.93896484375C3011.4638671875,1785.05615234375,3011.625,1785.9921875,3011.93310546875,1786.7469482421875C3012.240966796875,1787.5018310546875,3012.974365234375,1788.392578125,3014.133056640625,1789.4342041015625C3015.04248046875,1790.2342529296875,3015.702392578125,1790.868408203125,3016.0986328125,1791.30615234375C3016.494384765625,1791.743896484375,3016.699951171875,1792.151611328125,3016.699951171875,1792.529052734375C3016.699951171875,1792.9365234375,3016.61181640625,1793.238525390625,3016.40673828125,1793.449951171875C3016.2158203125,1793.6611328125,3015.93701171875,1793.7518310546875,3015.555908203125,1793.7518310546875C3015.15966796875,1793.7518310546875,3014.866455078125,1793.615966796875,3014.6611328125,1793.3592529296875C3014.455810546875,1793.1026611328125,3014.353271484375,1792.679931640625,3014.353271484375,1792.106201171875L3011.287841796875,1792.106201171875C3011.287841796875,1793.4951171875,3011.654296875,1794.552001953125,3012.3876953125,1795.246337890625C3013.12109375,1795.9407958984375,3014.206298828125,1796.2880859375,3015.658447265625,1796.2880859375C3017.008056640625,1796.2880859375,3018.06396484375,1795.91064453125,3018.84130859375,1795.1708984375C3019.61865234375,1794.43115234375,3020,1793.3895263671875,3020,1792.0458984375C3019.9853515625,1791.1702880859375,3019.780029296875,1790.400390625,3019.384033203125,1789.7059326171875ZM2991.42822265625,1788.54345703125C2991.42822265625,1787.259521484375,2992.439453125,1786.2186279296875,2993.68701171875,1786.2186279296875C2994.934326171875,1786.2186279296875,2995.945556640625,1787.259521484375,2995.945556640625,1788.54345703125C2995.945556640625,1789.827392578125,2994.934326171875,1790.868408203125,2993.68701171875,1790.868408203125C2992.439453125,1790.868408203125,2991.42822265625,1789.827392578125,2991.42822265625,1788.54345703125ZM2991.53076171875,1788.54345703125C2991.53076171875,1789.766357421875,2992.498779296875,1790.7626953125,2993.68701171875,1790.7626953125C2994.875,1790.7626953125,2995.843017578125,1789.766357421875,2995.843017578125,1788.54345703125C2995.843017578125,1787.320556640625,2994.875,1786.32421875,2993.68701171875,1786.32421875C2992.484375,1786.32421875,2991.53076171875,1787.320556640625,2991.53076171875,1788.54345703125Z" style="fill:#ff7400;fill-opacity:1">
        </path>
      </g>
    </g>
    <g id="shape-1eebacc3-190b-80f3-8007-6abf2968ae35">
      <g class="fills" id="fills-1eebacc3-190b-80f3-8007-6abf2968ae35">
        <path d="M2994.0390625,1788.54345703125C2994.0390625,1788.73974609375,2993.877685546875,1788.90576171875,2993.68701171875,1788.90576171875C2993.496337890625,1788.90576171875,2993.3349609375,1788.73974609375,2993.3349609375,1788.54345703125C2993.3349609375,1788.34716796875,2993.496337890625,1788.18115234375,2993.68701171875,1788.18115234375C2993.877685546875,1788.18115234375,2994.0390625,1788.34716796875,2994.0390625,1788.54345703125ZM2986.001220703125,1792.2119140625L2984.57861328125,1792.2119140625C2984.52001953125,1792.891357421875,2984.417236328125,1793.3291015625,2984.255859375,1793.54052734375C2984.094482421875,1793.7518310546875,2983.84521484375,1793.8424072265625,2983.508056640625,1793.8424072265625C2982.96533203125,1793.8424072265625,2982.61328125,1793.51025390625,2982.466552734375,1792.861083984375C2982.30517578125,1792.2119140625,2982.23193359375,1790.656982421875,2982.23193359375,1788.1962890625C2982.23193359375,1786.067626953125,2982.30517578125,1784.603271484375,2982.43701171875,1783.7880859375C2982.569091796875,1782.972900390625,2982.921142578125,1782.565185546875,2983.4638671875,1782.565185546875C2983.78662109375,1782.565185546875,2984.021240234375,1782.7010498046875,2984.1533203125,1782.9879150390625C2984.285400390625,1783.274658203125,2984.358642578125,1783.893798828125,2984.358642578125,1784.85986328125L2986.01611328125,1784.85986328125C2986.3828125,1784.074951171875,2986.837158203125,1783.350341796875,2987.409423828125,1782.7161865234375C2987.2333984375,1782.1575927734375,2986.95458984375,1781.674560546875,2986.6025390625,1781.297119140625C2985.869384765625,1780.5120849609375,2984.813232421875,1780.11962890625,2983.44921875,1780.11962890625C2981.733154296875,1780.11962890625,2980.4423828125,1780.798828125,2979.591796875,1782.1575927734375C2978.740966796875,1783.516357421875,2978.315673828125,1785.524169921875,2978.315673828125,1788.1962890625C2978.315673828125,1790.883544921875,2978.726318359375,1792.9063720703125,2979.547607421875,1794.25C2980.369140625,1795.608642578125,2981.57177734375,1796.2880859375,2983.17041015625,1796.2880859375C2984.57861328125,1796.2880859375,2985.634521484375,1795.9559326171875,2986.3388671875,1795.291748046875C2986.690673828125,1794.95947265625,2986.940185546875,1794.552001953125,2987.1162109375,1794.03857421875C2986.676025390625,1793.47998046875,2986.309326171875,1792.861083984375,2986.001220703125,1792.2119140625ZM3002.12060546875,1788.55859375C3002.12060546875,1790.098388671875,3001.7392578125,1791.5325927734375,3001.0498046875,1792.78564453125C3001.28466796875,1793.67626953125,3001.621826171875,1794.355712890625,3002.06201171875,1794.8387451171875C3002.663330078125,1795.472900390625,3003.499267578125,1795.789794921875,3004.570068359375,1795.789794921875C3005.200927734375,1795.789794921875,3005.758056640625,1795.69921875,3006.2275390625,1795.533203125C3006.69677734375,1795.3671875,3007.01953125,1795.1407470703125,3007.180908203125,1794.868896484375C3007.195556640625,1795.02001953125,3007.210205078125,1795.1708984375,3007.210205078125,1795.291748046875C3007.224853515625,1795.412353515625,3007.224853515625,1795.533203125,3007.224853515625,1795.638916015625C3007.224853515625,1796.46923828125,3007.048828125,1797.088134765625,3006.68212890625,1797.5108642578125C3006.3154296875,1797.93359375,3005.758056640625,1798.1600341796875,3004.995361328125,1798.1600341796875C3004.49658203125,1798.1600341796875,3003.939453125,1798.099609375,3003.338134765625,1797.9788818359375C3002.736572265625,1797.858154296875,3002.238037109375,1797.72216796875,3001.856689453125,1797.541015625L3001.38720703125,1799.699951171875C3001.959228515625,1799.9716796875,3002.590087890625,1800.16796875,3003.2939453125,1800.3037109375C3003.998046875,1800.4395751953125,3004.687255859375,1800.5,3005.362060546875,1800.5C3007.0048828125,1800.5,3008.29541015625,1800.0772705078125,3009.263427734375,1799.23193359375C3010.216796875,1798.386474609375,3010.700927734375,1797.19384765625,3010.700927734375,1795.654052734375L3010.700927734375,1780.3309326171875L3006.931396484375,1780.3309326171875L3006.931396484375,1780.708251953125C3006.59423828125,1780.4969482421875,3006.2568359375,1780.345947265625,3005.91943359375,1780.25537109375C3005.58203125,1780.164794921875,3005.18603515625,1780.11962890625,3004.731201171875,1780.11962890625C3003.807373046875,1780.11962890625,3003.030029296875,1780.4063720703125,3002.399169921875,1780.9951171875C3001.75390625,1781.583984375,3001.299072265625,1782.399169921875,3001.0205078125,1783.42578125C3000.9765625,1783.60693359375,3000.91796875,1783.8182373046875,3000.873779296875,1784.074951171875C3001.665771484375,1785.3883056640625,3002.10595703125,1786.9130859375,3002.12060546875,1788.55859375M3006.960693359375,1793.208251953125C3006.799560546875,1793.34423828125,3006.63818359375,1793.434814453125,3006.476806640625,1793.4951171875C3006.3154296875,1793.5555419921875,3006.095458984375,1793.585693359375,3005.831298828125,1793.585693359375C3005.4794921875,1793.585693359375,3005.21533203125,1793.47998046875,3005.02490234375,1793.268798828125C3004.834228515625,1793.057373046875,3004.716796875,1792.710205078125,3004.672607421875,1792.22705078125C3004.628662109375,1791.7288818359375,3004.584716796875,1791.0948486328125,3004.555419921875,1790.3399658203125C3004.526123046875,1789.585205078125,3004.511474609375,1788.7850341796875,3004.511474609375,1787.9395751953125C3004.516357421875,1786.66943359375,3004.5751953125,1785.400146484375,3004.687255859375,1784.13525390625C3004.74609375,1783.5465087890625,3004.86328125,1783.154052734375,3005.06884765625,1782.942626953125C3005.27392578125,1782.731201171875,3005.58203125,1782.6256103515625,3005.99267578125,1782.6256103515625C3006.139404296875,1782.6256103515625,3006.3154296875,1782.65576171875,3006.506103515625,1782.68603515625C3006.69677734375,1782.731201171875,3006.858154296875,1782.791748046875,3006.960693359375,1782.85205078125L3006.960693359375,1793.208251953125Z" style="fill:#ff7400;fill-opacity:1">
        </path>
      </g>
    </g>
    <g id="shape-1eebacc3-190b-80f3-8007-6abf2968ae36">
      <g class="fills" id="fills-1eebacc3-190b-80f3-8007-6abf2968ae36">
        <path d="M2989.609375,1788.54345703125C2989.609375,1789.736083984375,2990.09326171875,1790.7928466796875,2990.856201171875,1791.562744140625L2991.618896484375,1790.7022705078125L2991.633544921875,1790.7174072265625C2991.076171875,1790.1739501953125,2990.739013671875,1789.404052734375,2990.739013671875,1788.54345703125C2990.739013671875,1786.86767578125,2992.05908203125,1785.509033203125,2993.68701171875,1785.509033203125C2994.229736328125,1785.509033203125,2994.728271484375,1785.6600341796875,2995.153564453125,1785.916748046875L2995.6962890625,1784.89013671875C2995.094970703125,1784.54296875,2994.42041015625,1784.3466796875,2993.68701171875,1784.3466796875C2991.44287109375,1784.3466796875,2989.609375,1786.233642578125,2989.609375,1788.54345703125ZM2996.620361328125,1788.54345703125C2996.620361328125,1790.21923828125,2995.30029296875,1791.577880859375,2993.68701171875,1791.577880859375C2993.188232421875,1791.577880859375,2992.733642578125,1791.4571533203125,2992.32275390625,1791.230712890625L2991.765625,1792.2421875C2992.337646484375,1792.5592041015625,2992.99755859375,1792.740234375,2993.68701171875,1792.740234375C2995.930908203125,1792.740234375,2997.764404296875,1790.853271484375,2997.764404296875,1788.54345703125C2997.764404296875,1787.3961181640625,2997.309814453125,1786.3544921875,2996.591064453125,1785.599609375L2995.813720703125,1786.460205078125C2996.312255859375,1787.003662109375,2996.620361328125,1787.728271484375,2996.620361328125,1788.54345703125Z" style="fill:#ff7400;fill-opacity:1">
        </path>
      </g>
    </g>
    <g id="shape-1eebacc3-190b-80f3-8007-6abf2968ae37">
      <g class="fills" id="fills-1eebacc3-190b-80f3-8007-6abf2968ae37">
        <path d="M2988.31884765625,1788.54345703125C2988.31884765625,1790.113525390625,2988.964111328125,1791.5325927734375,2989.99072265625,1792.5440673828125L2990.76806640625,1791.68359375C2989.96142578125,1790.8985595703125,2989.462890625,1789.7813720703125,2989.462890625,1788.55859375C2989.462890625,1786.1573486328125,2991.35400390625,1784.210693359375,2993.68701171875,1784.210693359375C2994.44970703125,1784.210693359375,2995.153564453125,1784.422119140625,2995.769775390625,1784.784423828125L2996.3271484375,1783.7578125C2995.5498046875,1783.304931640625,2994.655029296875,1783.04833984375,2993.68701171875,1783.04833984375C2992.26513671875,1783.0369873046875,2990.897705078125,1783.611328125,2989.889404296875,1784.6435546875C2988.880859375,1785.6756591796875,2988.3154296875,1787.079833984375,2988.31884765625,1788.54345703125ZM2997.896484375,1788.54345703125C2997.897216796875,1790.072509765625,2997.117431640625,1791.489501953125,2995.843017578125,1792.2752685546875C2994.568603515625,1793.06103515625,2992.987060546875,1793.10009765625,2991.677490234375,1792.3779296875L2991.1201171875,1793.404541015625C2992.783935546875,1794.327880859375,2994.796630859375,1794.283203125,2996.420166015625,1793.286865234375C2998.043701171875,1792.2904052734375,2999.038818359375,1790.489013671875,2999.04052734375,1788.54345703125C2999.04052734375,1787.018798828125,2998.439208984375,1785.6298828125,2997.456298828125,1784.633544921875L2996.678955078125,1785.493896484375C2997.441650390625,1786.279052734375,2997.896484375,1787.350830078125,2997.896484375,1788.54345703125Z" style="fill:#ff7400;fill-opacity:1">
        </path>
      </g>
    </g>
    <g id="shape-1eebacc3-190b-80f3-8007-6abf2968ae38">
      <g class="fills" id="fills-1eebacc3-190b-80f3-8007-6abf2968ae38">
        <path d="M2999.18701171875,1788.54345703125C2999.18212890625,1790.5416259765625,2998.15869140625,1792.390380859375,2996.491455078125,1793.4139404296875C2994.82421875,1794.4373779296875,2992.75732421875,1794.4853515625,2991.046875,1793.54052734375L2990.474853515625,1794.5821533203125C2991.42822265625,1795.1104736328125,2992.513427734375,1795.427490234375,2993.67236328125,1795.427490234375C2997.353759765625,1795.427490234375,3000.3310546875,1792.347900390625,3000.3310546875,1788.57373046875C3000.3310546875,1786.6563720703125,2999.568603515625,1784.9202880859375,2998.33642578125,1783.682373046875L2997.55908203125,1784.5579833984375C2998.5712890625,1785.539306640625,2999.18701171875,1786.973388671875,2999.18701171875,1788.54345703125ZM2987.013427734375,1788.54345703125C2987.013427734375,1790.506103515625,2987.820068359375,1792.2723388671875,2989.09619140625,1793.525390625L2989.87353515625,1792.649658203125C2988.776123046875,1791.582763671875,2988.155517578125,1790.09716796875,2988.157470703125,1788.54345703125C2988.157470703125,1785.41845703125,2990.635986328125,1782.8671875,2993.67236328125,1782.8671875C2994.655029296875,1782.8671875,2995.578857421875,1783.138916015625,2996.37109375,1783.60693359375L2996.928466796875,1782.565185546875C2995.96044921875,1782.006591796875,2994.845703125,1781.6895751953125,2993.67236328125,1781.6895751953125C2990.005615234375,1781.674560546875,2987.013427734375,1784.754150390625,2987.013427734375,1788.54345703125Z" style="fill:#ff7400;fill-opacity:1">
        </path>
      </g>
    </g>
    <g id="shape-1eebacc3-190b-80f3-8007-6abf2968ae39">
      <g class="fills" id="fills-1eebacc3-190b-80f3-8007-6abf2968ae39">
        <path d="M2999.216552734375,1782.68603515625L2998.453857421875,1783.5313720703125C2999.71533203125,1784.799560546875,3000.50732421875,1786.5809326171875,3000.50732421875,1788.5283203125C3000.50732421875,1792.39306640625,2997.456298828125,1795.533203125,2993.70166015625,1795.533203125C2992.513427734375,1795.533203125,2991.41357421875,1795.2161865234375,2990.445556640625,1794.6727294921875L2989.87353515625,1795.71435546875C2991.002685546875,1796.348388671875,2992.308349609375,1796.725830078125,2993.68701171875,1796.725830078125C2998.072509765625,1796.725830078125,3001.63671875,1793.057373046875,3001.63671875,1788.54345703125C3001.621826171875,1786.248779296875,3000.69775390625,1784.1806640625,2999.216552734375,1782.68603515625ZM2986.86669921875,1788.54345703125C2986.86669921875,1784.6787109375,2989.91748046875,1781.53857421875,2993.67236328125,1781.53857421875C2994.875,1781.53857421875,2996.01904296875,1781.870849609375,2997.001708984375,1782.4443359375L2997.54443359375,1781.4329833984375C2996.4296875,1780.7838134765625,2995.153564453125,1780.4063720703125,2993.78955078125,1780.391357421875L2993.657470703125,1780.391357421875C2989.286865234375,1780.391357421875,2985.751953125,1784.0145263671875,2985.7080078125,1788.4981689453125L2985.7080078125,1788.57373046875C2985.7080078125,1790.91357421875,2986.676025390625,1793.027099609375,2988.216064453125,1794.521728515625L2989.008056640625,1793.6461181640625C2987.68798828125,1792.347900390625,2986.86669921875,1790.55126953125,2986.86669921875,1788.54345703125Z" style="fill:#ff7400;fill-opacity:1">
        </path>
      </g>
    </g>
  </g>
</svg>