<svg width="23.78" xmlns="http://www.w3.org/2000/svg" height="24" id="screenshot-fe5273e0-d629-80ee-8007-73ca89e66ffd" viewBox="2989.845 1774 23.78 24" style="-webkit-print-color-adjust::exact" xmlns:xlink="http://www.w3.org/1999/xlink" fill="none" version="1.1">
  <g id="shape-fe5273e0-d629-80ee-8007-73ca89e66ffd" style="fill:#000000" version="1.1" x="0" y="0" xml:space="preserve" rx="0" ry="0">
    <g id="shape-fe5273e0-d629-80ee-8007-73ca89e78434">
      <g class="fills" id="fills-fe5273e0-d629-80ee-8007-73ca89e78434">
        <path d="M3001.734619140625,1774.0220947265625C3001.69091796875,1774.0220947265625,3001.6689453125,1774.0220947265625,3001.624755859375,1774C3001.6689453125,1774.0220947265625,3001.712646484375,1774.0220947265625,3001.734619140625,1774.0220947265625Z" style="enable-background:new 0 0 108.4 108.5;fill:#ff7400;fill-opacity:1">
        </path>
      </g>
    </g>
    <g id="shape-fe5273e0-d629-80ee-8007-73ca89e78435">
      <g class="fills" id="fills-fe5273e0-d629-80ee-8007-73ca89e78435">
        <path d="M2997.369384765625,1785.989013671875C2997.369384765625,1783.53369140625,2999.343505859375,1781.5428466796875,3001.7783203125,1781.5428466796875C3002.59033203125,1781.5428466796875,3003.3359375,1781.7640380859375,3003.97216796875,1782.14013671875L3004.849609375,1780.54736328125C3003.9501953125,1780.0166015625,3002.897216796875,1779.72900390625,3001.7783203125,1779.72900390625C3000.0673828125,1779.72900390625,2998.509765625,1780.4368896484375,2997.39111328125,1781.56494140625C2996.272216796875,1782.693115234375,2995.5703125,1784.2635498046875,2995.5703125,1785.989013671875C2995.5703125,1787.71435546875,2996.250244140625,1789.2847900390625,2997.39111328125,1790.412841796875C2997.4130859375,1790.4349365234375,2997.456787109375,1790.479248046875,2997.478759765625,1790.5013427734375L2998.707275390625,1789.1741943359375C2998.707275390625,1789.1741943359375,2998.707275390625,1789.1741943359375,2998.729248046875,1789.1962890625C2997.87353515625,1788.3778076171875,2997.369384765625,1787.249755859375,2997.369384765625,1785.989013671875Z" style="enable-background:new 0 0 108.4 108.5;fill:#ff7400;fill-opacity:1">
        </path>
      </g>
    </g>
    <g id="shape-fe5273e0-d629-80ee-8007-73ca89e7e6a5">
      <g class="fills" id="fills-fe5273e0-d629-80ee-8007-73ca89e7e6a5">
        <path d="M3006.165771484375,1781.6092529296875L3004.9375,1782.9364013671875C3005.683349609375,1783.7327880859375,3006.14404296875,1784.816650390625,3006.14404296875,1785.989013671875C3006.14404296875,1788.4442138671875,3004.169677734375,1790.4349365234375,3001.756591796875,1790.4349365234375C3001.0107421875,1790.4349365234375,3000.33056640625,1790.258056640625,2999.716552734375,1789.92626953125L2999.716552734375,1789.92626953125L2998.8388671875,1791.5189208984375C2999.716552734375,1791.9833984375,3000.70361328125,1792.2489013671875,3001.756591796875,1792.2489013671875C3003.467529296875,1792.2489013671875,3005.025146484375,1791.541015625,3006.14404296875,1790.412841796875C3007.2626953125,1789.2847900390625,3007.96484375,1787.71435546875,3007.96484375,1785.989013671875C3007.96484375,1784.2857666015625,3007.284912109375,1782.7373046875,3006.165771484375,1781.6092529296875Z" style="enable-background:new 0 0 108.4 108.5;fill:#ff7400;fill-opacity:1">
        </path>
      </g>
    </g>
    <g id="shape-fe5273e0-d629-80ee-8007-73ca89e7e6a6">
      <g class="fills" id="fills-fe5273e0-d629-80ee-8007-73ca89e7e6a6">
        <path d="M2998.378173828125,1785.989013671875C2998.378173828125,1784.1087646484375,2999.891845703125,1782.58251953125,3001.756591796875,1782.58251953125L3001.756591796875,1782.58251953125C3003.621337890625,1782.58251953125,3005.134765625,1784.1087646484375,3005.134765625,1785.989013671875L3005.134765625,1785.989013671875C3005.134765625,1787.869140625,3003.621337890625,1789.3953857421875,3001.756591796875,1789.3953857421875L3001.756591796875,1789.3953857421875C2999.891845703125,1789.3953857421875,2998.378173828125,1787.869140625,2998.378173828125,1785.989013671875L2998.378173828125,1785.989013671875ZM2998.531982421875,1785.989013671875C2998.531982421875,1787.7806396484375,2999.979736328125,1789.2406005859375,3001.756591796875,1789.2406005859375L3001.756591796875,1789.2406005859375C3003.533447265625,1789.2406005859375,3004.9814453125,1787.7806396484375,3004.9814453125,1785.989013671875L3004.9814453125,1785.989013671875C3004.9814453125,1784.197265625,3003.533447265625,1782.7373046875,3001.756591796875,1782.7373046875L3001.756591796875,1782.7373046875C2999.979736328125,1782.7373046875,2998.531982421875,1784.197265625,2998.531982421875,1785.989013671875L2998.531982421875,1785.989013671875Z" style="enable-background:new 0 0 108.4 108.5;fill:#ff7400;fill-opacity:1">
        </path>
      </g>
    </g>
    <g id="shape-fe5273e0-d629-80ee-8007-73ca89e7e6a7">
      <g class="fills" id="fills-fe5273e0-d629-80ee-8007-73ca89e7e6a7">
        <path d="M3002.282958984375,1785.989013671875C3002.282958984375,1786.2764892578125,3002.041748046875,1786.519775390625,3001.756591796875,1786.519775390625C3001.471435546875,1786.519775390625,3001.22998046875,1786.2764892578125,3001.22998046875,1785.989013671875C3001.22998046875,1785.7012939453125,3001.471435546875,1785.4581298828125,3001.756591796875,1785.4581298828125C3002.063720703125,1785.4581298828125,3002.282958984375,1785.7012939453125,3002.282958984375,1785.989013671875Z" style="enable-background:new 0 0 108.4 108.5;fill:#ff7400;fill-opacity:1">
        </path>
      </g>
    </g>
    <g id="shape-fe5273e0-d629-80ee-8007-73ca89e81c5e">
      <g class="fills" id="fills-fe5273e0-d629-80ee-8007-73ca89e81c5e">
        <path d="M2996.16259765625,1791.9390869140625L2997.4130859375,1790.5677490234375C2996.228515625,1789.4176025390625,2995.482421875,1787.802734375,2995.482421875,1785.989013671875C2995.482421875,1782.4718017578125,2998.29052734375,1779.6405029296875,3001.7783203125,1779.6405029296875C3002.919189453125,1779.6405029296875,3003.97216796875,1779.9503173828125,3004.8935546875,1780.4810791015625L3005.77099609375,1778.8443603515625C3004.58642578125,1778.1806640625,3003.226318359375,1777.782470703125,3001.7783203125,1777.782470703125C2999.540771484375,1777.782470703125,2997.5009765625,1778.7115478515625,2996.031005859375,1780.1934814453125C2994.561279296875,1781.675537109375,2993.639892578125,1783.7327880859375,2993.639892578125,1785.989013671875C2993.639892578125,1788.2451171875,2994.539306640625,1790.30224609375,2996.031005859375,1791.7843017578125C2996.052978515625,1791.82861328125,2996.096923828125,1791.89501953125,2996.16259765625,1791.9390869140625Z" style="enable-background:new 0 0 108.4 108.5;fill:#ff7400;fill-opacity:1">
        </path>
      </g>
    </g>
    <g id="shape-fe5273e0-d629-80ee-8007-73ca89e81c5f">
      <g class="fills" id="fills-fe5273e0-d629-80ee-8007-73ca89e81c5f">
        <path d="M3007.50390625,1780.1934814453125C3007.50390625,1780.1934814453125,3007.50390625,1780.17138671875,3007.50390625,1780.1934814453125L3006.23193359375,1781.5428466796875C3007.3505859375,1782.693115234375,3008.052490234375,1784.2635498046875,3008.052490234375,1785.989013671875C3008.052490234375,1789.48388671875,3005.24462890625,1792.3372802734375,3001.756591796875,1792.3372802734375C3000.681640625,1792.3372802734375,2999.672607421875,1792.0718994140625,2998.795166015625,1791.585205078125L2997.895751953125,1793.2000732421875C2999.058349609375,1793.8414306640625,3000.374755859375,1794.1954345703125,3001.7783203125,1794.1954345703125C3004.016357421875,1794.1954345703125,3006.05615234375,1793.266357421875,3007.52587890625,1791.7843017578125C3008.995849609375,1790.30224609375,3009.917236328125,1788.2451171875,3009.917236328125,1785.989013671875C3009.895263671875,1783.7327880859375,3008.973876953125,1781.675537109375,3007.50390625,1780.1934814453125Z" style="enable-background:new 0 0 108.4 108.5;fill:#ff7400;fill-opacity:1">
        </path>
      </g>
    </g>
    <g id="shape-fe5273e0-d629-80ee-8007-73ca89e81c60">
      <g class="fills" id="fills-fe5273e0-d629-80ee-8007-73ca89e81c60">
        <path d="M3008.88623046875,1778.800048828125C3008.8642578125,1778.7779541015625,3008.84228515625,1778.7557373046875,3008.8203125,1778.733642578125L3007.570068359375,1780.1051025390625C3009.0615234375,1781.6092529296875,3010.0048828125,1783.6884765625,3010.0048828125,1785.989013671875C3010.0048828125,1790.5677490234375,3006.319580078125,1794.2838134765625,3001.7783203125,1794.2838134765625C3000.3525390625,1794.2838134765625,2999.014404296875,1793.929931640625,2997.8515625,1793.2884521484375L2996.9521484375,1794.9031982421875C2998.378173828125,1795.699462890625,3000.0234375,1796.141845703125,3001.7783203125,1796.141845703125C3004.564697265625,1796.141845703125,3007.08740234375,1795.0137939453125,3008.907958984375,1793.15576171875C3010.728759765625,1791.31982421875,3011.84765625,1788.7760009765625,3011.84765625,1785.966796875C3011.82568359375,1783.1798095703125,3010.70703125,1780.635986328125,3008.88623046875,1778.800048828125Z" style="enable-background:new 0 0 108.4 108.5;fill:#ff7400;fill-opacity:1">
        </path>
      </g>
    </g>
    <g id="shape-fe5273e0-d629-80ee-8007-73ca89e87e95">
      <g class="fills" id="fills-fe5273e0-d629-80ee-8007-73ca89e87e95">
        <path d="M2994.824462890625,1793.376953125L2996.074951171875,1792.0054931640625C2994.49560546875,1790.5013427734375,2993.50830078125,1788.355712890625,2993.50830078125,1785.989013671875C2993.50830078125,1781.41015625,2997.193603515625,1777.6939697265625,3001.734619140625,1777.6939697265625C3003.204345703125,1777.6939697265625,3004.58642578125,1778.0921630859375,3005.77099609375,1778.7557373046875L3006.648681640625,1777.1187744140625C3005.20068359375,1776.300537109375,3003.51171875,1775.813720703125,3001.712646484375,1775.813720703125C2998.9267578125,1775.813720703125,2996.40380859375,1776.9420166015625,2994.5830078125,1778.800048828125C2992.806396484375,1780.635986328125,2991.6875,1783.1798095703125,2991.6875,1785.989013671875C2991.6875,1788.7982177734375,2992.828125,1791.342041015625,2994.64892578125,1793.1778564453125C2994.69287109375,1793.244140625,2994.7587890625,1793.310546875,2994.824462890625,1793.376953125Z" style="enable-background:new 0 0 108.4 108.5;fill:#ff7400;fill-opacity:1">
        </path>
      </g>
    </g>
    <g id="shape-fe5273e0-d629-80ee-8007-73ca89e87e96">
      <g class="fills" id="fills-fe5273e0-d629-80ee-8007-73ca89e87e96">
        <path d="M3010.02685546875,1777.4285888671875L3008.88623046875,1778.667236328125C3010.772705078125,1780.525390625,3011.935302734375,1783.1134033203125,3011.935302734375,1785.989013671875C3011.935302734375,1791.651611328125,3007.372314453125,1796.2525634765625,3001.756591796875,1796.2525634765625C2999.979736328125,1796.2525634765625,2998.33447265625,1795.7879638671875,2996.886474609375,1794.99169921875L2996.031005859375,1796.5179443359375C2997.719970703125,1797.447021484375,2999.672607421875,1798,3001.734619140625,1798C3008.293701171875,1798,3013.62451171875,1792.6248779296875,3013.62451171875,1786.0111083984375C3013.62451171875,1782.6488037109375,3012.24267578125,1779.596435546875,3010.02685546875,1777.4285888671875Z" style="enable-background:new 0 0 108.4 108.5;fill:#ff7400;fill-opacity:1">
        </path>
      </g>
    </g>
    <g id="shape-fe5273e0-d629-80ee-8007-73ca89e87e97">
      <g class="fills" id="fills-fe5273e0-d629-80ee-8007-73ca89e87e97">
        <path d="M3001.93212890625,1774.0220947265625L3001.734619140625,1774.0220947265625C2995.21923828125,1774.0220947265625,2989.91064453125,1779.3309326171875,2989.8447265625,1785.900390625L2989.8447265625,1785.900390625L2989.8447265625,1786.0111083984375C2989.8447265625,1789.439697265625,2991.29248046875,1792.536376953125,2993.59619140625,1794.726318359375L2994.780517578125,1793.4432373046875C2992.806396484375,1791.5631103515625,2991.57763671875,1788.9307861328125,2991.57763671875,1785.989013671875C2991.57763671875,1780.3262939453125,2996.140625,1775.725341796875,3001.756591796875,1775.725341796875C3003.555419921875,1775.725341796875,3005.266357421875,1776.2119140625,3006.736083984375,1777.0303955078125L3007.548095703125,1775.5484619140625C3005.880859375,1774.5972900390625,3003.97216796875,1774.0443115234375,3001.93212890625,1774.0220947265625Z" style="enable-background:new 0 0 108.4 108.5;fill:#ff7400;fill-opacity:1">
        </path>
      </g>
    </g>
  </g>
</svg>