<svg width="23.654" xmlns="http://www.w3.org/2000/svg" height="24" id="screenshot-1eebacc3-190b-80f3-8007-6abf2968ae4b" viewBox="2816.191 1774 23.654 24" style="-webkit-print-color-adjust::exact" xmlns:xlink="http://www.w3.org/1999/xlink" fill="none" version="1.1">
  <g id="shape-1eebacc3-190b-80f3-8007-6abf2968ae4b" style="fill:#000000" xml:space="preserve" rx="0" ry="0">
    <g id="shape-1eebacc3-190b-80f3-8007-6abf2968ae4d">
      <g class="fills" id="fills-1eebacc3-190b-80f3-8007-6abf2968ae4d">
        <ellipse cx="2828.0176142975806" cy="1786.1581442191825" rx="1.1852046925066588" ry="1.2018977163447744" transform="matrix(1.000000, 0.000000, 0.000000, 1.000000, 0.000000, 0.000000)" style="enable-background:new 0 0 216 213;fill:#ff7400;fill-opacity:1">
        </ellipse>
      </g>
    </g>
    <g id="shape-1eebacc3-190b-80f3-8007-6abf2968ae4e">
      <g class="fills" id="fills-1eebacc3-190b-80f3-8007-6abf2968ae4e">
        <path d="M2830.774658203125,1783.3369140625L2836.98779296875,1778.1876220703125C2836.2392578125,1777.3018798828125,2835.365966796875,1776.5303955078125,2834.392822265625,1775.897705078125L2829.951416015625,1782.7169189453125C2830.26318359375,1782.88134765625,2830.53759765625,1783.096435546875,2830.774658203125,1783.3369140625Z" style="enable-background:new 0 0 216 213;fill:#ff7400;fill-opacity:1">
        </path>
      </g>
    </g>
    <g id="shape-1eebacc3-190b-80f3-8007-6abf2968ae4f">
      <g class="fills" id="fills-1eebacc3-190b-80f3-8007-6abf2968ae4f">
        <path d="M2824.0751953125,1786.208740234375L2816.26513671875,1787.3980712890625C2816.6396484375,1790.712646484375,2818.348876953125,1793.60986328125,2820.843994140625,1795.532958984375L2825.734619140625,1789.447509765625C2824.736328125,1788.7391357421875,2824.087646484375,1787.5498046875,2824.0751953125,1786.208740234375Z" style="enable-background:new 0 0 216 213;fill:#ff7400;fill-opacity:1">
        </path>
      </g>
    </g>
    <g id="shape-1eebacc3-190b-80f3-8007-6abf2968ae50">
      <g class="fills" id="fills-1eebacc3-190b-80f3-8007-6abf2968ae50">
        <path d="M2839.844482421875,1786.335205078125L2831.960205078125,1786.3984375C2831.909912109375,1787.322021484375,2831.560791015625,1788.156982421875,2830.99951171875,1788.80224609375L2837.49951171875,1793.1671142578125C2838.908935546875,1791.2567138671875,2839.77001953125,1788.903564453125,2839.844482421875,1786.335205078125Z" style="enable-background:new 0 0 216 213;fill:#ff7400;fill-opacity:1">
        </path>
      </g>
    </g>
    <g id="shape-1eebacc3-190b-80f3-8007-6abf2968ae51">
      <g class="fills" id="fills-1eebacc3-190b-80f3-8007-6abf2968ae51">
        <path d="M2828.017578125,1790.1939697265625C2827.181640625,1790.1939697265625,2826.408203125,1789.92822265625,2825.77197265625,1789.4853515625L2821.517578125,1796.0263671875C2823.376708984375,1797.26611328125,2825.609619140625,1798,2828.017578125,1798C2828.454345703125,1798,2828.89111328125,1797.9747314453125,2829.32763671875,1797.9239501953125L2829.32763671875,1789.9661865234375C2828.916015625,1790.117919921875,2828.4794921875,1790.1939697265625,2828.017578125,1790.1939697265625Z" style="enable-background:new 0 0 216 213;fill:#ff7400;fill-opacity:1">
        </path>
      </g>
    </g>
    <g id="shape-1eebacc3-190b-80f3-8007-6abf2968ae52">
      <g class="fills" id="fills-1eebacc3-190b-80f3-8007-6abf2968ae52">
        <path d="M2828.017578125,1782.1982421875C2828.7041015625,1782.1982421875,2829.352294921875,1782.3753662109375,2829.9140625,1782.691650390625L2833.644287109375,1775.4422607421875C2831.972412109375,1774.5185546875,2830.051513671875,1774,2828.017578125,1774C2827.71826171875,1774,2827.4189453125,1774.0125732421875,2827.1318359375,1774.0379638671875L2826.982177734375,1782.3372802734375C2827.31884765625,1782.2489013671875,2827.65576171875,1782.1982421875,2828.017578125,1782.1982421875Z" style="enable-background:new 0 0 216 213;fill:#ff7400;fill-opacity:1">
        </path>
      </g>
    </g>
    <g id="shape-1eebacc3-190b-80f3-8007-6abf2968ae53">
      <g class="fills" id="fills-1eebacc3-190b-80f3-8007-6abf2968ae53">
        <path d="M2826.33349609375,1782.5777587890625L2821.65478515625,1775.897705078125C2818.3740234375,1778.023193359375,2816.190673828125,1781.75537109375,2816.190673828125,1786.00634765625C2816.190673828125,1786.196044921875,2816.190673828125,1786.3858642578125,2816.203125,1786.5628662109375L2824.0751953125,1786.183349609375C2824.0751953125,1784.58935546875,2824.998779296875,1783.222900390625,2826.33349609375,1782.5777587890625Z" style="enable-background:new 0 0 216 213;fill:#ff7400;fill-opacity:1">
        </path>
      </g>
    </g>
    <g id="shape-1eebacc3-190b-80f3-8007-6abf2968ae54">
      <g class="fills" id="fills-1eebacc3-190b-80f3-8007-6abf2968ae54">
        <path d="M2831.960205078125,1786.196044921875C2831.960205078125,1786.2467041015625,2831.960205078125,1786.2972412109375,2831.960205078125,1786.347900390625L2839.832275390625,1785.4622802734375C2839.719970703125,1782.9951171875,2838.884033203125,1780.7305908203125,2837.5244140625,1778.8707275390625L2830.7998046875,1783.3621826171875C2831.523193359375,1784.083251953125,2831.960205078125,1785.0826416015625,2831.960205078125,1786.196044921875Z" style="enable-background:new 0 0 216 213;fill:#ff7400;fill-opacity:1">
        </path>
      </g>
    </g>
  </g>
</svg>