<svg width="100.5" xmlns="http://www.w3.org/2000/svg" height="31" id="screenshot-1eebacc3-190b-80f3-8007-6acaf3d437b0" viewBox="2565 1772.5 100.5 31" style="-webkit-print-color-adjust::exact" xmlns:xlink="http://www.w3.org/1999/xlink" fill="none" version="1.1">
  <style>
  </style>
  <g id="shape-1eebacc3-190b-80f3-8007-6acaf3d437b0">
    <g class="frame-container-wrapper">
      <g class="frame-container-blur">
        <g class="frame-container-shadows">
          <g fill="none">
            <g class="fills" id="fills-1eebacc3-190b-80f3-8007-6acaf3d437b0">
              <rect rx="0" ry="0" x="2565" y="1772.5" width="100.5" height="31" transform="matrix(1.000000, 0.000000, 0.000000, 1.000000, 0.000000, 0.000000)" class="frame-background">
              </rect>
            </g>
            <g class="frame-children">
              <g id="shape-1eebacc3-190b-80f3-8007-6abf2968ae4a">
                <g transform="matrix(1.000000, 0.000000, 0.000000, 1.000000, 0.000000, 0.000000)" class="text-container" x="2600.5" y="1775.5" width="65" height="24" rx="0" ry="0">
                  <defs>
                    <pattern patternUnits="objectBoundingBox" width="64.4296875" height="22" id="fill-0-render-6932-0">
                      <g>
                        <rect width="64.4296875" height="22" style="fill:#ff7400;fill-opacity:1">
                        </rect>
                      </g>
                    </pattern>
                  </defs>
                  <g class="fills" id="fills-1eebacc3-190b-80f3-8007-6abf2968ae4a">
                    <text x="2600.5" y="1798.5" dominant-baseline="ideographic" textLength="64.4296875" lengthAdjust="spacingAndGlyphs" style="text-transform:none;font-family:Arial;letter-spacing:normal;font-style:normal;font-weight:700;white-space:pre;font-size:20px;text-decoration:none;direction:ltr;fill:#ff7400;fill-opacity:1">Gnudb</text>
                  </g>
                </g>
              </g>
              <g id="shape-1eebacc3-190b-80f3-8007-6abf2968ae4b" style="fill:#000000" xml:space="preserve" rx="0" ry="0">
                <g id="shape-1eebacc3-190b-80f3-8007-6abf2968ae4c" style="display:none">
                  <g class="fills" id="fills-1eebacc3-190b-80f3-8007-6abf2968ae4c">
                    <rect rx="0" ry="0" x="2565" y="1772.5" transform="matrix(1.000000, 0.000000, 0.000000, 1.000000, 0.000000, 0.000000)" width="31" height="31" style="enable-background:new 0 0 216 213;fill:#ff7400;fill-opacity:1" fill="none">
                    </rect>
                  </g>
                </g>
                <g id="shape-1eebacc3-190b-80f3-8007-6abf2968ae4d">
                  <g class="fills" id="fills-1eebacc3-190b-80f3-8007-6abf2968ae4d">
                    <ellipse cx="2580.5861111111108" cy="1788.1746478873238" rx="1.3634259259260944" ry="1.3826291079813018" transform="matrix(1.000000, 0.000000, 0.000000, 1.000000, 0.000000, 0.000000)" style="enable-background:new 0 0 216 213;fill:#ff7400;fill-opacity:1">
                    </ellipse>
                  </g>
                </g>
                <g id="shape-1eebacc3-190b-80f3-8007-6abf2968ae4e">
                  <g class="fills" id="fills-1eebacc3-190b-80f3-8007-6abf2968ae4e">
                    <path d="M2583.757568359375,1784.9290771484375L2590.9052734375,1779.005615234375C2590.0439453125,1777.98681640625,2589.039306640625,1777.09912109375,2587.919921875,1776.371337890625L2582.810546875,1784.2159423828125C2583.16943359375,1784.4051513671875,2583.485107421875,1784.652587890625,2583.757568359375,1784.9290771484375Z" style="enable-background:new 0 0 216 213;fill:#ff7400;fill-opacity:1">
                    </path>
                  </g>
                </g>
                <g id="shape-1eebacc3-190b-80f3-8007-6abf2968ae4f">
                  <g class="fills" id="fills-1eebacc3-190b-80f3-8007-6abf2968ae4f">
                    <path d="M2576.05078125,1788.23291015625L2567.06640625,1789.6009521484375C2567.497314453125,1793.4140625,2569.46337890625,1796.7469482421875,2572.333740234375,1798.9591064453125L2577.959716796875,1791.958740234375C2576.8115234375,1791.1436767578125,2576.065185546875,1789.775634765625,2576.05078125,1788.23291015625Z" style="enable-background:new 0 0 216 213;fill:#ff7400;fill-opacity:1">
                    </path>
                  </g>
                </g>
                <g id="shape-1eebacc3-190b-80f3-8007-6abf2968ae50">
                  <g class="fills" id="fills-1eebacc3-190b-80f3-8007-6abf2968ae50">
                    <path d="M2594.19140625,1788.37841796875L2585.121337890625,1788.451171875C2585.063720703125,1789.5135498046875,2584.661865234375,1790.47412109375,2584.016357421875,1791.2164306640625L2591.49365234375,1796.237548828125C2593.115234375,1794.0399169921875,2594.105712890625,1791.3328857421875,2594.19140625,1788.37841796875Z" style="enable-background:new 0 0 216 213;fill:#ff7400;fill-opacity:1">
                    </path>
                  </g>
                </g>
                <g id="shape-1eebacc3-190b-80f3-8007-6abf2968ae51">
                  <g class="fills" id="fills-1eebacc3-190b-80f3-8007-6abf2968ae51">
                    <path d="M2580.586181640625,1792.8173828125C2579.624267578125,1792.8173828125,2578.734619140625,1792.51171875,2578.002685546875,1792.0023193359375L2573.108642578125,1799.5267333984375C2575.247314453125,1800.9530029296875,2577.816162109375,1801.7972412109375,2580.586181640625,1801.7972412109375C2581.08837890625,1801.7972412109375,2581.5908203125,1801.76806640625,2582.093017578125,1801.7098388671875L2582.093017578125,1792.555419921875C2581.619384765625,1792.72998046875,2581.117431640625,1792.8173828125,2580.586181640625,1792.8173828125Z" style="enable-background:new 0 0 216 213;fill:#ff7400;fill-opacity:1">
                    </path>
                  </g>
                </g>
                <g id="shape-1eebacc3-190b-80f3-8007-6abf2968ae52">
                  <g class="fills" id="fills-1eebacc3-190b-80f3-8007-6abf2968ae52">
                    <path d="M2580.586181640625,1783.6192626953125C2581.375732421875,1783.6192626953125,2582.12158203125,1783.822998046875,2582.767578125,1784.1868896484375L2587.058837890625,1775.847412109375C2585.1357421875,1774.784912109375,2582.925537109375,1774.188232421875,2580.586181640625,1774.188232421875C2580.24169921875,1774.188232421875,2579.897216796875,1774.2027587890625,2579.567138671875,1774.23193359375L2579.39501953125,1783.779296875C2579.7822265625,1783.677490234375,2580.169921875,1783.6192626953125,2580.586181640625,1783.6192626953125Z" style="enable-background:new 0 0 216 213;fill:#ff7400;fill-opacity:1">
                    </path>
                  </g>
                </g>
                <g id="shape-1eebacc3-190b-80f3-8007-6abf2968ae53">
                  <g class="fills" id="fills-1eebacc3-190b-80f3-8007-6abf2968ae53">
                    <path d="M2578.648681640625,1784.055908203125L2573.2666015625,1776.371337890625C2569.492431640625,1778.81640625,2566.980712890625,1783.10986328125,2566.980712890625,1788C2566.980712890625,1788.21826171875,2566.980712890625,1788.4366455078125,2566.994873046875,1788.640380859375L2576.05078125,1788.2037353515625C2576.05078125,1786.3699951171875,2577.113037109375,1784.798095703125,2578.648681640625,1784.055908203125Z" style="enable-background:new 0 0 216 213;fill:#ff7400;fill-opacity:1">
                    </path>
                  </g>
                </g>
                <g id="shape-1eebacc3-190b-80f3-8007-6abf2968ae54">
                  <g class="fills" id="fills-1eebacc3-190b-80f3-8007-6abf2968ae54">
                    <path d="M2585.121337890625,1788.21826171875C2585.121337890625,1788.2764892578125,2585.121337890625,1788.334716796875,2585.121337890625,1788.3929443359375L2594.17724609375,1787.3741455078125C2594.048095703125,1784.5361328125,2593.08642578125,1781.9310302734375,2591.522216796875,1779.79150390625L2583.78662109375,1784.958251953125C2584.618896484375,1785.787841796875,2585.121337890625,1786.9375,2585.121337890625,1788.21826171875Z" style="enable-background:new 0 0 216 213;fill:#ff7400;fill-opacity:1">
                    </path>
                  </g>
                </g>
              </g>
            </g>
          </g>
        </g>
      </g>
    </g>
  </g>
</svg>