<svg width="116" xmlns="http://www.w3.org/2000/svg" height="18" id="screenshot-1eebacc3-190b-80f3-8007-6abf2968ae17" viewBox="2431 1779 116 18" style="-webkit-print-color-adjust::exact" xmlns:xlink="http://www.w3.org/1999/xlink" fill="none" version="1.1">
  <g id="shape-1eebacc3-190b-80f3-8007-6abf2968ae17" style="fill:#000000" width="191" height="30" xml:space="preserve" rx="0" ry="0">
    <g id="shape-1eebacc3-190b-80f3-8007-6abf2968ae18" style="display:none">
      <g class="fills" id="fills-1eebacc3-190b-80f3-8007-6abf2968ae18">
        <rect rx="0" ry="0" x="2431" y="1779" transform="matrix(1.000000, 0.000000, 0.000000, 1.000000, 0.000000, 0.000000)" width="116" height="18" fill="none" style="fill:none">
        </rect>
      </g>
    </g>
    <g id="shape-1eebacc3-190b-80f3-8007-6abf2968ae19">
      <defs style="fill:#000000">
      </defs>
    </g>
    <g id="shape-1eebacc3-190b-80f3-8007-6abf2968ae1a">
      <g class="fills" id="fills-1eebacc3-190b-80f3-8007-6abf2968ae1a">
        <path d="M2438.287841796875,1779L2431,1783.2000732421875L2431,1791.60009765625L2438.287841796875,1795.800048828125L2438.287841796875,1779Z" style="fill:#ff7400;fill-opacity:1">
        </path>
      </g>
    </g>
    <g id="shape-1eebacc3-190b-80f3-8007-6abf2968ae1b">
      <g class="fills" id="fills-1eebacc3-190b-80f3-8007-6abf2968ae1b">
        <path d="M2438.895263671875,1779L2446.18310546875,1783.2000732421875L2446.18310546875,1791.60009765625L2438.895263671875,1795.800048828125L2438.895263671875,1779Z" style="fill:#ff7400;fill-opacity:1">
        </path>
      </g>
    </g>
    <g id="shape-1eebacc3-190b-80f3-8007-6abf2968ae1c">
      <g class="fills" id="fills-1eebacc3-190b-80f3-8007-6abf2968ae1c">
        <path d="M2454.199951171875,1781.7120361328125L2456.896484375,1790.02197265625L2459.587158203125,1781.7120361328125L2463.42529296875,1781.7120361328125L2463.42529296875,1793.657958984375L2460.498046875,1793.657958984375L2460.498046875,1790.8680419921875L2460.75927734375,1785.1619873046875L2457.862060546875,1793.657958984375L2455.930908203125,1793.657958984375L2453.00341796875,1785.1500244140625L2453.282958984375,1790.8680419921875L2453.282958984375,1793.657958984375L2450.36767578125,1793.657958984375L2450.36767578125,1781.7120361328125L2454.19384765625,1781.7120361328125Z" style="fill:#ff7400;fill-opacity:1">
        </path>
      </g>
    </g>
    <g id="shape-1eebacc3-190b-80f3-8007-6abf2968ae1d">
      <g class="fills" id="fills-1eebacc3-190b-80f3-8007-6abf2968ae1d">
        <path d="M2470.476318359375,1792.697998046875C2470.203369140625,1793.0458984375,2469.854736328125,1793.328857421875,2469.4560546875,1793.5260009765625C2469.026123046875,1793.7294921875,2468.55419921875,1793.830322265625,2468.07763671875,1793.8199462890625C2467.6650390625,1793.823974609375,2467.254638671875,1793.7611083984375,2466.86279296875,1793.634033203125C2466.502685546875,1793.5123291015625,2466.177490234375,1793.3065185546875,2465.91552734375,1793.0340576171875C2465.638671875,1792.74072265625,2465.430908203125,1792.3902587890625,2465.30810546875,1792.008056640625C2465.1513671875,1791.521484375,2465.07763671875,1791.012451171875,2465.08935546875,1790.501953125L2465.08935546875,1784.7840576171875L2467.88916015625,1784.7840576171875L2467.88916015625,1790.5439453125C2467.864501953125,1790.85986328125,2467.967041015625,1791.172607421875,2468.1748046875,1791.4140625C2468.403564453125,1791.61181640625,2468.703125,1791.711181640625,2469.0068359375,1791.68994140625C2469.301025390625,1791.701904296875,2469.593505859375,1791.6400146484375,2469.85693359375,1791.510009765625C2470.079345703125,1791.392333984375,2470.2646484375,1791.2156982421875,2470.391357421875,1791L2470.391357421875,1784.7840576171875L2473.203369140625,1784.7840576171875L2473.203369140625,1793.657958984375L2470.57958984375,1793.657958984375Z" style="fill:#ff7400;fill-opacity:1">
        </path>
      </g>
    </g>
    <g id="shape-1eebacc3-190b-80f3-8007-6abf2968ae1e">
      <g class="fills" id="fills-1eebacc3-190b-80f3-8007-6abf2968ae1e">
        <path d="M2479.440673828125,1791.1619873046875C2479.4423828125,1791.054931640625,2479.4150390625,1790.94921875,2479.361572265625,1790.85595703125C2479.29052734375,1790.7508544921875,2479.194580078125,1790.664306640625,2479.082275390625,1790.60400390625C2478.910400390625,1790.5159912109375,2478.729248046875,1790.447509765625,2478.541748046875,1790.39990234375C2478.31494140625,1790.3280029296875,2478.027587890625,1790.25390625,2477.679443359375,1790.177978515625C2477.26513671875,1790.088623046875,2476.85888671875,1789.96630859375,2476.46484375,1789.81201171875C2476.105224609375,1789.6748046875,2475.767578125,1789.48681640625,2475.462646484375,1789.25390625C2475.184814453125,1789.0413818359375,2474.955322265625,1788.773681640625,2474.78857421875,1788.468017578125C2474.621826171875,1788.1494140625,2474.5380859375,1787.794677734375,2474.54541015625,1787.43603515625C2474.5439453125,1787.0645751953125,2474.626953125,1786.697509765625,2474.78857421875,1786.362060546875C2474.95751953125,1786.015380859375,2475.202392578125,1785.7099609375,2475.50537109375,1785.468017578125C2475.85107421875,1785.1990966796875,2476.244384765625,1784.99560546875,2476.6650390625,1784.867919921875C2477.171630859375,1784.7099609375,2477.700927734375,1784.6329345703125,2478.23193359375,1784.6400146484375C2478.784423828125,1784.63427734375,2479.33447265625,1784.70703125,2479.86572265625,1784.85595703125C2480.30322265625,1784.9833984375,2480.71484375,1785.1865234375,2481.080322265625,1785.4560546875C2481.40869140625,1785.6968994140625,2481.676513671875,1786.0089111328125,2481.864013671875,1786.3680419921875C2482.048828125,1786.7305908203125,2482.142822265625,1787.132080078125,2482.13720703125,1787.5379638671875L2479.349609375,1787.5379638671875C2479.3681640625,1787.253662109375,2479.277099609375,1786.97265625,2479.094482421875,1786.751953125C2478.85302734375,1786.542236328125,2478.533447265625,1786.442138671875,2478.213623046875,1786.47607421875C2478.077880859375,1786.4744873046875,2477.9423828125,1786.494873046875,2477.81298828125,1786.5360107421875C2477.694091796875,1786.574462890625,2477.583251953125,1786.6334228515625,2477.485107421875,1786.7099609375C2477.39208984375,1786.781494140625,2477.315673828125,1786.871337890625,2477.26025390625,1786.973876953125C2477.204345703125,1787.0794677734375,2477.175048828125,1787.19677734375,2477.17529296875,1787.31591796875C2477.173583984375,1787.564453125,2477.30859375,1787.7939453125,2477.527587890625,1787.916015625C2477.88134765625,1788.1103515625,2478.2685546875,1788.238525390625,2478.66943359375,1788.2939453125C2479.110595703125,1788.3741455078125,2479.546630859375,1788.480224609375,2479.974853515625,1788.612060546875C2480.36962890625,1788.728271484375,2480.744140625,1788.902099609375,2481.08642578125,1789.1279296875C2481.39990234375,1789.3377685546875,2481.66162109375,1789.6146240234375,2481.851806640625,1789.93798828125C2482.054443359375,1790.3052978515625,2482.1533203125,1790.719970703125,2482.13720703125,1791.1380615234375C2482.1357421875,1791.5087890625,2482.041748046875,1791.87353515625,2481.864013671875,1792.199951171875C2481.67236328125,1792.54296875,2481.404296875,1792.83837890625,2481.080322265625,1793.06396484375C2480.712890625,1793.3306884765625,2480.30224609375,1793.5335693359375,2479.86572265625,1793.6640625C2479.3359375,1793.81005859375,2478.7880859375,1793.880859375,2478.238037109375,1793.8740234375C2477.655517578125,1793.8843994140625,2477.07568359375,1793.79296875,2476.525390625,1793.60400390625C2476.07080078125,1793.4462890625,2475.649169921875,1793.20849609375,2475.2802734375,1792.9019775390625C2474.961669921875,1792.6358642578125,2474.703369140625,1792.3067626953125,2474.521240234375,1791.93603515625C2474.356689453125,1791.603271484375,2474.269775390625,1791.23828125,2474.26611328125,1790.8680419921875L2476.8837890625,1790.8680419921875C2476.8642578125,1791.216796875,2477.018310546875,1791.552734375,2477.296630859375,1791.76806640625C2477.59814453125,1791.966552734375,2477.955322265625,1792.0653076171875,2478.31689453125,1792.050048828125C2478.622314453125,1792.073486328125,2478.926513671875,1791.9930419921875,2479.1796875,1791.822021484375C2479.375732421875,1791.6611328125,2479.474365234375,1791.41162109375,2479.440673828125,1791.1619873046875Z" style="fill:#ff7400;fill-opacity:1">
        </path>
      </g>
    </g>
    <g id="shape-1eebacc3-190b-80f3-8007-6abf2968ae1f">
      <g class="fills" id="fills-1eebacc3-190b-80f3-8007-6abf2968ae1f">
        <path d="M2483.424560546875,1782.491943359375C2483.421875,1782.306396484375,2483.458984375,1782.1221923828125,2483.533935546875,1781.951904296875C2483.603515625,1781.7904052734375,2483.70703125,1781.645263671875,2483.837646484375,1781.5260009765625C2483.982177734375,1781.403564453125,2484.149169921875,1781.309814453125,2484.329833984375,1781.25C2484.740234375,1781.118408203125,2485.182373046875,1781.118408203125,2485.593017578125,1781.25C2485.7734375,1781.309814453125,2485.9404296875,1781.403564453125,2486.0849609375,1781.5260009765625C2486.221923828125,1781.6434326171875,2486.331787109375,1781.7886962890625,2486.40673828125,1781.951904296875C2486.555419921875,1782.297119140625,2486.555419921875,1782.68701171875,2486.40673828125,1783.031982421875C2486.331787109375,1783.1953125,2486.221923828125,1783.340576171875,2486.0849609375,1783.4580078125C2485.9404296875,1783.580322265625,2485.7734375,1783.674072265625,2485.593017578125,1783.7340087890625C2485.182373046875,1783.865478515625,2484.740234375,1783.865478515625,2484.329833984375,1783.7340087890625C2484.149658203125,1783.67578125,2483.982666015625,1783.584228515625,2483.837646484375,1783.464111328125C2483.70068359375,1783.3466796875,2483.590576171875,1783.2012939453125,2483.515625,1783.0379638671875C2483.4462890625,1782.864501953125,2483.4150390625,1782.6783447265625,2483.424560546875,1782.491943359375ZM2486.39453125,1793.657958984375L2483.5947265625,1793.657958984375L2483.5947265625,1784.7840576171875L2486.400634765625,1784.7840576171875L2486.400634765625,1793.657958984375Z" style="fill:#ff7400;fill-opacity:1">
        </path>
      </g>
    </g>
    <g id="shape-1eebacc3-190b-80f3-8007-6abf2968ae20">
      <g class="fills" id="fills-1eebacc3-190b-80f3-8007-6abf2968ae20">
        <path d="M2491.921142578125,1791.68994140625C2492.255859375,1791.70947265625,2492.584228515625,1791.5948486328125,2492.832275390625,1791.3720703125C2493.058349609375,1791.135009765625,2493.1728515625,1790.8148193359375,2493.148193359375,1790.489990234375L2495.771484375,1790.489990234375C2495.779296875,1790.961181640625,2495.681884765625,1791.42822265625,2495.486328125,1791.85791015625C2495.299072265625,1792.259521484375,2495.028076171875,1792.617431640625,2494.690673828125,1792.907958984375C2494.3349609375,1793.210693359375,2493.922119140625,1793.441162109375,2493.47607421875,1793.5859375C2492.3818359375,1793.9361572265625,2491.1982421875,1793.89794921875,2490.1298828125,1793.47802734375C2489.62353515625,1793.264404296875,2489.1728515625,1792.940185546875,2488.8115234375,1792.530029296875C2488.45068359375,1792.1126708984375,2488.179931640625,1791.626708984375,2488.01611328125,1791.10205078125C2487.83251953125,1790.51953125,2487.742431640625,1789.912109375,2487.748779296875,1789.302001953125L2487.748779296875,1789.1279296875C2487.7431640625,1788.5179443359375,2487.833251953125,1787.91064453125,2488.01611328125,1787.3280029296875C2488.177978515625,1786.802001953125,2488.44677734375,1786.3140869140625,2488.805419921875,1785.89404296875C2489.163330078125,1785.485107421875,2489.609619140625,1785.1611328125,2490.111572265625,1784.946044921875C2490.68798828125,1784.70751953125,2491.30859375,1784.591064453125,2491.933349609375,1784.60400390625C2492.45947265625,1784.5986328125,2492.98291015625,1784.6796875,2493.482177734375,1784.843994140625C2493.931640625,1784.989501953125,2494.345458984375,1785.2265625,2494.696533203125,1785.5400390625C2495.038818359375,1785.85205078125,2495.306396484375,1786.2353515625,2495.480224609375,1786.661865234375C2495.673583984375,1787.142822265625,2495.768310546875,1787.65673828125,2495.759521484375,1788.174072265625L2493.135986328125,1788.174072265625C2493.13623046875,1787.9857177734375,2493.11181640625,1787.798095703125,2493.06298828125,1787.615966796875C2493.02001953125,1787.449462890625,2492.94140625,1787.2939453125,2492.832275390625,1787.1600341796875C2492.725830078125,1787.0296630859375,2492.5908203125,1786.925048828125,2492.4375,1786.85400390625C2492.261474609375,1786.777587890625,2492.07080078125,1786.74072265625,2491.87890625,1786.7459716796875C2491.633056640625,1786.7342529296875,2491.39013671875,1786.801513671875,2491.1865234375,1786.93798828125C2491.0087890625,1787.07177734375,2490.870361328125,1787.249755859375,2490.78564453125,1787.4541015625C2490.6845703125,1787.695068359375,2490.62109375,1787.9500732421875,2490.59716796875,1788.2099609375C2490.5654296875,1788.512939453125,2490.549072265625,1788.8173828125,2490.548828125,1789.1219482421875L2490.548828125,1789.320068359375C2490.548828125,1789.628662109375,2490.56494140625,1789.93701171875,2490.59716796875,1790.2440185546875C2490.62109375,1790.50390625,2490.6845703125,1790.7587890625,2490.78564453125,1791C2490.870849609375,1791.20556640625,2491.01416015625,1791.382568359375,2491.19873046875,1791.510009765625C2491.414306640625,1791.643310546875,2491.667236328125,1791.706298828125,2491.921142578125,1791.68994140625Z" style="fill:#ff7400;fill-opacity:1">
        </path>
      </g>
    </g>
    <g id="shape-1eebacc3-190b-80f3-8007-6abf2968ae21">
      <g class="fills" id="fills-1eebacc3-190b-80f3-8007-6abf2968ae21">
        <path d="M2497.083740234375,1793.657958984375L2497.083740234375,1781.7120361328125L2501.4501953125,1781.7120361328125C2502.123779296875,1781.703369140625,2502.7958984375,1781.7698974609375,2503.45458984375,1781.909912109375C2503.987548828125,1782.017333984375,2504.49609375,1782.2205810546875,2504.95458984375,1782.510009765625C2505.349853515625,1782.7698974609375,2505.672119140625,1783.125,2505.889892578125,1783.5419921875C2506.114501953125,1783.995361328125,2506.22509765625,1784.4954833984375,2506.211669921875,1785C2506.212890625,1785.2666015625,2506.18212890625,1785.532470703125,2506.12060546875,1785.7919921875C2506.0595703125,1786.045654296875,2505.959228515625,1786.28857421875,2505.822998046875,1786.511962890625C2505.6826171875,1786.740234375,2505.50390625,1786.943115234375,2505.294677734375,1787.1119384765625C2505.058349609375,1787.30078125,2504.791259765625,1787.448974609375,2504.50537109375,1787.550048828125C2504.830810546875,1787.62841796875,2505.1396484375,1787.7646484375,2505.416259765625,1787.9520263671875C2505.654052734375,1788.11376953125,2505.859619140625,1788.317138671875,2506.0234375,1788.552001953125C2506.1767578125,1788.779296875,2506.28955078125,1789.031005859375,2506.357421875,1789.2960205078125C2506.426513671875,1789.560546875,2506.461181640625,1789.832763671875,2506.460693359375,1790.10595703125C2506.5458984375,1791.136474609375,2506.114990234375,1792.14306640625,2505.306884765625,1792.800048828125C2504.30419921875,1793.454833984375,2503.111083984375,1793.7647705078125,2501.91162109375,1793.6820068359375L2497.08984375,1793.6820068359375ZM2499.998779296875,1786.6920166015625L2501.51708984375,1786.6920166015625C2501.996337890625,1786.730712890625,2502.47509765625,1786.6103515625,2502.877685546875,1786.349853515625C2503.16259765625,1786.10107421875,2503.313232421875,1785.7347412109375,2503.284423828125,1785.360107421875C2503.323486328125,1784.9495849609375,2503.160888671875,1784.545654296875,2502.84716796875,1784.27392578125C2502.427978515625,1784.0213623046875,2501.939697265625,1783.9039306640625,2501.4501953125,1783.93798828125L2500.02294921875,1783.93798828125L2500.02294921875,1786.6920166015625ZM2499.998779296875,1788.5760498046875L2499.998779296875,1791.43798828125L2501.90576171875,1791.43798828125C2502.160888671875,1791.443359375,2502.41552734375,1791.406982421875,2502.658935546875,1791.330078125C2502.84619140625,1791.26904296875,2503.018310546875,1791.1688232421875,2503.1630859375,1791.0360107421875C2503.29052734375,1790.915771484375,2503.388427734375,1790.767822265625,2503.448486328125,1790.60400390625C2503.5107421875,1790.432861328125,2503.54150390625,1790.251953125,2503.53955078125,1790.070068359375C2503.5390625,1789.8671875,2503.510498046875,1789.6651611328125,2503.45458984375,1789.469970703125C2503.40478515625,1789.293212890625,2503.313232421875,1789.1307373046875,2503.187255859375,1788.9959716796875C2503.055419921875,1788.8607177734375,2502.892822265625,1788.7579345703125,2502.713623046875,1788.696044921875C2502.48681640625,1788.6195068359375,2502.24853515625,1788.5828857421875,2502.0087890625,1788.5880126953125L2499.99267578125,1788.5880126953125Z" style="fill:#ff7400;fill-opacity:1">
        </path>
      </g>
    </g>
    <g id="shape-1eebacc3-190b-80f3-8007-6abf2968ae22">
      <g class="fills" id="fills-1eebacc3-190b-80f3-8007-6abf2968ae22">
        <path d="M2513.360107421875,1787.2860107421875L2513.15966796875,1787.2860107421875L2512.91064453125,1787.2860107421875L2512.655517578125,1787.2860107421875L2512.436767578125,1787.2860107421875C2512.06396484375,1787.2705078125,2511.692626953125,1787.338134765625,2511.349853515625,1787.4840087890625C2511.081787109375,1787.60693359375,2510.86669921875,1787.8194580078125,2510.742431640625,1788.083984375L2510.742431640625,1793.7060546875L2507.94873046875,1793.7060546875L2507.94873046875,1784.7840576171875L2510.560302734375,1784.7840576171875L2510.651123046875,1785.924072265625C2510.846435546875,1785.544189453125,2511.12939453125,1785.21533203125,2511.477294921875,1784.964111328125C2511.81201171875,1784.73388671875,2512.21142578125,1784.6141357421875,2512.618896484375,1784.6219482421875C2512.756591796875,1784.6136474609375,2512.894287109375,1784.6136474609375,2513.031982421875,1784.6219482421875C2513.157470703125,1784.6357421875,2513.28125,1784.65966796875,2513.402587890625,1784.6939697265625Z" style="fill:#ff7400;fill-opacity:1">
        </path>
      </g>
    </g>
    <g id="shape-1eebacc3-190b-80f3-8007-6abf2968ae23">
      <g class="fills" id="fills-1eebacc3-190b-80f3-8007-6abf2968ae23">
        <path d="M2519.17822265625,1793.657958984375C2519.114990234375,1793.54150390625,2519.06396484375,1793.4189453125,2519.0263671875,1793.2919921875C2518.98583984375,1793.156005859375,2518.94921875,1793.011962890625,2518.9169921875,1792.8599853515625C2518.3984375,1793.50634765625,2517.594970703125,1793.8642578125,2516.760986328125,1793.8199462890625C2516.361572265625,1793.82177734375,2515.96484375,1793.7547607421875,2515.589111328125,1793.6220703125C2515.236328125,1793.4990234375,2514.909423828125,1793.31396484375,2514.623046875,1793.0760498046875C2514.345947265625,1792.8443603515625,2514.12060546875,1792.558349609375,2513.96142578125,1792.2359619140625C2513.796142578125,1791.8995361328125,2513.713134765625,1791.52978515625,2513.71826171875,1791.156005859375C2513.711181640625,1790.732421875,2513.79833984375,1790.312744140625,2513.973388671875,1789.926025390625C2514.146484375,1789.561279296875,2514.412109375,1789.2470703125,2514.74462890625,1789.013916015625C2515.139404296875,1788.7333984375,2515.58447265625,1788.52978515625,2516.056640625,1788.4140625C2516.67333984375,1788.27099609375,2517.305908203125,1788.2044677734375,2517.939208984375,1788.216064453125L2518.801513671875,1788.216064453125L2518.801513671875,1787.7659912109375C2518.8193359375,1787.44921875,2518.73193359375,1787.13525390625,2518.552490234375,1786.8719482421875C2518.35009765625,1786.636474609375,2518.044189453125,1786.513427734375,2517.732666015625,1786.5419921875C2517.463623046875,1786.52392578125,2517.197998046875,1786.6099853515625,2516.991943359375,1786.781982421875C2516.805908203125,1786.9794921875,2516.713134765625,1787.245361328125,2516.73681640625,1787.5140380859375L2513.93701171875,1787.5140380859375C2513.93505859375,1787.115234375,2514.031005859375,1786.72216796875,2514.21630859375,1786.3680419921875C2514.40771484375,1786.00634765625,2514.6796875,1785.6925048828125,2515.01220703125,1785.449951171875C2515.37890625,1785.1826171875,2515.789794921875,1784.9796142578125,2516.2265625,1784.8499755859375C2516.752685546875,1784.696044921875,2517.299560546875,1784.6212158203125,2517.84814453125,1784.6279296875C2518.35107421875,1784.624267578125,2518.852294921875,1784.6907958984375,2519.336181640625,1784.8260498046875C2519.767578125,1784.9454345703125,2520.17041015625,1785.1495361328125,2520.520263671875,1785.426025390625C2520.85498046875,1785.692138671875,2521.123291015625,1786.031005859375,2521.303955078125,1786.416015625C2521.49853515625,1786.85009765625,2521.593994140625,1787.3212890625,2521.5830078125,1787.7960205078125L2521.5830078125,1791.419921875C2521.5830078125,1791.7120361328125,2521.5830078125,1791.9638671875,2521.5830078125,1792.176025390625C2521.595703125,1792.365234375,2521.6201171875,1792.5537109375,2521.65625,1792.739990234375C2521.685546875,1792.8868408203125,2521.726318359375,1793.03125,2521.777587890625,1793.1719970703125C2521.822998046875,1793.2939453125,2521.8779296875,1793.412353515625,2521.941650390625,1793.5260009765625L2521.941650390625,1793.6640625L2519.1416015625,1793.6640625ZM2517.42919921875,1791.85791015625C2517.734375,1791.86962890625,2518.036376953125,1791.7923583984375,2518.29736328125,1791.635986328125C2518.50146484375,1791.513671875,2518.6708984375,1791.342529296875,2518.78955078125,1791.1380615234375L2518.78955078125,1789.7099609375L2517.908935546875,1789.7099609375C2517.682373046875,1789.69775390625,2517.45556640625,1789.728271484375,2517.24072265625,1789.800048828125C2517.076171875,1789.861328125,2516.928466796875,1789.9599609375,2516.8095703125,1790.087890625C2516.70263671875,1790.20751953125,2516.623779296875,1790.348876953125,2516.578857421875,1790.501953125C2516.53076171875,1790.65966796875,2516.506591796875,1790.823486328125,2516.506103515625,1790.988037109375C2516.5,1791.21484375,2516.5927734375,1791.433349609375,2516.760986328125,1791.5880126953125C2516.938720703125,1791.760986328125,2517.1796875,1791.856201171875,2517.42919921875,1791.85205078125Z" style="fill:#ff7400;fill-opacity:1">
        </path>
      </g>
    </g>
    <g id="shape-1eebacc3-190b-80f3-8007-6abf2968ae24">
      <g class="fills" id="fills-1eebacc3-190b-80f3-8007-6abf2968ae24">
        <path d="M2523.125732421875,1782.491943359375C2523.123046875,1782.306396484375,2523.16015625,1782.1221923828125,2523.2353515625,1781.951904296875C2523.31005859375,1781.7886962890625,2523.419921875,1781.6434326171875,2523.55712890625,1781.5260009765625C2523.701416015625,1781.403564453125,2523.86865234375,1781.309814453125,2524.049072265625,1781.25C2524.459716796875,1781.118408203125,2524.901611328125,1781.118408203125,2525.312255859375,1781.25C2525.492431640625,1781.309814453125,2525.65966796875,1781.403564453125,2525.80419921875,1781.5260009765625C2525.94140625,1781.6434326171875,2526.05126953125,1781.7886962890625,2526.1259765625,1781.951904296875C2526.274658203125,1782.297119140625,2526.274658203125,1782.68701171875,2526.1259765625,1783.031982421875C2526.05126953125,1783.1953125,2525.94140625,1783.340576171875,2525.80419921875,1783.4580078125C2525.65966796875,1783.580322265625,2525.492431640625,1783.674072265625,2525.312255859375,1783.7340087890625C2524.901611328125,1783.865478515625,2524.459716796875,1783.865478515625,2524.049072265625,1783.7340087890625C2523.86865234375,1783.674072265625,2523.701416015625,1783.580322265625,2523.55712890625,1783.4580078125C2523.419921875,1783.340576171875,2523.31005859375,1783.1953125,2523.2353515625,1783.031982421875C2523.16015625,1782.86181640625,2523.123046875,1782.677734375,2523.125732421875,1782.491943359375ZM2526.095947265625,1793.657958984375L2523.314208984375,1793.657958984375L2523.314208984375,1784.7840576171875L2526.119873046875,1784.7840576171875L2526.119873046875,1793.657958984375Z" style="fill:#ff7400;fill-opacity:1">
        </path>
      </g>
    </g>
    <g id="shape-1eebacc3-190b-80f3-8007-6abf2968ae25">
      <g class="fills" id="fills-1eebacc3-190b-80f3-8007-6abf2968ae25">
        <path d="M2530.3896484375,1784.7840576171875L2530.480712890625,1785.8280029296875C2530.77294921875,1785.444580078125,2531.154052734375,1785.1357421875,2531.591796875,1784.927978515625C2532.04833984375,1784.7188720703125,2532.546875,1784.6142578125,2533.049560546875,1784.6219482421875C2533.4375,1784.6168212890625,2533.822998046875,1784.6756591796875,2534.191162109375,1784.7960205078125C2534.536376953125,1784.916748046875,2534.84375,1785.1234130859375,2535.084228515625,1785.39599609375C2535.365234375,1785.702392578125,2535.57275390625,1786.0673828125,2535.691650390625,1786.4639892578125C2535.837890625,1786.99365234375,2535.9052734375,1787.541259765625,2535.891845703125,1788.0899658203125L2535.891845703125,1793.676025390625L2533.03125,1793.676025390625L2533.03125,1788.0660400390625C2533.047607421875,1787.84228515625,2533.02685546875,1787.617431640625,2532.970703125,1787.4000244140625C2532.92333984375,1787.2474365234375,2532.83740234375,1787.109130859375,2532.7216796875,1786.998046875C2532.608154296875,1786.89794921875,2532.4697265625,1786.8297119140625,2532.321044921875,1786.800048828125C2532.1455078125,1786.7625732421875,2531.966064453125,1786.744384765625,2531.786376953125,1786.7459716796875C2531.528076171875,1786.7373046875,2531.272216796875,1786.79736328125,2531.04541015625,1786.919921875C2530.848876953125,1787.0341796875,2530.683837890625,1787.195068359375,2530.565673828125,1787.387939453125L2530.565673828125,1793.657958984375L2527.765869140625,1793.657958984375L2527.765869140625,1784.7840576171875L2530.3896484375,1784.7840576171875Z" style="fill:#ff7400;fill-opacity:1">
        </path>
      </g>
    </g>
    <g id="shape-1eebacc3-190b-80f3-8007-6abf2968ae26">
      <g class="fills" id="fills-1eebacc3-190b-80f3-8007-6abf2968ae26">
        <path d="M2540.7080078125,1791.528076171875L2544.80126953125,1791.528076171875L2544.80126953125,1793.657958984375L2537.173583984375,1793.657958984375L2537.173583984375,1792.115966796875L2541.157470703125,1786.9139404296875L2537.343505859375,1786.9139404296875L2537.343505859375,1784.7840576171875L2544.710205078125,1784.7840576171875L2544.710205078125,1786.278076171875Z" style="fill:#ff7400;fill-opacity:1">
        </path>
      </g>
    </g>
  </g>
</svg>