<svg width="116" xmlns="http://www.w3.org/2000/svg" height="13" id="screenshot-1eebacc3-190b-80f3-8007-6abf2968ae28" viewBox="2817 1781.5 116 13" style="-webkit-print-color-adjust::exact" xmlns:xlink="http://www.w3.org/1999/xlink" fill="none" version="1.1">
  <g id="shape-1eebacc3-190b-80f3-8007-6abf2968ae28" style="fill:#000000" width="1586" height="192" rx="0" ry="0">
    <g id="shape-1eebacc3-190b-80f3-8007-6abf2968ae29" style="display:none">
      <g class="fills" id="fills-1eebacc3-190b-80f3-8007-6abf2968ae29">
        <rect rx="0" ry="0" x="2817" y="1781.5" transform="matrix(1.000000, 0.000000, 0.000000, 1.000000, 0.000000, 0.000000)" width="116" height="13" fill-rule="evenodd" fill="none" style="fill:none">
        </rect>
      </g>
    </g>
    <g id="shape-1eebacc3-190b-80f3-8007-6abf2968ae2a" style="fill:#000000" rx="0" ry="0">
      <g id="shape-1eebacc3-190b-80f3-8007-6abf2968ae2d">
        <g class="fills" id="fills-1eebacc3-190b-80f3-8007-6abf2968ae2d">
          <path d="M2836.089599609375,1791.6900634765625L2836.089599609375,1790.84375L2837.07666015625,1790.84375L2838.064208984375,1790.84375L2838.064208984375,1788.4400634765625L2838.064208984375,1786.036376953125L2837.07666015625,1786.036376953125L2836.089599609375,1786.036376953125L2836.089599609375,1785.190185546875L2836.089599609375,1784.34375L2837.07666015625,1784.34375L2838.064208984375,1784.34375L2838.064208984375,1783.903564453125L2838.064208984375,1783.4635009765625L2838.978759765625,1783.4635009765625L2839.892822265625,1783.4635009765625L2839.892822265625,1787.1536865234375L2839.892822265625,1790.84375L2840.880126953125,1790.84375L2841.86767578125,1790.84375L2841.86767578125,1791.6900634765625L2841.86767578125,1792.5364990234375L2838.978759765625,1792.5364990234375L2836.089599609375,1792.5364990234375Z" fill-rule="evenodd" style="fill:#ff7400;fill-opacity:1">
          </path>
        </g>
      </g>
      <g id="shape-1eebacc3-190b-80f3-8007-6abf2968ae2e">
        <g class="fills" id="fills-1eebacc3-190b-80f3-8007-6abf2968ae2e">
          <path d="M2843.5498046875,1792.0625L2843.5498046875,1791.5885009765625L2843.037841796875,1791.5885009765625L2842.52587890625,1791.5885009765625L2842.52587890625,1787.966064453125L2842.52587890625,1784.34375L2843.037841796875,1784.34375L2843.5498046875,1784.34375L2843.5498046875,1783.903564453125L2843.5498046875,1783.4635009765625L2845.927001953125,1783.4635009765625L2848.303955078125,1783.4635009765625L2848.303955078125,1783.903564453125L2848.303955078125,1784.34375L2848.81591796875,1784.34375L2849.327880859375,1784.34375L2849.327880859375,1787.966064453125L2849.327880859375,1791.5885009765625L2848.81591796875,1791.5885009765625L2848.303955078125,1791.5885009765625L2848.303955078125,1792.0625L2848.303955078125,1792.5364990234375L2845.927001953125,1792.5364990234375L2843.5498046875,1792.5364990234375L2843.5498046875,1792.0625ZM2847.4990234375,1787.966064453125L2847.4990234375,1785.0885009765625L2845.94873046875,1785.0885009765625L2844.39111328125,1785.0885009765625L2844.39111328125,1787.966064453125L2844.39111328125,1790.84375L2845.94873046875,1790.84375L2847.4990234375,1790.84375L2847.4990234375,1787.966064453125ZM2851.010009765625,1792.0625L2851.010009765625,1791.5885009765625L2850.534423828125,1791.5885009765625L2850.059326171875,1791.5885009765625L2850.059326171875,1787.966064453125L2850.059326171875,1784.34375L2850.534423828125,1784.34375L2851.010009765625,1784.34375L2851.010009765625,1783.903564453125L2851.010009765625,1783.4635009765625L2853.423583984375,1783.4635009765625L2855.83740234375,1783.4635009765625L2855.83740234375,1783.903564453125L2855.83740234375,1784.34375L2856.312744140625,1784.34375L2856.787841796875,1784.34375L2856.787841796875,1787.966064453125L2856.787841796875,1791.5885009765625L2856.312744140625,1791.5885009765625L2855.83740234375,1791.5885009765625L2855.83740234375,1792.0625L2855.83740234375,1792.5364990234375L2853.423583984375,1792.5364990234375L2851.010009765625,1792.5364990234375L2851.010009765625,1792.0625ZM2854.959716796875,1787.966064453125L2854.959716796875,1785.0885009765625L2853.423583984375,1785.0885009765625L2851.8876953125,1785.0885009765625L2851.8876953125,1787.966064453125L2851.8876953125,1790.84375L2853.423583984375,1790.84375L2854.959716796875,1790.84375L2854.959716796875,1787.966064453125Z" fill-rule="nonzero" style="fill:#ff7400;fill-opacity:1">
          </path>
        </g>
      </g>
      <g id="shape-1eebacc3-190b-80f3-8007-6abf2968ae2f">
        <g class="fills" id="fills-1eebacc3-190b-80f3-8007-6abf2968ae2f">
          <path d="M2857.519287109375,1791.6900634765625L2857.519287109375,1790.84375L2858.5068359375,1790.84375L2859.494384765625,1790.84375L2859.494384765625,1788.4400634765625L2859.494384765625,1786.036376953125L2858.5068359375,1786.036376953125L2857.519287109375,1786.036376953125L2857.519287109375,1785.190185546875L2857.519287109375,1784.34375L2858.5068359375,1784.34375L2859.494384765625,1784.34375L2859.494384765625,1783.903564453125L2859.494384765625,1783.4635009765625L2860.408203125,1783.4635009765625L2861.322998046875,1783.4635009765625L2861.322998046875,1787.1536865234375L2861.322998046875,1790.84375L2862.31005859375,1790.84375L2863.297607421875,1790.84375L2863.297607421875,1791.6900634765625L2863.297607421875,1792.5364990234375L2860.408203125,1792.5364990234375L2857.519287109375,1792.5364990234375ZM2865.2724609375,1788.8125L2865.2724609375,1785.0885009765625L2863.77294921875,1785.0885009765625L2862.273681640625,1785.0885009765625L2862.273681640625,1784.2760009765625L2862.273681640625,1783.4635009765625L2866.150146484375,1783.4635009765625L2870.0263671875,1783.4635009765625L2870.0263671875,1784.2760009765625L2870.0263671875,1785.0885009765625L2868.527099609375,1785.0885009765625L2867.02783203125,1785.0885009765625L2867.02783203125,1788.8125L2867.02783203125,1792.5364990234375L2866.150146484375,1792.5364990234375L2865.2724609375,1792.5364990234375Z" fill-rule="evenodd" style="fill:#ff7400;fill-opacity:1">
          </path>
        </g>
      </g>
      <g id="shape-1eebacc3-190b-80f3-8007-6abf2968ae30">
        <g class="fills" id="fills-1eebacc3-190b-80f3-8007-6abf2968ae30">
          <path d="M2870.684814453125,1788L2870.684814453125,1783.4635009765625L2873.610107421875,1783.4635009765625L2876.5361328125,1783.4635009765625L2876.5361328125,1783.903564453125L2876.5361328125,1784.34375L2877.01123046875,1784.34375L2877.48681640625,1784.34375L2877.48681640625,1786.1380615234375L2877.48681640625,1787.9322509765625L2877.01123046875,1787.9322509765625L2876.5361328125,1787.9322509765625L2876.5361328125,1788.4739990234375L2876.5361328125,1789.015625L2877.01123046875,1789.015625L2877.48681640625,1789.015625L2877.48681640625,1790.7760009765625L2877.48681640625,1792.5364990234375L2876.60888671875,1792.5364990234375L2875.7314453125,1792.5364990234375L2875.7314453125,1790.6744384765625L2875.7314453125,1788.8125L2874.122314453125,1788.8125L2872.51318359375,1788.8125L2872.51318359375,1790.6744384765625L2872.51318359375,1792.5364990234375L2871.598876953125,1792.5364990234375L2870.684814453125,1792.5364990234375L2870.684814453125,1788ZM2875.7314453125,1786.1041259765625L2875.7314453125,1785.0885009765625L2874.122314453125,1785.0885009765625L2872.51318359375,1785.0885009765625L2872.51318359375,1786.1041259765625L2872.51318359375,1787.1197509765625L2874.122314453125,1787.1197509765625L2875.7314453125,1787.1197509765625L2875.7314453125,1786.1041259765625ZM2878.4375,1788.4400634765625L2878.4375,1784.34375L2878.9130859375,1784.34375L2879.388427734375,1784.34375L2879.388427734375,1783.903564453125L2879.388427734375,1783.4635009765625L2881.802001953125,1783.4635009765625L2884.215576171875,1783.4635009765625L2884.215576171875,1783.903564453125L2884.215576171875,1784.3369140625L2884.712890625,1784.3572998046875L2885.203125,1784.3775634765625L2885.203125,1788.4400634765625L2885.203125,1792.5025634765625L2884.310546875,1792.52294921875L2883.4111328125,1792.543212890625L2883.4111328125,1790.6744384765625L2883.4111328125,1788.8125L2881.802001953125,1788.8125L2880.19287109375,1788.8125L2880.19287109375,1790.6744384765625L2880.19287109375,1792.5364990234375L2879.315185546875,1792.5364990234375L2878.4375,1792.5364990234375L2878.4375,1788.4400634765625ZM2883.4111328125,1786.1041259765625L2883.4111328125,1785.0885009765625L2881.802001953125,1785.0885009765625L2880.19287109375,1785.0885009765625L2880.19287109375,1786.1041259765625L2880.19287109375,1787.1197509765625L2881.802001953125,1787.1197509765625L2883.4111328125,1787.1197509765625L2883.4111328125,1786.1041259765625Z" fill-rule="nonzero" style="fill:#ff7400;fill-opacity:1">
          </path>
        </g>
      </g>
      <g id="shape-1eebacc3-190b-80f3-8007-6abf2968ae31">
        <g class="fills" id="fills-1eebacc3-190b-80f3-8007-6abf2968ae31">
          <path d="M2887.141357421875,1792.0625L2887.141357421875,1791.5885009765625L2886.629150390625,1791.5885009765625L2886.1171875,1791.5885009765625L2886.132080078125,1787.9864501953125L2886.15380859375,1784.3775634765625L2886.651123046875,1784.3572998046875L2887.141357421875,1784.3369140625L2887.141357421875,1783.903564453125L2887.141357421875,1783.4635009765625L2889.5546875,1783.4635009765625L2891.968505859375,1783.4635009765625L2891.968505859375,1783.903564453125L2891.968505859375,1784.34375L2892.443603515625,1784.34375L2892.919189453125,1784.34375L2892.919189453125,1785.190185546875L2892.919189453125,1786.036376953125L2892.04150390625,1786.036376953125L2891.16357421875,1786.036376953125L2891.16357421875,1785.5625L2891.16357421875,1785.0885009765625L2889.5546875,1785.0885009765625L2887.945556640625,1785.0885009765625L2887.945556640625,1787.966064453125L2887.945556640625,1790.84375L2889.5546875,1790.84375L2891.16357421875,1790.84375L2891.16357421875,1790.3697509765625L2891.16357421875,1789.8958740234375L2892.078125,1789.8958740234375L2892.992431640625,1789.8958740234375L2892.992431640625,1790.7421875L2892.992431640625,1791.5885009765625L2892.480712890625,1791.5885009765625L2891.968505859375,1791.5885009765625L2891.968505859375,1792.0625L2891.968505859375,1792.5364990234375L2889.5546875,1792.5364990234375L2887.141357421875,1792.5364990234375ZM2893.869873046875,1788L2893.869873046875,1783.4635009765625L2894.784423828125,1783.4635009765625L2895.698974609375,1783.4635009765625L2895.698974609375,1785.2916259765625L2895.698974609375,1787.1197509765625L2896.795654296875,1787.1197509765625L2897.892822265625,1787.1197509765625L2897.892822265625,1786.2056884765625L2897.892822265625,1785.2916259765625L2898.3681640625,1785.2916259765625L2898.843505859375,1785.2916259765625L2898.843505859375,1784.3775634765625L2898.843505859375,1783.4635009765625L2899.7578125,1783.4635009765625L2900.672119140625,1783.4635009765625L2900.672119140625,1784.2760009765625L2900.672119140625,1785.0885009765625L2900.160400390625,1785.0885009765625L2899.648193359375,1785.0885009765625L2899.648193359375,1786.036376953125L2899.648193359375,1786.984375L2899.1728515625,1786.984375L2898.697021484375,1786.984375L2898.697021484375,1788L2898.697021484375,1789.015625L2899.1728515625,1789.015625L2899.648193359375,1789.015625L2899.648193359375,1789.9296875L2899.648193359375,1790.84375L2900.160400390625,1790.84375L2900.672119140625,1790.84375L2900.672119140625,1791.6900634765625L2900.672119140625,1792.5364990234375L2899.7578125,1792.5364990234375L2898.843505859375,1792.5364990234375L2898.843505859375,1791.5885009765625L2898.843505859375,1790.640625L2898.3681640625,1790.640625L2897.892822265625,1790.640625L2897.892822265625,1789.7265625L2897.892822265625,1788.8125L2896.795654296875,1788.8125L2895.698974609375,1788.8125L2895.698974609375,1790.6744384765625L2895.698974609375,1792.5364990234375L2894.784423828125,1792.5364990234375L2893.869873046875,1792.5364990234375ZM2901.330322265625,1788L2901.330322265625,1783.4635009765625L2902.24462890625,1783.4635009765625L2903.158935546875,1783.4635009765625L2903.158935546875,1787.1536865234375L2903.158935546875,1790.84375L2905.1337890625,1790.84375L2907.108154296875,1790.84375L2907.108154296875,1791.6900634765625L2907.108154296875,1792.5364990234375L2904.21923828125,1792.5364990234375L2901.330322265625,1792.5364990234375ZM2907.839599609375,1788L2907.839599609375,1783.4635009765625L2908.754150390625,1783.4635009765625L2909.668212890625,1783.4635009765625L2909.668212890625,1788L2909.668212890625,1792.5364990234375L2908.754150390625,1792.5364990234375L2907.839599609375,1792.5364990234375ZM2911.56982421875,1792.0625L2911.56982421875,1791.5885009765625L2911.05810546875,1791.5885009765625L2910.546142578125,1791.5885009765625L2910.546142578125,1790.7421875L2910.546142578125,1789.8958740234375L2911.460205078125,1789.8958740234375L2912.37451171875,1789.8958740234375L2912.37451171875,1790.3697509765625L2912.37451171875,1790.84375L2913.947265625,1790.84375L2915.519287109375,1790.84375L2915.519287109375,1789.828125L2915.519287109375,1788.8125L2913.544677734375,1788.8125L2911.56982421875,1788.8125L2911.56982421875,1788.3724365234375L2911.56982421875,1787.9322509765625L2911.05810546875,1787.9322509765625L2910.546142578125,1787.9322509765625L2910.546142578125,1786.1380615234375L2910.546142578125,1784.34375L2911.05810546875,1784.34375L2911.56982421875,1784.34375L2911.56982421875,1783.903564453125L2911.56982421875,1783.4635009765625L2913.983642578125,1783.4635009765625L2916.39697265625,1783.4635009765625L2916.39697265625,1783.903564453125L2916.39697265625,1784.34375L2916.87255859375,1784.34375L2917.34814453125,1784.34375L2917.34814453125,1785.190185546875L2917.34814453125,1786.036376953125L2916.433837890625,1786.036376953125L2915.519287109375,1786.036376953125L2915.519287109375,1785.5625L2915.519287109375,1785.0885009765625L2913.947265625,1785.0885009765625L2912.37451171875,1785.0885009765625L2912.37451171875,1786.1041259765625L2912.37451171875,1787.1197509765625L2914.371337890625,1787.13330078125L2916.360595703125,1787.1536865234375L2916.3828125,1787.614013671875L2916.404541015625,1788.067626953125L2916.87255859375,1788.067626953125L2917.34814453125,1788.067626953125L2917.34814453125,1789.828125L2917.34814453125,1791.5885009765625L2916.87255859375,1791.5885009765625L2916.404541015625,1791.5885009765625L2916.3828125,1792.0489501953125L2916.360595703125,1792.5025634765625L2913.968994140625,1792.52294921875L2911.56982421875,1792.5364990234375ZM2921.005126953125,1788.8125L2921.005126953125,1785.0885009765625L2919.505615234375,1785.0885009765625L2918.00634765625,1785.0885009765625L2918.00634765625,1784.2760009765625L2918.00634765625,1783.4635009765625L2921.919189453125,1783.4635009765625L2925.832275390625,1783.4635009765625L2925.832275390625,1784.2760009765625L2925.832275390625,1785.0885009765625L2924.33251953125,1785.0885009765625L2922.83349609375,1785.0885009765625L2922.83349609375,1788.8125L2922.83349609375,1792.5364990234375L2921.919189453125,1792.5364990234375L2921.005126953125,1792.5364990234375ZM2927.295166015625,1792.0625L2927.295166015625,1791.5885009765625L2926.782958984375,1791.5885009765625L2926.271484375,1791.5885009765625L2926.271484375,1790.7421875L2926.271484375,1789.8958740234375L2927.185302734375,1789.8958740234375L2928.099609375,1789.8958740234375L2928.099609375,1790.3697509765625L2928.099609375,1790.84375L2929.672119140625,1790.84375L2931.24462890625,1790.84375L2931.24462890625,1789.828125L2931.24462890625,1788.8125L2929.269775390625,1788.8125L2927.295166015625,1788.8125L2927.295166015625,1788.3724365234375L2927.295166015625,1787.9322509765625L2926.782958984375,1787.9322509765625L2926.271484375,1787.9322509765625L2926.271484375,1786.1380615234375L2926.271484375,1784.34375L2926.782958984375,1784.34375L2927.295166015625,1784.34375L2927.295166015625,1783.903564453125L2927.295166015625,1783.4635009765625L2929.672119140625,1783.4635009765625L2932.04931640625,1783.4635009765625L2932.04931640625,1783.903564453125L2932.04931640625,1784.34375L2932.524658203125,1784.34375L2933,1784.34375L2933,1785.190185546875L2933,1786.036376953125L2932.122314453125,1786.036376953125L2931.24462890625,1786.036376953125L2931.24462890625,1785.5625L2931.24462890625,1785.0885009765625L2929.672119140625,1785.0885009765625L2928.099609375,1785.0885009765625L2928.099609375,1786.1041259765625L2928.099609375,1787.1197509765625L2930.074462890625,1787.1197509765625L2932.04931640625,1787.1197509765625L2932.04931640625,1787.59375L2932.04931640625,1788.067626953125L2932.524658203125,1788.067626953125L2933,1788.067626953125L2933,1789.828125L2933,1791.5885009765625L2932.524658203125,1791.5885009765625L2932.04931640625,1791.5885009765625L2932.04931640625,1792.0625L2932.04931640625,1792.5364990234375L2929.672119140625,1792.5364990234375L2927.295166015625,1792.5364990234375Z" fill-rule="evenodd" style="fill:#ff7400;fill-opacity:1">
          </path>
        </g>
      </g>
    </g>
    <g id="shape-1eebacc3-190b-80f3-8007-6abf2968ae2b">
      <g class="fills" id="fills-1eebacc3-190b-80f3-8007-6abf2968ae2b">
        <path d="M2824.123291015625,1793.749267578125L2824.123291015625,1792.9986572265625L2824.935791015625,1792.9986572265625L2825.748046875,1792.9986572265625L2825.748046875,1793.749267578125L2825.748046875,1794.5L2824.935791015625,1794.5L2824.123291015625,1794.5ZM2824.123291015625,1791.2764892578125L2824.123291015625,1790.5257568359375L2824.5693359375,1790.5257568359375L2825.015380859375,1790.5257568359375L2825.015380859375,1790.1136474609375L2825.015380859375,1789.7015380859375L2825.46142578125,1789.7015380859375L2825.907470703125,1789.7015380859375L2825.907470703125,1788.376708984375L2825.907470703125,1787.0521240234375L2824.935791015625,1787.0521240234375L2823.964111328125,1787.0521240234375L2823.964111328125,1788.2884521484375L2823.964111328125,1789.52490234375L2823.151611328125,1789.52490234375L2822.339111328125,1789.52490234375L2822.339111328125,1788.362060546875L2822.339111328125,1787.1993408203125L2822.78515625,1787.1993408203125L2823.231201171875,1787.1993408203125L2823.231201171875,1786.787109375L2823.231201171875,1786.375L2824.935791015625,1786.375L2826.64013671875,1786.375L2826.64013671875,1786.787109375L2826.64013671875,1787.1993408203125L2827.086181640625,1787.1993408203125L2827.5322265625,1787.1993408203125L2827.5322265625,1788.7889404296875L2827.5322265625,1790.3785400390625L2826.64013671875,1790.3785400390625L2825.748046875,1790.3785400390625L2825.748046875,1791.202880859375L2825.748046875,1792.027099609375L2824.935791015625,1792.027099609375L2824.123291015625,1792.027099609375Z" fill-rule="evenodd" style="fill:#ff7400;fill-opacity:1">
        </path>
      </g>
    </g>
    <g id="shape-1eebacc3-190b-80f3-8007-6abf2968ae2c">
      <g class="fills" id="fills-1eebacc3-190b-80f3-8007-6abf2968ae2c">
        <path d="M2818.7763671875,1792.397216796875L2818.7763671875,1791.987060546875L2818.332763671875,1791.987060546875L2817.888427734375,1791.987060546875L2817.888427734375,1791.576904296875L2817.888427734375,1791.1668701171875L2817.4443359375,1791.1668701171875L2817,1791.1668701171875L2817,1790.4197998046875L2817,1789.6728515625L2817.4443359375,1789.6728515625L2817.888427734375,1789.6728515625L2817.888427734375,1789.2626953125L2817.888427734375,1788.8526611328125L2818.332763671875,1788.8526611328125L2818.7763671875,1788.8526611328125L2818.7763671875,1786.8167724609375L2818.7763671875,1784.7808837890625L2819.220947265625,1784.7808837890625L2819.664794921875,1784.7808837890625L2819.664794921875,1784.370849609375L2819.664794921875,1783.960693359375L2820.108642578125,1783.960693359375L2820.552978515625,1783.960693359375L2820.552978515625,1783.550537109375L2820.552978515625,1783.140380859375L2820.997314453125,1783.140380859375L2821.441162109375,1783.140380859375L2821.441162109375,1782.7303466796875L2821.441162109375,1782.3201904296875L2821.885498046875,1782.3201904296875L2822.32958984375,1782.3201904296875L2822.32958984375,1781.91015625L2822.32958984375,1781.5L2824.89892578125,1781.5L2827.46875,1781.5L2827.46875,1781.91015625L2827.46875,1782.3201904296875L2827.912841796875,1782.3201904296875L2828.35693359375,1782.3201904296875L2828.35693359375,1782.7303466796875L2828.35693359375,1783.140380859375L2828.801025390625,1783.140380859375L2829.2451171875,1783.140380859375L2829.2451171875,1783.550537109375L2829.2451171875,1783.960693359375L2829.689453125,1783.960693359375L2830.13330078125,1783.960693359375L2830.13330078125,1784.370849609375L2830.13330078125,1784.7808837890625L2830.57763671875,1784.7808837890625L2831.021484375,1784.7808837890625L2831.021484375,1786.8167724609375L2831.021484375,1788.8526611328125L2831.4658203125,1788.8526611328125L2831.909912109375,1788.8526611328125L2831.909912109375,1789.2626953125L2831.909912109375,1789.6728515625L2832.35400390625,1789.6728515625L2832.79833984375,1789.6728515625L2832.79833984375,1790.4197998046875L2832.79833984375,1791.1668701171875L2832.35400390625,1791.1668701171875L2831.909912109375,1791.1668701171875L2831.909912109375,1791.576904296875L2831.909912109375,1791.987060546875L2831.4658203125,1791.987060546875L2831.021484375,1791.987060546875L2831.021484375,1792.397216796875L2831.021484375,1792.8072509765625L2830.212890625,1792.8072509765625L2829.40380859375,1792.8072509765625L2829.40380859375,1790.4197998046875L2829.40380859375,1788.032470703125L2829.847900390625,1788.032470703125L2830.2919921875,1788.032470703125L2830.2919921875,1786.7435302734375L2830.2919921875,1785.4547119140625L2829.847900390625,1785.4547119140625L2829.40380859375,1785.4547119140625L2829.40380859375,1785.0445556640625L2829.40380859375,1784.634521484375L2828.959716796875,1784.634521484375L2828.515625,1784.634521484375L2828.515625,1784.224365234375L2828.515625,1783.814208984375L2828.0712890625,1783.814208984375L2827.62744140625,1783.814208984375L2827.62744140625,1783.404052734375L2827.62744140625,1782.9940185546875L2824.89892578125,1782.9940185546875L2822.170654296875,1782.9940185546875L2822.170654296875,1783.404052734375L2822.170654296875,1783.814208984375L2821.726806640625,1783.814208984375L2821.28271484375,1783.814208984375L2821.28271484375,1784.224365234375L2821.28271484375,1784.634521484375L2820.838623046875,1784.634521484375L2820.394287109375,1784.634521484375L2820.394287109375,1785.0445556640625L2820.394287109375,1785.4547119140625L2819.9501953125,1785.4547119140625L2819.506103515625,1785.4547119140625L2819.506103515625,1786.7435302734375L2819.506103515625,1788.032470703125L2819.9501953125,1788.032470703125L2820.394287109375,1788.032470703125L2820.394287109375,1790.4197998046875L2820.394287109375,1792.8072509765625L2819.58544921875,1792.8072509765625L2818.7763671875,1792.8072509765625Z" fill-rule="evenodd" style="fill:#ff7400;fill-opacity:1">
        </path>
      </g>
    </g>
  </g>
</svg>