<svg width="24" xmlns="http://www.w3.org/2000/svg" height="19.749" id="screenshot-1eebacc3-190b-80f3-8007-6abf2968ae28" viewBox="2931.845 1776.125 24 19.749" style="-webkit-print-color-adjust::exact" xmlns:xlink="http://www.w3.org/1999/xlink" fill="none" version="1.1">
  <g id="shape-1eebacc3-190b-80f3-8007-6abf2968ae28" style="fill:#000000" width="1586" height="192" rx="0" ry="0">
    <g id="shape-1eebacc3-190b-80f3-8007-6abf2968ae2b">
      <g class="fills" id="fills-1eebacc3-190b-80f3-8007-6abf2968ae2b">
        <path d="M2942.666015625,1794.7340087890625L2942.666015625,1793.59375L2943.900390625,1793.59375L2945.13427734375,1793.59375L2945.13427734375,1794.7340087890625L2945.13427734375,1795.87451171875L2943.900390625,1795.87451171875L2942.666015625,1795.87451171875ZM2942.666015625,1790.9775390625L2942.666015625,1789.8370361328125L2943.34375,1789.8370361328125L2944.021240234375,1789.8370361328125L2944.021240234375,1789.2109375L2944.021240234375,1788.5849609375L2944.698974609375,1788.5849609375L2945.37646484375,1788.5849609375L2945.37646484375,1786.572265625L2945.37646484375,1784.56005859375L2943.900390625,1784.56005859375L2942.42431640625,1784.56005859375L2942.42431640625,1786.438232421875L2942.42431640625,1788.3165283203125L2941.18994140625,1788.3165283203125L2939.95556640625,1788.3165283203125L2939.95556640625,1786.550048828125L2939.95556640625,1784.78369140625L2940.63330078125,1784.78369140625L2941.310791015625,1784.78369140625L2941.310791015625,1784.157470703125L2941.310791015625,1783.5313720703125L2943.900390625,1783.5313720703125L2946.489501953125,1783.5313720703125L2946.489501953125,1784.157470703125L2946.489501953125,1784.78369140625L2947.167236328125,1784.78369140625L2947.8447265625,1784.78369140625L2947.8447265625,1787.198486328125L2947.8447265625,1789.6134033203125L2946.489501953125,1789.6134033203125L2945.13427734375,1789.6134033203125L2945.13427734375,1790.86572265625L2945.13427734375,1792.1177978515625L2943.900390625,1792.1177978515625L2942.666015625,1792.1177978515625Z" fill-rule="evenodd" style="fill:#ff7400;fill-opacity:1">
        </path>
      </g>
    </g>
    <g id="shape-1eebacc3-190b-80f3-8007-6abf2968ae2c">
      <g class="fills" id="fills-1eebacc3-190b-80f3-8007-6abf2968ae2c">
        <path d="M2934.543212890625,1792.6800537109375L2934.543212890625,1792.0570068359375L2933.869384765625,1792.0570068359375L2933.1943359375,1792.0570068359375L2933.1943359375,1791.433837890625L2933.1943359375,1790.8109130859375L2932.519775390625,1790.8109130859375L2931.8447265625,1790.8109130859375L2931.8447265625,1789.676025390625L2931.8447265625,1788.5413818359375L2932.519775390625,1788.5413818359375L2933.1943359375,1788.5413818359375L2933.1943359375,1787.918212890625L2933.1943359375,1787.2952880859375L2933.869384765625,1787.2952880859375L2934.543212890625,1787.2952880859375L2934.543212890625,1784.2025146484375L2934.543212890625,1781.109619140625L2935.21875,1781.109619140625L2935.89306640625,1781.109619140625L2935.89306640625,1780.4866943359375L2935.89306640625,1779.8636474609375L2936.567138671875,1779.8636474609375L2937.2421875,1779.8636474609375L2937.2421875,1779.2406005859375L2937.2421875,1778.617431640625L2937.917236328125,1778.617431640625L2938.591552734375,1778.617431640625L2938.591552734375,1777.99462890625L2938.591552734375,1777.3714599609375L2939.2666015625,1777.3714599609375L2939.941162109375,1777.3714599609375L2939.941162109375,1776.74853515625L2939.941162109375,1776.12548828125L2943.844482421875,1776.12548828125L2947.748291015625,1776.12548828125L2947.748291015625,1776.74853515625L2947.748291015625,1777.3714599609375L2948.423095703125,1777.3714599609375L2949.09765625,1777.3714599609375L2949.09765625,1777.99462890625L2949.09765625,1778.617431640625L2949.772216796875,1778.617431640625L2950.447021484375,1778.617431640625L2950.447021484375,1779.2406005859375L2950.447021484375,1779.8636474609375L2951.1220703125,1779.8636474609375L2951.79638671875,1779.8636474609375L2951.79638671875,1780.4866943359375L2951.79638671875,1781.109619140625L2952.47119140625,1781.109619140625L2953.1455078125,1781.109619140625L2953.1455078125,1784.2025146484375L2953.1455078125,1787.2952880859375L2953.820556640625,1787.2952880859375L2954.4951171875,1787.2952880859375L2954.4951171875,1787.918212890625L2954.4951171875,1788.5413818359375L2955.169921875,1788.5413818359375L2955.844970703125,1788.5413818359375L2955.844970703125,1789.676025390625L2955.844970703125,1790.8109130859375L2955.169921875,1790.8109130859375L2954.4951171875,1790.8109130859375L2954.4951171875,1791.433837890625L2954.4951171875,1792.0570068359375L2953.820556640625,1792.0570068359375L2953.1455078125,1792.0570068359375L2953.1455078125,1792.6800537109375L2953.1455078125,1793.302978515625L2951.917236328125,1793.302978515625L2950.68798828125,1793.302978515625L2950.68798828125,1789.676025390625L2950.68798828125,1786.04931640625L2951.36279296875,1786.04931640625L2952.037353515625,1786.04931640625L2952.037353515625,1784.0911865234375L2952.037353515625,1782.13330078125L2951.36279296875,1782.13330078125L2950.68798828125,1782.13330078125L2950.68798828125,1781.51025390625L2950.68798828125,1780.8873291015625L2950.013427734375,1780.8873291015625L2949.3388671875,1780.8873291015625L2949.3388671875,1780.26416015625L2949.3388671875,1779.64111328125L2948.663818359375,1779.64111328125L2947.989501953125,1779.64111328125L2947.989501953125,1779.01806640625L2947.989501953125,1778.3951416015625L2943.844482421875,1778.3951416015625L2939.69970703125,1778.3951416015625L2939.69970703125,1779.01806640625L2939.69970703125,1779.64111328125L2939.025390625,1779.64111328125L2938.350830078125,1779.64111328125L2938.350830078125,1780.26416015625L2938.350830078125,1780.8873291015625L2937.67626953125,1780.8873291015625L2937.001220703125,1780.8873291015625L2937.001220703125,1781.51025390625L2937.001220703125,1782.13330078125L2936.326416015625,1782.13330078125L2935.65185546875,1782.13330078125L2935.65185546875,1784.0911865234375L2935.65185546875,1786.04931640625L2936.326416015625,1786.04931640625L2937.001220703125,1786.04931640625L2937.001220703125,1789.676025390625L2937.001220703125,1793.302978515625L2935.7724609375,1793.302978515625L2934.543212890625,1793.302978515625Z" fill-rule="evenodd" style="fill:#ff7400;fill-opacity:1">
        </path>
      </g>
    </g>
  </g>
</svg>