<svg width="24" xmlns="http://www.w3.org/2000/svg" height="24" id="screenshot-9c3a17ad-a260-8082-8007-6b9bbdf78d4f" viewBox="3241 2025 24 24" style="-webkit-print-color-adjust::exact" xmlns:xlink="http://www.w3.org/1999/xlink" fill="none" version="1.1">
  <g id="shape-9c3a17ad-a260-8082-8007-6b9bbdf78d4f" style="fill:#000000" rx="0" ry="0">
    <g id="shape-9c3a17ad-a260-8082-8007-6b9bbdf810df" style="display:none">
      <g class="fills" id="fills-9c3a17ad-a260-8082-8007-6b9bbdf810df">
        <rect rx="0" ry="0" x="3241" y="2025" transform="matrix(1.000000, 0.000000, 0.000000, 1.000000, 0.000000, 0.000000)" width="24" height="24" fill="none" style="fill:#ff7400;fill-opacity:1">
        </rect>
      </g>
    </g>
    <g id="shape-9c3a17ad-a260-8082-8007-6b9bbdf84d58">
      <g class="fills" id="fills-9c3a17ad-a260-8082-8007-6b9bbdf84d58">
        <path d="M3246,2035.5C3246,2035.2239990234375,3246.22412109375,2035,3246.5,2035L3251,2035L3251,2030.5C3251,2030.2239990234375,3251.22412109375,2030,3251.5,2030C3251.77587890625,2030,3252,2030.2239990234375,3252,2030.5L3252,2035L3256.5,2035C3256.77587890625,2035,3257,2035.2239990234375,3257,2035.5C3257,2035.7760009765625,3256.77587890625,2036,3256.5,2036L3252,2036L3252,2040.5C3252,2040.7760009765625,3251.77587890625,2041,3251.5,2041C3251.22412109375,2041,3251,2040.7760009765625,3251,2040.5L3251,2036L3246.5,2036C3246.22412109375,2036,3246,2035.7760009765625,3246,2035.5ZM3265,2033.5L3265,2044.5C3265,2046.98095703125,3262.98095703125,2049,3260.5,2049L3249.5,2049C3247.572021484375,2049,3245.888916015625,2047.77001953125,3245.263916015625,2045.9759521484375C3242.89404296875,2045.8509521484375,3241,2043.9010009765625,3241,2041.5L3241,2029.5C3241,2027.01904296875,3243.01904296875,2025,3245.5,2025L3257.5,2025C3259.90087890625,2025,3261.85107421875,2026.89404296875,3261.97607421875,2029.2640380859375C3263.76904296875,2029.8890380859375,3265,2031.571044921875,3265,2033.5ZM3245.5,2045L3257.5,2045C3259.429931640625,2045,3261,2043.4300537109375,3261,2041.5L3261,2029.5C3261,2027.5699462890625,3259.429931640625,2026,3257.5,2026L3245.5,2026C3243.570068359375,2026,3242,2027.5699462890625,3242,2029.5L3242,2041.5C3242,2043.4300537109375,3243.570068359375,2045,3245.5,2045ZM3264,2033.5C3264,2032.1290283203125,3263.201904296875,2030.9119873046875,3262,2030.342041015625L3262,2041.5C3262,2043.98095703125,3259.98095703125,2046,3257.5,2046L3246.342041015625,2046C3246.912109375,2047.2020263671875,3248.12890625,2048,3249.5,2048L3260.5,2048C3262.429931640625,2048,3264,2046.4300537109375,3264,2044.5L3264,2033.5Z" style="fill:#ff7400;fill-opacity:1">
        </path>
      </g>
    </g>
  </g>
</svg>