<svg width="24" xmlns="http://www.w3.org/2000/svg" height="24" id="screenshot-9c3a17ad-a260-8082-8007-6b9bc53963fa" viewBox="3031 1841 24 24" style="-webkit-print-color-adjust::exact" xmlns:xlink="http://www.w3.org/1999/xlink" fill="none" version="1.1">
  <g id="shape-9c3a17ad-a260-8082-8007-6b9bc53963fa" style="fill:#000000" rx="0" ry="0">
    <g id="shape-9c3a17ad-a260-8082-8007-6b9bc539f483" style="display:none">
      <g class="fills" id="fills-9c3a17ad-a260-8082-8007-6b9bc539f483">
        <rect rx="0" ry="0" x="3031" y="1841" transform="matrix(1.000000, 0.000000, 0.000000, 1.000000, 0.000000, 0.000000)" width="24" height="24" fill="none" style="fill:#ff7400;fill-opacity:1">
        </rect>
      </g>
    </g>
    <g id="shape-9c3a17ad-a260-8082-8007-6b9bc53a3828">
      <g class="fills" id="fills-9c3a17ad-a260-8082-8007-6b9bc53a3828">
        <path d="M3046.5,1852L3045.5,1852C3044.12109375,1852,3043,1853.12109375,3043,1854.5L3043,1856.511962890625C3042.5810546875,1856.195068359375,3042.06494140625,1856,3041.5,1856C3040.12109375,1856,3039,1857.12109375,3039,1858.5C3039,1859.87890625,3040.12109375,1861,3041.5,1861C3042.87890625,1861,3044,1859.87890625,3044,1858.5L3044,1854.5C3044,1853.673095703125,3044.673095703125,1853,3045.5,1853L3046.5,1853C3046.77587890625,1853,3047,1852.77587890625,3047,1852.5C3047,1852.22412109375,3046.77587890625,1852,3046.5,1852ZM3041.5,1860C3040.673095703125,1860,3040,1859.326904296875,3040,1858.5C3040,1857.673095703125,3040.673095703125,1857,3041.5,1857C3042.326904296875,1857,3043,1857.673095703125,3043,1858.5C3043,1859.326904296875,3042.326904296875,1860,3041.5,1860ZM3051.095947265625,1846.388916015625L3047.612060546875,1842.905029296875C3046.384033203125,1841.677001953125,3044.751953125,1841.0009765625,3043.014892578125,1841.0009765625L3037.5,1841.0009765625C3035.01904296875,1841,3033,1843.01904296875,3033,1845.5L3033,1860.5C3033,1862.98095703125,3035.01904296875,1865,3037.5,1865L3048.5,1865C3050.98095703125,1865,3053,1862.98095703125,3053,1860.5L3053,1850.985107421875C3053,1849.2490234375,3052.322998046875,1847.615966796875,3051.095947265625,1846.387939453125ZM3050.388916015625,1847.095947265625C3050.93896484375,1847.64599609375,3051.347900390625,1848.2958984375,3051.62109375,1849L3046.5,1849C3045.673095703125,1849,3045,1848.326904296875,3045,1847.5L3045,1842.37890625C3045.7041015625,1842.652099609375,3046.35400390625,1843.06103515625,3046.904052734375,1843.611083984375L3050.387939453125,1847.094970703125ZM3052,1860.5C3052,1862.429931640625,3050.429931640625,1864,3048.5,1864L3037.5,1864C3035.570068359375,1864,3034,1862.429931640625,3034,1860.5L3034,1845.5C3034,1843.570068359375,3035.570068359375,1842,3037.5,1842L3043.014892578125,1842C3043.35009765625,1842,3043.677978515625,1842.0380859375,3044,1842.095947265625L3044,1847.5C3044,1848.87890625,3045.12109375,1850,3046.5,1850L3051.904052734375,1850C3051.9619140625,1850.322998046875,3052,1850.65087890625,3052,1850.985107421875L3052,1860.5Z" style="fill:#ff7400;fill-opacity:1">
        </path>
      </g>
    </g>
  </g>
</svg>