<svg width="24" xmlns="http://www.w3.org/2000/svg" height="24" id="screenshot-d4fed170-a73e-8030-8007-6ceec5bf02f9" viewBox="3195 2013 24 24" style="-webkit-print-color-adjust::exact" xmlns:xlink="http://www.w3.org/1999/xlink" fill="none" version="1.1">
  <g id="shape-d4fed170-a73e-8030-8007-6ceec5bf02f9" style="fill:#000000" width="512" height="512" rx="0" ry="0">
    <g id="shape-d4fed170-a73e-8030-8007-6ceec5bfd9f9" style="display:none">
      <g class="fills" id="fills-d4fed170-a73e-8030-8007-6ceec5bfd9f9">
        <rect rx="0" ry="0" x="3195" y="2013" transform="matrix(1.000000, 0.000000, 0.000000, 1.000000, 0.000000, 0.000000)" width="24" height="24" fill="none" style="fill:#ff7400;fill-opacity:1">
        </rect>
      </g>
    </g>
    <g id="shape-d4fed170-a73e-8030-8007-6ceec5bfd9fa">
      <g class="fills" id="fills-d4fed170-a73e-8030-8007-6ceec5bfd9fa">
        <path d="M3210.85400390625,2021.85400390625L3207.7080078125,2025L3210.85400390625,2028.14599609375C3211.049072265625,2028.3408203125,3211.049072265625,2028.657958984375,3210.85400390625,2028.85302734375C3210.756103515625,2028.951171875,3210.6279296875,2028.9990234375,3210.5,2028.9990234375C3210.3720703125,2028.9990234375,3210.243896484375,2028.949951171875,3210.14599609375,2028.85302734375L3207,2025.70703125L3203.85400390625,2028.85302734375C3203.756103515625,2028.951171875,3203.6279296875,2028.9990234375,3203.5,2028.9990234375C3203.3720703125,2028.9990234375,3203.243896484375,2028.949951171875,3203.14599609375,2028.85302734375C3202.950927734375,2028.657958984375,3202.950927734375,2028.3408203125,3203.14599609375,2028.14599609375L3206.2919921875,2025L3203.14599609375,2021.85400390625C3202.950927734375,2021.6590576171875,3202.950927734375,2021.342041015625,3203.14599609375,2021.14697265625C3203.341064453125,2020.9520263671875,3203.657958984375,2020.9520263671875,3203.85302734375,2021.14697265625L3206.9990234375,2024.29296875L3210.14501953125,2021.14697265625C3210.340087890625,2020.9520263671875,3210.656982421875,2020.9520263671875,3210.85205078125,2021.14697265625C3211.047119140625,2021.342041015625,3211.047119140625,2021.6590576171875,3210.85205078125,2021.85400390625ZM3219,2025C3219,2031.616943359375,3213.616943359375,2037,3207,2037C3200.383056640625,2037,3195,2031.616943359375,3195,2025C3195,2018.383056640625,3200.383056640625,2013,3207,2013C3213.616943359375,2013,3219,2018.383056640625,3219,2025ZM3218,2025C3218,2018.93505859375,3213.06494140625,2014,3207,2014C3200.93505859375,2014,3196,2018.93505859375,3196,2025C3196,2031.06494140625,3200.93505859375,2036,3207,2036C3213.06494140625,2036,3218,2031.06494140625,3218,2025Z" style="fill:#ff7400;fill-opacity:1">
        </path>
      </g>
    </g>
  </g>
</svg>