<svg width="24" xmlns="http://www.w3.org/2000/svg" height="21.642" id="screenshot-d4fed170-a73e-8030-8007-6ce21febf57b" viewBox="3352 2068 24 21.642" style="-webkit-print-color-adjust::exact" xmlns:xlink="http://www.w3.org/1999/xlink" fill="none" version="1.1">
  <g id="shape-d4fed170-a73e-8030-8007-6ce21febf57b">
    <g class="fills" id="fills-d4fed170-a73e-8030-8007-6ce21febf57b">
      <path d="M3365.060791015625,2089.642333984375C3357.943115234375,2089.642333984375,3352.078857421875,2083.910888671875,3352,2076.8701171875L3352,2076.531982421875L3358.1796875,2074.737060546875C3360.791748046875,2073.774658203125,3363.132080078125,2072.3701171875,3365.156982421875,2070.557861328125C3365.4287109375,2070.32373046875,3365.7880859375,2070.193603515625,3366.15625,2070.193603515625C3366.5595703125,2070.193603515625,3366.936279296875,2070.349609375,3367.225830078125,2070.618408203125L3369.987060546875,2073.2890625L3375.333984375,2068L3376,2068.658935546875L3370.66162109375,2073.939453125L3373.019775390625,2076.228515625C3373.326416015625,2076.5234375,3373.501953125,2076.939697265625,3373.484375,2077.355712890625C3373.30908203125,2082.306884765625,3370.679443359375,2086.86767578125,3366.463134765625,2089.538330078125L3366.322998046875,2089.6337890625L3365.060791015625,2089.642333984375ZM3364.7451171875,2082.896484375C3363.640869140625,2084.50048828125,3362.124267578125,2085.809814453125,3360.3623046875,2086.685546875L3359.187744140625,2087.2666015625L3360.397216796875,2087.76953125C3361.922607421875,2088.393798828125,3363.526611328125,2088.714599609375,3365.183349609375,2088.714599609375L3366.00732421875,2088.714599609375L3366.1650390625,2088.601806640625C3368.277587890625,2087.136474609375,3369.99560546875,2085.15966796875,3371.152587890625,2082.870361328125L3371.345458984375,2082.480224609375L3362.308349609375,2073.783447265625L3361.905029296875,2074.034912109375C3360.818115234375,2074.711181640625,3359.635009765625,2075.248779296875,3358.40771484375,2075.638916015625L3352.92041015625,2077.234375L3352.95556640625,2077.711181640625C3353.060546875,2079.081298828125,3353.402587890625,2080.41650390625,3353.98095703125,2081.665283203125L3354.2001953125,2082.133544921875L3354.69970703125,2081.986083984375C3356.18115234375,2081.552490234375,3357.557373046875,2080.806884765625,3358.723388671875,2079.8095703125L3359.380615234375,2080.477294921875C3358.232421875,2081.4658203125,3356.87353515625,2082.237548828125,3355.436279296875,2082.72314453125L3354.664794921875,2082.983154296875L3355.13818359375,2083.633544921875C3355.935791015625,2084.734619140625,3356.90869140625,2085.6884765625,3358.02197265625,2086.460205078125L3358.320068359375,2086.668212890625L3359.941650390625,2085.86181640625C3361.554443359375,2085.064208984375,3362.9482421875,2083.85888671875,3363.9736328125,2082.384765625L3364.18408203125,2082.081298828125L3364.955322265625,2082.6015625L3364.7451171875,2082.896484375ZM3365.735595703125,2071.268798828125C3365.0869140625,2071.83251953125,3364.403076171875,2072.3701171875,3363.701904296875,2072.8642578125L3363.11474609375,2073.280517578125L3371.757568359375,2081.6044921875L3372.029296875,2080.64208984375C3372.3359375,2079.56689453125,3372.502685546875,2078.4482421875,3372.53759765625,2077.33837890625L3372.54638671875,2077.078369140625L3366.1474609375,2070.913330078125L3365.735595703125,2071.268798828125Z" style="enable-background:new 0 0 595.3 841.9;fill:#ff7300;fill-opacity:1">
      </path>
    </g>
  </g>
</svg>