<svg width="24.001" xmlns="http://www.w3.org/2000/svg" height="24" id="screenshot-9c3a17ad-a260-8082-8007-6b9b92cdb71a" viewBox="3168 1996 24.001 24" style="-webkit-print-color-adjust::exact" xmlns:xlink="http://www.w3.org/1999/xlink" fill="none" version="1.1">
  <g id="shape-9c3a17ad-a260-8082-8007-6b9b92cdb71a" style="fill:#000000" width="512" height="512" rx="0" ry="0">
    <g id="shape-9c3a17ad-a260-8082-8007-6b9b92ce3332" style="display:none">
      <g class="fills" id="fills-9c3a17ad-a260-8082-8007-6b9b92ce3332">
        <rect rx="0" ry="0" x="3168" y="1996" transform="matrix(1.000000, 0.000000, 0.000000, 1.000000, 0.000000, 0.000000)" width="24" height="24" fill="none" style="fill:#ff7400;fill-opacity:1">
        </rect>
      </g>
    </g>
    <g id="shape-9c3a17ad-a260-8082-8007-6b9b92ce4122">
      <g class="fills" id="fills-9c3a17ad-a260-8082-8007-6b9b92ce4122">
        <path d="M3182.881103515625,2013C3182.7529296875,2013,3182.625,2012.9510498046875,3182.527099609375,2012.85400390625C3182.33203125,2012.6590576171875,3182.33203125,2012.342041015625,3182.527099609375,2012.14697265625L3185.56201171875,2009.1109619140625C3186.14697265625,2008.5260009765625,3186.14697265625,2007.574951171875,3185.56201171875,2006.989990234375L3182.426025390625,2003.85400390625C3182.23095703125,2003.6590576171875,3182.23095703125,2003.342041015625,3182.426025390625,2003.14697265625C3182.62109375,2002.9520263671875,3182.93798828125,2002.9520263671875,3183.133056640625,2003.14697265625L3186.26904296875,2006.282958984375C3187.243896484375,2007.258056640625,3187.243896484375,2008.843994140625,3186.26904296875,2009.8179931640625L3183.23388671875,2012.85400390625C3183.135986328125,2012.9520263671875,3183.008056640625,2013,3182.8798828125,2013ZM3192,2015.3179931640625L3192,2008.35498046875C3192,2001.8680419921875,3187.096923828125,1996.4539794921875,3180.8369140625,1996.0279541015625C3177.35791015625,1995.7919921875,3173.9599609375,1997.06494140625,3171.508056640625,1999.52099609375C3169.055908203125,2001.97705078125,3167.7890625,2005.3780517578125,3168.029052734375,2008.85498046875C3168.469970703125,2015.208984375,3174.10302734375,2020,3181.133056640625,2020L3187.319091796875,2020C3189.90087890625,2020,3192.0009765625,2017.9000244140625,3192.0009765625,2015.3179931640625ZM3180.77001953125,1997.0260009765625C3186.507080078125,1997.416015625,3191,2002.3919677734375,3191,2008.35498046875L3191,2015.3179931640625C3191,2017.3480224609375,3189.34912109375,2019,3187.318115234375,2019L3181.132080078125,2019C3174.528076171875,2019,3169.43701171875,2014.7039794921875,3169.027099609375,2008.7860107421875C3168.805908203125,2005.5980224609375,3169.968017578125,2002.47900390625,3172.215087890625,2000.22802734375C3174.285888671875,1998.155029296875,3177.093017578125,1997.0009765625,3180.014892578125,1997.0009765625C3180.264892578125,1997.0009765625,3180.51708984375,1997.010009765625,3180.76806640625,1997.0269775390625ZM3177.472900390625,2012.85302734375C3177.66796875,2012.657958984375,3177.66796875,2012.3409423828125,3177.472900390625,2012.14599609375L3174.43701171875,2009.1099853515625C3173.85205078125,2008.5250244140625,3173.85205078125,2007.573974609375,3174.43701171875,2006.989013671875L3177.572998046875,2003.85302734375C3177.76806640625,2003.657958984375,3177.76806640625,2003.3409423828125,3177.572998046875,2003.14599609375C3177.3779296875,2002.9510498046875,3177.06103515625,2002.9510498046875,3176.865966796875,2003.14599609375L3173.72998046875,2006.281982421875C3172.7548828125,2007.2569580078125,3172.7548828125,2008.843017578125,3173.72998046875,2009.8170166015625L3176.76611328125,2012.85302734375C3176.864013671875,2012.9510498046875,3176.991943359375,2012.9990234375,3177.1201171875,2012.9990234375C3177.248046875,2012.9990234375,3177.3759765625,2012.949951171875,3177.47412109375,2012.85302734375Z" style="fill:#ff7400;fill-opacity:1">
        </path>
      </g>
    </g>
  </g>
</svg>