<svg width="24" xmlns="http://www.w3.org/2000/svg" height="24" id="screenshot-9c3a17ad-a260-8082-8007-6b9b87282333" viewBox="3177 2031 24 24" style="-webkit-print-color-adjust::exact" xmlns:xlink="http://www.w3.org/1999/xlink" fill="none" version="1.1">
  <g id="shape-9c3a17ad-a260-8082-8007-6b9b87282333" style="fill:#000000" width="512" height="512" rx="0" ry="0">
    <g id="shape-9c3a17ad-a260-8082-8007-6b9b8728e74c" style="display:none">
      <g class="fills" id="fills-9c3a17ad-a260-8082-8007-6b9b8728e74c">
        <rect rx="0" ry="0" x="3177" y="2031" transform="matrix(1.000000, 0.000000, 0.000000, 1.000000, 0.000000, 0.000000)" width="24" height="24" fill="none" style="fill:#ff7400;fill-opacity:1">
        </rect>
      </g>
    </g>
    <g id="shape-9c3a17ad-a260-8082-8007-6b9b8728e74d">
      <g class="fills" id="fills-9c3a17ad-a260-8082-8007-6b9b8728e74d">
        <path d="M3195.302001953125,2038.1209716796875C3193.952880859375,2035,3190.922119140625,2033,3187.5,2033C3182.81298828125,2033,3179,2036.81298828125,3179,2041.5C3179,2042.0909423828125,3179.06103515625,2042.6800537109375,3179.180908203125,2043.2540283203125C3177.826904296875,2044.125,3177,2045.623046875,3177,2047.25C3177,2049.868896484375,3179.131103515625,2052,3181.75,2052L3194,2052C3197.860107421875,2052,3201,2048.85888671875,3201,2045C3201,2041.64501953125,3198.570068359375,2038.737060546875,3195.302001953125,2038.1209716796875ZM3194,2051L3181.75,2051C3179.681884765625,2051,3178,2049.31689453125,3178,2047.25C3178,2045.863037109375,3178.760986328125,2044.593994140625,3179.987060546875,2043.93896484375L3180.3330078125,2043.7530517578125L3180.235107421875,2043.373046875C3180.077880859375,2042.7640380859375,3179.9990234375,2042.134033203125,3179.9990234375,2041.4990234375C3179.9990234375,2037.363037109375,3183.363037109375,2033.9990234375,3187.4990234375,2033.9990234375C3190.60205078125,2033.9990234375,3193.342041015625,2035.864013671875,3194.47900390625,2038.7509765625L3194.5849609375,2039.02099609375L3194.8720703125,2039.06298828125C3197.794921875,2039.489013671875,3199.998046875,2042.041015625,3199.998046875,2045C3199.998046875,2048.30908203125,3197.306884765625,2051,3193.998046875,2051ZM3192.14599609375,2043.56103515625L3192.85302734375,2044.2679443359375L3189.56005859375,2047.56103515625C3189.26806640625,2047.85302734375,3188.884033203125,2047.9990234375,3188.4990234375,2047.9990234375C3188.114013671875,2047.9990234375,3187.73095703125,2047.85302734375,3187.43798828125,2047.56103515625L3184.14501953125,2044.2679443359375L3184.85205078125,2043.56103515625L3187.998046875,2046.70703125L3187.998046875,2039L3188.998046875,2039L3188.998046875,2046.70703125L3192.14404296875,2043.56103515625Z" style="fill:#ff7400;fill-opacity:1">
        </path>
      </g>
    </g>
  </g>
</svg>