<svg width="24.001" xmlns="http://www.w3.org/2000/svg" height="24.001" id="screenshot-a6b4cea8-2c0e-80cf-8007-6fd1f07e2375" viewBox="3691 1673 24.001 24.001" style="-webkit-print-color-adjust::exact" xmlns:xlink="http://www.w3.org/1999/xlink" fill="none" version="1.1">
  <g id="shape-a6b4cea8-2c0e-80cf-8007-6fd1f07e2375" style="fill:#000000" rx="0" ry="0">
    <g id="shape-a6b4cea8-2c0e-80cf-8007-6fd1f07f79cd" style="display:none">
      <g class="fills" id="fills-a6b4cea8-2c0e-80cf-8007-6fd1f07f79cd">
        <rect rx="0" ry="0" x="3691" y="1673" transform="matrix(1.000000, 0.000000, 0.000000, 1.000000, 0.000000, 0.000000)" width="24" height="24" fill="none" style="fill:#ff7400;fill-opacity:1">
        </rect>
      </g>
    </g>
    <g id="shape-a6b4cea8-2c0e-80cf-8007-6fd1f0804cbf">
      <g class="fills" id="fills-a6b4cea8-2c0e-80cf-8007-6fd1f0804cbf">
        <path d="M3695.513916015625,1688L3697.159912109375,1689.2640380859375C3697.510009765625,1689.531982421875,3697.970947265625,1689.5760498046875,3698.361083984375,1689.3819580078125C3698.75390625,1689.18896484375,3698.998046875,1688.7960205078125,3698.998046875,1688.3590087890625L3699,1683.5040283203125C3699,1682.1259765625,3697.87890625,1681.0040283203125,3696.5009765625,1681.0040283203125L3693.5009765625,1681.0040283203125C3693.5009765625,1681.0040283203125,3693.5009765625,1681.0030517578125,3693.4990234375,1681.0030517578125C3692.83203125,1681.0030517578125,3692.205078125,1681.262939453125,3691.73193359375,1681.7340087890625C3691.260009765625,1682.20703125,3691,1682.8349609375,3691,1683.5030517578125L3691,1685.501953125C3691,1686.8809814453125,3692.12109375,1688.001953125,3693.5,1688.001953125L3695.513916015625,1688.001953125ZM3692,1685.5L3692,1683.5009765625C3692,1683.0999755859375,3692.156005859375,1682.7230224609375,3692.43896484375,1682.43994140625C3692.721923828125,1682.156982421875,3693.09912109375,1682,3693.4990234375,1682L3696.5009765625,1682C3697.326904296875,1682,3698,1682.676025390625,3698,1683.5030517578125L3698,1688.3580322265625C3697.989990234375,1688.487060546875,3697.8759765625,1688.5389404296875,3697.77001953125,1688.469970703125L3695.989013671875,1687.10302734375C3695.90087890625,1687.0360107421875,3695.794921875,1686.9990234375,3695.68408203125,1686.9990234375L3693.5,1686.9990234375C3692.673095703125,1686.9990234375,3692,1686.3260498046875,3692,1685.4990234375ZM3714.468994140625,1684C3714.193115234375,1684.010986328125,3713.97900390625,1684.2440185546875,3713.989990234375,1684.52001953125C3713.9970703125,1684.678955078125,3714.0009765625,1684.8389892578125,3714.0009765625,1684.9990234375C3714.0009765625,1686.4110107421875,3713.72412109375,1687.7569580078125,3713.237060546875,1688.9990234375L3708.367919921875,1688.9990234375C3708.7509765625,1687.8699951171875,3709.0009765625,1686.68994140625,3709.0009765625,1685.4990234375C3709.0009765625,1685.2230224609375,3708.777099609375,1684.9990234375,3708.5009765625,1684.9990234375C3708.22509765625,1684.9990234375,3708.0009765625,1685.2230224609375,3708.0009765625,1685.4990234375C3708.0009765625,1686.6800537109375,3707.721923828125,1687.865966796875,3707.302001953125,1688.9990234375L3701.0009765625,1688.9990234375C3700.72509765625,1688.9990234375,3700.5009765625,1689.2230224609375,3700.5009765625,1689.4990234375C3700.5009765625,1689.7750244140625,3700.72509765625,1689.9990234375,3701.0009765625,1689.9990234375L3706.89111328125,1689.9990234375C3705.6650390625,1692.6910400390625,3703.77392578125,1694.9210205078125,3703,1695.76904296875C3702.343017578125,1695.0489501953125,3700.89794921875,1693.3599853515625,3699.735107421875,1691.2569580078125C3699.60205078125,1691.0150146484375,3699.297119140625,1690.9300537109375,3699.054931640625,1691.06201171875C3698.81396484375,1691.196044921875,3698.72607421875,1691.5,3698.860107421875,1691.741943359375C3699.85498046875,1693.541015625,3701.02001953125,1695.02001953125,3701.7939453125,1695.91796875C3698.2451171875,1695.5260009765625,3695.073974609375,1693.4429931640625,3693.337890625,1690.260986328125C3693.20703125,1690.0179443359375,3692.902099609375,1689.927978515625,3692.659912109375,1690.06201171875C3692.41796875,1690.1939697265625,3692.327880859375,1690.498046875,3692.4609375,1690.739990234375C3694.56689453125,1694.60205078125,3698.60595703125,1697.0009765625,3703.0009765625,1697.0009765625C3709.617919921875,1697.0009765625,3715.0009765625,1691.6180419921875,3715.0009765625,1685.0009765625C3715.0009765625,1684.8270263671875,3714.9970703125,1684.6529541015625,3714.989990234375,1684.47998046875C3714.97705078125,1684.2039794921875,3714.739013671875,1683.98095703125,3714.468994140625,1684.0009765625ZM3704.197021484375,1695.9310302734375C3705.212890625,1694.758056640625,3706.905029296875,1692.5760498046875,3707.988037109375,1689.9990234375L3712.784912109375,1689.9990234375C3711.134033203125,1693.218017578125,3707.948974609375,1695.52197265625,3704.196044921875,1695.9310302734375ZM3693.22900390625,1678.9119873046875C3693.0009765625,1678.7559814453125,3692.944091796875,1678.4449462890625,3693.10009765625,1678.217041015625C3695.343017578125,1674.949951171875,3699.0439453125,1673,3703,1673C3704.2470703125,1673,3705.47705078125,1673.18994140625,3706.652099609375,1673.5660400390625C3706.9150390625,1673.6500244140625,3707.06005859375,1673.9310302734375,3706.97607421875,1674.1939697265625C3706.89111328125,1674.45703125,3706.610107421875,1674.60498046875,3706.346923828125,1674.5179443359375C3705.64794921875,1674.2950439453125,3704.927978515625,1674.1510009765625,3704.196044921875,1674.072021484375C3704.537109375,1674.467041015625,3704.950927734375,1674.9720458984375,3705.39990234375,1675.574951171875C3705.56494140625,1675.7969970703125,3705.51806640625,1676.1099853515625,3705.2958984375,1676.2750244140625C3705.076904296875,1676.43896484375,3704.762939453125,1676.39501953125,3704.596923828125,1676.1719970703125C3703.947021484375,1675.2989501953125,3703.35693359375,1674.6209716796875,3702.9990234375,1674.22900390625C3702.299072265625,1674.9959716796875,3700.678955078125,1676.887939453125,3699.471923828125,1679.22802734375C3699.343994140625,1679.4759521484375,3699.0390625,1679.5689697265625,3698.798095703125,1679.4429931640625C3698.552978515625,1679.3170166015625,3698.4560546875,1679.0150146484375,3698.5830078125,1678.77001953125C3699.633056640625,1676.7340087890625,3700.951904296875,1675.052978515625,3701.798095703125,1674.072998046875C3698.633056640625,1674.4200439453125,3695.7490234375,1676.1209716796875,3693.922119140625,1678.782958984375C3693.764892578125,1679.011962890625,3693.451904296875,1679.0670166015625,3693.22705078125,1678.9119873046875ZM3704.5,1680C3704.77587890625,1680,3705,1680.2239990234375,3705,1680.5C3705,1680.7760009765625,3704.77587890625,1681,3704.5,1681L3700.5,1681C3700.22412109375,1681,3700,1680.7760009765625,3700,1680.5C3700,1680.2239990234375,3700.22412109375,1680,3700.5,1680ZM3708.14599609375,1683.5009765625C3707.97412109375,1683.5009765625,3707.800048828125,1683.4620361328125,3707.638916015625,1683.3819580078125C3707.24609375,1683.18798828125,3707.001953125,1682.7960205078125,3707.001953125,1682.3580322265625L3707,1677.5030517578125C3707,1676.125,3708.12109375,1675.0030517578125,3709.4990234375,1675.0030517578125L3712.4990234375,1675.0030517578125C3712.4990234375,1675.0030517578125,3712.4990234375,1675.001953125,3712.5009765625,1675.001953125C3713.16796875,1675.001953125,3713.794921875,1675.261962890625,3714.26806640625,1675.7330322265625C3714.739990234375,1676.2060546875,3715,1676.833984375,3715,1677.501953125L3715,1679.5009765625C3715,1680.8790283203125,3713.87890625,1682.0009765625,3712.5,1682.0009765625L3710.486083984375,1682.0009765625L3708.840087890625,1683.2650146484375C3708.635009765625,1683.4219970703125,3708.39111328125,1683.501953125,3708.14599609375,1683.501953125ZM3712.5,1676.0009765625L3709.5,1676.0009765625C3708.674072265625,1676.0030517578125,3708.0009765625,1676.676025390625,3708.0009765625,1677.5030517578125L3708.0029296875,1682.3580322265625C3708.0029296875,1682.4310302734375,3708.0458984375,1682.468017578125,3708.08203125,1682.4849853515625C3708.117919921875,1682.5030517578125,3708.175048828125,1682.5140380859375,3708.23095703125,1682.469970703125L3710.011962890625,1681.10302734375C3710.10009765625,1681.0360107421875,3710.2060546875,1680.9990234375,3710.31689453125,1680.9990234375L3712.5009765625,1680.9990234375C3713.327880859375,1680.9990234375,3714.0009765625,1680.3260498046875,3714.0009765625,1679.4990234375L3714.0009765625,1677.5C3714.0009765625,1677.0989990234375,3713.844970703125,1676.7220458984375,3713.56201171875,1676.43896484375C3713.278076171875,1676.155029296875,3712.863037109375,1676.009033203125,3712.5,1676Z" style="fill:#ff7400;fill-opacity:1">
        </path>
      </g>
    </g>
  </g>
</svg>