<svg width="24" xmlns="http://www.w3.org/2000/svg" height="24.001" id="screenshot-6ba54527-e926-801d-8007-7cbd65db0030" viewBox="3196 2247 24 24.001" style="-webkit-print-color-adjust::exact" xmlns:xlink="http://www.w3.org/1999/xlink" fill="none" version="1.1">
  <g id="shape-6ba54527-e926-801d-8007-7cbd65db0030" style="fill:#000000" rx="0" ry="0">
    <g id="shape-6ba54527-e926-801d-8007-7cbd65dbd013" style="display:none">
      <g class="fills" id="fills-6ba54527-e926-801d-8007-7cbd65dbd013">
        <rect rx="0" ry="0" x="3196" y="2247" transform="matrix(1.000000, 0.000000, 0.000000, 1.000000, 0.000000, 0.000000)" width="24" height="24" fill="none" style="fill:#ff7400;fill-opacity:1">
        </rect>
      </g>
    </g>
    <g id="shape-6ba54527-e926-801d-8007-7cbd65dc7b17">
      <g class="fills" id="fills-6ba54527-e926-801d-8007-7cbd65dc7b17">
        <path d="M3217.23388671875,2261.174072265625L3216.7890625,2260.89990234375C3216.928955078125,2260.260009765625,3217,2259.623046875,3217,2259.0009765625C3217,2258.37890625,3216.928955078125,2257.740966796875,3216.7890625,2257.10205078125L3217.23388671875,2256.827880859375C3217.916015625,2256.406982421875,3218.39404296875,2255.74609375,3218.578125,2254.966064453125C3218.762939453125,2254.18701171875,3218.632080078125,2253.381103515625,3218.2109375,2252.698974609375C3217.342041015625,2251.2919921875,3215.490966796875,2250.85400390625,3214.0830078125,2251.720947265625L3213.637939453125,2251.99609375C3212.8369140625,2251.34912109375,3211.953125,2250.85107421875,3211,2250.514892578125L3211,2250.0009765625C3211,2248.346923828125,3209.654052734375,2247.0009765625,3208,2247.0009765625C3206.345947265625,2247.0009765625,3205,2248.346923828125,3205,2250.0009765625L3205,2250.514892578125C3204.046875,2250.85205078125,3203.1630859375,2251.34912109375,3202.362060546875,2251.99609375L3201.9169921875,2251.720947265625C3200.508056640625,2250.85400390625,3198.656982421875,2251.291015625,3197.7890625,2252.698974609375C3197.367919921875,2253.381103515625,3197.238037109375,2254.18603515625,3197.421875,2254.966064453125C3197.60693359375,2255.74609375,3198.083984375,2256.406982421875,3198.76611328125,2256.827880859375L3199.2109375,2257.10205078125C3199.071044921875,2257.741943359375,3199,2258.37890625,3199,2259.0009765625C3199,2259.623046875,3199.071044921875,2260.260986328125,3199.2109375,2260.89990234375L3198.76611328125,2261.174072265625C3198.083984375,2261.594970703125,3197.60595703125,2262.256103515625,3197.421875,2263.035888671875C3197.237060546875,2263.81494140625,3197.367919921875,2264.62109375,3197.7890625,2265.302978515625C3198.656982421875,2266.7099609375,3200.510009765625,2267.14794921875,3201.9169921875,2266.281005859375L3202.362060546875,2266.006103515625C3203.1630859375,2266.653076171875,3204.046875,2267.15087890625,3205,2267.487060546875L3205,2268.0009765625C3205,2269.655029296875,3206.345947265625,2271.0009765625,3208,2271.0009765625C3209.654052734375,2271.0009765625,3211,2269.655029296875,3211,2268.0009765625L3211,2267.487060546875C3211.953125,2267.14990234375,3212.8369140625,2266.653076171875,3213.637939453125,2266.006103515625L3214.0830078125,2266.281005859375C3215.492919921875,2267.14794921875,3217.343017578125,2266.7109375,3218.2109375,2265.302978515625C3218.632080078125,2264.62109375,3218.761962890625,2263.81591796875,3218.578125,2263.035888671875C3218.39306640625,2262.256103515625,3217.916015625,2261.594970703125,3217.23388671875,2261.174072265625ZM3217.35986328125,2264.778076171875C3216.780029296875,2265.716064453125,3215.544921875,2266.010009765625,3214.60791015625,2265.428955078125L3213.85498046875,2264.964111328125C3213.66796875,2264.85009765625,3213.427978515625,2264.868896484375,3213.262939453125,2265.013916015625C3212.40087890625,2265.77001953125,3211.421875,2266.319091796875,3210.35302734375,2266.64794921875C3210.14306640625,2266.7119140625,3210,2266.906005859375,3210,2267.1259765625L3210,2268.0009765625C3210,2269.10400390625,3209.10302734375,2270.0009765625,3208,2270.0009765625C3206.89697265625,2270.0009765625,3206,2269.10400390625,3206,2268.0009765625L3206,2267.1259765625C3206,2266.906005859375,3205.85693359375,2266.712890625,3205.64697265625,2266.64794921875C3204.578125,2266.319091796875,3203.59912109375,2265.77001953125,3202.737060546875,2265.013916015625C3202.64306640625,2264.931884765625,3202.52587890625,2264.889892578125,3202.406982421875,2264.889892578125C3202.31591796875,2264.889892578125,3202.22509765625,2264.9140625,3202.14404296875,2264.964111328125L3201.39111328125,2265.428955078125C3200.453125,2266.010009765625,3199.218017578125,2265.716064453125,3198.638916015625,2264.778076171875C3198.35888671875,2264.323974609375,3198.27197265625,2263.787109375,3198.39501953125,2263.26708984375C3198.51806640625,2262.74609375,3198.8359375,2262.305908203125,3199.291015625,2262.02587890625L3200.0439453125,2261.56103515625C3200.23095703125,2261.446044921875,3200.320068359375,2261.221923828125,3200.26513671875,2261.009033203125C3200.0888671875,2260.330078125,3200,2259.655029296875,3200,2259C3200,2258.344970703125,3200.0888671875,2257.669921875,3200.26513671875,2256.990966796875C3200.320068359375,2256.778076171875,3200.22998046875,2256.553955078125,3200.0439453125,2256.43896484375L3199.291015625,2255.97412109375C3198.8359375,2255.694091796875,3198.51904296875,2255.2529296875,3198.39501953125,2254.73291015625C3198.27197265625,2254.212890625,3198.35888671875,2253.676025390625,3198.638916015625,2253.221923828125C3199.218994140625,2252.282958984375,3200.453125,2251.989990234375,3201.39111328125,2252.571044921875L3202.14404296875,2253.035888671875C3202.3310546875,2253.14990234375,3202.570068359375,2253.131103515625,3202.736083984375,2252.986083984375C3203.597900390625,2252.22998046875,3204.576904296875,2251.680908203125,3205.64599609375,2251.35205078125C3205.85595703125,2251.2880859375,3205.9990234375,2251.093994140625,3205.9990234375,2250.8740234375L3205.9990234375,2249.9990234375C3205.9990234375,2248.89599609375,3206.89599609375,2247.9990234375,3207.9990234375,2247.9990234375C3209.10205078125,2247.9990234375,3209.9990234375,2248.89599609375,3209.9990234375,2249.9990234375L3209.9990234375,2250.8740234375C3209.9990234375,2251.093994140625,3210.14208984375,2251.287109375,3210.35205078125,2251.35205078125C3211.4208984375,2251.680908203125,3212.39990234375,2252.22998046875,3213.261962890625,2252.986083984375C3213.427978515625,2253.131103515625,3213.66796875,2253.14990234375,3213.85400390625,2253.035888671875L3214.60693359375,2252.571044921875C3215.544921875,2251.989990234375,3216.779052734375,2252.282958984375,3217.35888671875,2253.221923828125C3217.638916015625,2253.676025390625,3217.72607421875,2254.212890625,3217.60302734375,2254.73291015625C3217.47998046875,2255.25390625,3217.162109375,2255.694091796875,3216.70703125,2255.97412109375L3215.9541015625,2256.43896484375C3215.76708984375,2256.553955078125,3215.677978515625,2256.778076171875,3215.73291015625,2256.990966796875C3215.908935546875,2257.669921875,3215.998046875,2258.344970703125,3215.998046875,2259C3215.998046875,2259.655029296875,3215.908935546875,2260.330078125,3215.73291015625,2261.009033203125C3215.677978515625,2261.221923828125,3215.76806640625,2261.446044921875,3215.9541015625,2261.56103515625L3216.70703125,2262.02587890625C3217.162109375,2262.305908203125,3217.47900390625,2262.7470703125,3217.60302734375,2263.26708984375C3217.72607421875,2263.787109375,3217.638916015625,2264.323974609375,3217.35888671875,2264.778076171875ZM3208,2255C3205.7939453125,2255,3204,2256.7939453125,3204,2259C3204,2261.2060546875,3205.7939453125,2263,3208,2263C3210.2060546875,2263,3212,2261.2060546875,3212,2259C3212,2256.7939453125,3210.2060546875,2255,3208,2255ZM3208,2262C3206.345947265625,2262,3205,2260.654052734375,3205,2259C3205,2257.345947265625,3206.345947265625,2256,3208,2256C3209.654052734375,2256,3211,2257.345947265625,3211,2259C3211,2260.654052734375,3209.654052734375,2262,3208,2262Z" style="fill:#ff7400;fill-opacity:1">
        </path>
      </g>
    </g>
  </g>
</svg>