<svg width="24" xmlns="http://www.w3.org/2000/svg" height="24" id="screenshot-6ba54527-e926-801d-8007-7cbd6597fbc3" viewBox="3234 2247 24 24" style="-webkit-print-color-adjust::exact" xmlns:xlink="http://www.w3.org/1999/xlink" fill="none" version="1.1">
  <g id="shape-6ba54527-e926-801d-8007-7cbd6597fbc3" style="fill:#000000" rx="0" ry="0">
    <g id="shape-6ba54527-e926-801d-8007-7cbd65992f8b" style="display:none">
      <g class="fills" id="fills-6ba54527-e926-801d-8007-7cbd65992f8b">
        <rect rx="0" ry="0" x="3234" y="2247" transform="matrix(1.000000, 0.000000, 0.000000, 1.000000, 0.000000, 0.000000)" width="24" height="24" fill="none" style="fill:#ff7400;fill-opacity:1">
        </rect>
      </g>
    </g>
    <g id="shape-6ba54527-e926-801d-8007-7cbd65999668">
      <g class="fills" id="fills-6ba54527-e926-801d-8007-7cbd65999668">
        <path d="M3254.198974609375,2266.8310546875C3251.458984375,2264.864990234375,3249,2262.785888671875,3249,2259C3249,2255.214111328125,3251.458984375,2253.135009765625,3254.198974609375,2251.1689453125C3254.787109375,2250.7470703125,3255.080078125,2250.06396484375,3254.98193359375,2249.340087890625C3254.883056640625,2248.60791015625,3254.39306640625,2247.992919921875,3253.701904296875,2247.737060546875C3252.3349609375,2247.22998046875,3250.305908203125,2247,3249,2247C3242.27099609375,2247,3237,2252.27099609375,3237,2259C3237,2265.72900390625,3242.27099609375,2271,3249,2271C3250.305908203125,2271,3252.3349609375,2270.77001953125,3253.701904296875,2270.262939453125C3254.39306640625,2270.007080078125,3254.884033203125,2269.39306640625,3254.98193359375,2268.659912109375C3255.080078125,2267.93603515625,3254.787109375,2267.2529296875,3254.198974609375,2266.8310546875ZM3253.990966796875,2268.52587890625C3253.94091796875,2268.89697265625,3253.703125,2269.196044921875,3253.35400390625,2269.324951171875C3252.10302734375,2269.7890625,3250.219970703125,2270,3249,2270C3242.83203125,2270,3238,2265.16796875,3238,2259C3238,2252.83203125,3242.83203125,2248,3249,2248C3250.219970703125,2248,3252.10302734375,2248.2109375,3253.35400390625,2248.675048828125C3253.703125,2248.803955078125,3253.94091796875,2249.10302734375,3253.990966796875,2249.47412109375C3254.0380859375,2249.824951171875,3253.89794921875,2250.155029296875,3253.615966796875,2250.35693359375C3250.77490234375,2252.39599609375,3248,2254.743896484375,3248,2259.0009765625C3248,2263.258056640625,3250.77392578125,2265.60498046875,3253.615966796875,2267.64501953125C3253.89794921875,2267.846923828125,3254.0380859375,2268.177001953125,3253.990966796875,2268.528076171875Z" style="fill:#ff7400;fill-opacity:1">
        </path>
      </g>
    </g>
  </g>
</svg>