<svg width="24" xmlns="http://www.w3.org/2000/svg" height="24" id="screenshot-d4fed170-a73e-8030-8007-6ceebdf8f2c3" viewBox="3155 2030 24 24" style="-webkit-print-color-adjust::exact" xmlns:xlink="http://www.w3.org/1999/xlink" fill="none" version="1.1">
  <g id="shape-d4fed170-a73e-8030-8007-6ceebdf8f2c3" style="fill:#000000" width="512" height="512" rx="0" ry="0">
    <g id="shape-d4fed170-a73e-8030-8007-6ceebdf99047" style="display:none">
      <g class="fills" id="fills-d4fed170-a73e-8030-8007-6ceebdf99047">
        <rect rx="0" ry="0" x="3155" y="2030" transform="matrix(1.000000, 0.000000, 0.000000, 1.000000, 0.000000, 0.000000)" width="24" height="24" fill="none" style="fill:#ff7400;fill-opacity:1">
        </rect>
      </g>
    </g>
    <g id="shape-d4fed170-a73e-8030-8007-6ceebdf9ef99">
      <g class="fills" id="fills-d4fed170-a73e-8030-8007-6ceebdf9ef99">
        <path d="M3172.587890625,2038.583984375L3173.291015625,2039.2939453125L3167.251953125,2045.27587890625C3166.76904296875,2045.7548828125,3166.131103515625,2045.9951171875,3165.493896484375,2045.9951171875C3164.861083984375,2045.9951171875,3164.22802734375,2045.759033203125,3163.7451171875,2045.285888671875L3160.7099609375,2042.294921875L3161.410888671875,2041.5830078125L3164.445068359375,2044.572998046875C3165.02587890625,2045.14111328125,3165.968994140625,2045.137939453125,3166.549072265625,2044.56591796875L3172.587890625,2038.583984375ZM3179,2042C3179,2048.616943359375,3173.616943359375,2054,3167,2054C3160.383056640625,2054,3155,2048.616943359375,3155,2042C3155,2035.383056640625,3160.383056640625,2030,3167,2030C3173.616943359375,2030,3179,2035.383056640625,3179,2042ZM3178,2042C3178,2035.93505859375,3173.06494140625,2031,3167,2031C3160.93505859375,2031,3156,2035.93505859375,3156,2042C3156,2048.06494140625,3160.93505859375,2053,3167,2053C3173.06494140625,2053,3178,2048.06494140625,3178,2042Z" style="fill:#ff7400;fill-opacity:1">
        </path>
      </g>
    </g>
  </g>
</svg>