<svg width="24" xmlns="http://www.w3.org/2000/svg" height="24" id="screenshot-9c3a17ad-a260-8082-8007-6b9b98ab56de" viewBox="2135 1772 24 24" style="-webkit-print-color-adjust::exact" xmlns:xlink="http://www.w3.org/1999/xlink" fill="none" version="1.1">
  <g id="shape-9c3a17ad-a260-8082-8007-6b9b98ab56de" style="fill:#000000" width="512" height="512" rx="0" ry="0">
    <g id="shape-9c3a17ad-a260-8082-8007-6b9b98abe8b3" style="display:none">
      <g class="fills" id="fills-9c3a17ad-a260-8082-8007-6b9b98abe8b3">
        <rect rx="0" ry="0" x="2135" y="1772" transform="matrix(1.000000, 0.000000, 0.000000, 1.000000, 0.000000, 0.000000)" width="24" height="24" fill="none" style="fill:#ff7400;fill-opacity:1">
        </rect>
      </g>
    </g>
    <g id="shape-9c3a17ad-a260-8082-8007-6b9b98ac2dfe">
      <g class="fills" id="fills-9c3a17ad-a260-8082-8007-6b9b98ac2dfe">
        <path d="M2158.595947265625,1783.8270263671875C2158.205078125,1783.302001953125,2157.60302734375,1783,2156.944091796875,1783L2156.0009765625,1783L2156.0009765625,1779.5C2156.0009765625,1777.01904296875,2153.98193359375,1775,2151.5009765625,1775L2145.445068359375,1775C2145.212890625,1775,2144.98095703125,1774.9449462890625,2144.77392578125,1774.842041015625L2141.618896484375,1773.2640380859375C2141.27392578125,1773.092041015625,2140.887939453125,1773,2140.5009765625,1773L2138.5009765625,1773C2136.570068359375,1773,2135,1774.5699462890625,2135,1776.5L2135,1790.5C2135,1792.98095703125,2137.01904296875,1795,2139.5,1795L2153.05810546875,1795C2155.06103515625,1795,2156.79296875,1793.7110595703125,2157.375,1791.77099609375L2158.912109375,1785.633056640625C2159.10009765625,1785.0069580078125,2158.98388671875,1784.3480224609375,2158.595947265625,1783.8260498046875ZM2136,1790.5L2136,1776.5C2136,1775.1219482421875,2137.12109375,1774,2138.5,1774L2140.5,1774C2140.73193359375,1774,2140.964111328125,1774.0550537109375,2141.1708984375,1774.157958984375L2144.325927734375,1775.7359619140625C2144.6708984375,1775.907958984375,2145.056884765625,1776,2145.444091796875,1776L2151.5,1776C2153.429931640625,1776,2155,1777.5699462890625,2155,1779.5L2155,1783L2143.114990234375,1783C2141.625,1783,2140.297119140625,1783.93798828125,2139.803955078125,1785.35400390625L2137.37109375,1793.2779541015625C2136.537109375,1792.637939453125,2135.9990234375,1791.6309814453125,2135.9990234375,1790.5009765625ZM2157.947998046875,1785.3680419921875L2156.410888671875,1791.5059814453125C2155.962890625,1792.998046875,2154.614990234375,1794,2153.056884765625,1794L2139.5,1794C2139.06494140625,1794,2138.64892578125,1793.9200439453125,2138.26611328125,1793.7750244140625L2140.7548828125,1785.6639404296875C2141.10205078125,1784.66796875,2142.050048828125,1783.9990234375,2143.114990234375,1783.9990234375L2156.943115234375,1783.9990234375C2157.282958984375,1783.9990234375,2157.592041015625,1784.1529541015625,2157.7939453125,1784.4229736328125C2157.991943359375,1784.68896484375,2158.051025390625,1785.0260009765625,2157.947998046875,1785.366943359375Z" style="fill:#ff7400;fill-opacity:1">
        </path>
      </g>
    </g>
  </g>
</svg>