<svg width="24" xmlns="http://www.w3.org/2000/svg" height="24" id="screenshot-9c3a17ad-a260-8082-8007-6b9ba8e8798b" viewBox="3326 2025 24 24" style="-webkit-print-color-adjust::exact" xmlns:xlink="http://www.w3.org/1999/xlink" fill="none" version="1.1">
  <g id="shape-9c3a17ad-a260-8082-8007-6b9ba8e8798b" style="fill:#000000" rx="0" ry="0">
    <g id="shape-9c3a17ad-a260-8082-8007-6b9ba8e912af" style="display:none">
      <g class="fills" id="fills-9c3a17ad-a260-8082-8007-6b9ba8e912af">
        <rect rx="0" ry="0" x="3326" y="2025" transform="matrix(1.000000, 0.000000, 0.000000, 1.000000, 0.000000, 0.000000)" width="24" height="24" fill="none" style="fill:#ff7400;fill-opacity:1">
        </rect>
      </g>
    </g>
    <g id="shape-9c3a17ad-a260-8082-8007-6b9ba8e9439c">
      <g class="fills" id="fills-9c3a17ad-a260-8082-8007-6b9ba8e9439c">
        <path d="M3348.681884765625,2029.321044921875L3345.678955078125,2026.318115234375C3344.8291015625,2025.468017578125,3343.699951171875,2025,3342.4970703125,2025L3330.5,2025C3328.01904296875,2025,3326,2027.01904296875,3326,2029.5L3326,2044.5C3326,2046.98095703125,3328.01904296875,2049,3330.5,2049L3345.5,2049C3347.98095703125,2049,3350,2046.98095703125,3350,2044.5L3350,2032.5029296875C3350,2031.319091796875,3349.52001953125,2030.158935546875,3348.681884765625,2029.321044921875ZM3332,2026L3342.4970703125,2026C3343.028076171875,2026,3343.534912109375,2026.133056640625,3344,2026.35595703125L3344,2029.5C3344,2030.8779296875,3342.87890625,2032,3341.5,2032L3334.5,2032C3333.12109375,2032,3332,2030.8779296875,3332,2029.5L3332,2026ZM3349,2044.5C3349,2046.429931640625,3347.429931640625,2048,3345.5,2048L3330.5,2048C3328.570068359375,2048,3327,2046.429931640625,3327,2044.5L3327,2029.5C3327,2027.570068359375,3328.570068359375,2026,3330.5,2026L3331,2026L3331,2029.5C3331,2031.429931640625,3332.570068359375,2033,3334.5,2033L3341.5,2033C3343.429931640625,2033,3345,2031.429931640625,3345,2029.5L3345,2027.052978515625L3347.97509765625,2030.028076171875C3348.6259765625,2030.679931640625,3349,2031.58203125,3349,2032.5029296875L3349,2044.5ZM3338,2036C3335.7939453125,2036,3334,2037.7939453125,3334,2040C3334,2042.2060546875,3335.7939453125,2044,3338,2044C3340.2060546875,2044,3342,2042.2060546875,3342,2040C3342,2037.7939453125,3340.2060546875,2036,3338,2036ZM3338,2043C3336.345947265625,2043,3335,2041.654052734375,3335,2040C3335,2038.345947265625,3336.345947265625,2037,3338,2037C3339.654052734375,2037,3341,2038.345947265625,3341,2040C3341,2041.654052734375,3339.654052734375,2043,3338,2043Z" style="fill:#ff7400;fill-opacity:1">
        </path>
      </g>
    </g>
  </g>
</svg>