<svg width="24" xmlns="http://www.w3.org/2000/svg" height="24" id="screenshot-02fa671e-1aba-809d-8007-6cdcb10ee3a5" viewBox="3326 2065 24 24" style="-webkit-print-color-adjust::exact" xmlns:xlink="http://www.w3.org/1999/xlink" fill="none" version="1.1">
  <g id="shape-02fa671e-1aba-809d-8007-6cdcb10ee3a5" style="fill:#000000" rx="0" ry="0">
    <g id="shape-02fa671e-1aba-809d-8007-6cdcb10ee3a6" style="display:none">
      <g class="fills" id="fills-02fa671e-1aba-809d-8007-6cdcb10ee3a6">
        <rect rx="0" ry="0" x="3326" y="2065" transform="matrix(1.000000, 0.000000, 0.000000, 1.000000, 0.000000, 0.000000)" width="24" height="24" fill="none" style="fill:#ff7400;fill-opacity:1">
        </rect>
      </g>
    </g>
    <g id="shape-02fa671e-1aba-809d-8007-6cdcb10ee3a7">
      <g class="fills" id="fills-02fa671e-1aba-809d-8007-6cdcb10ee3a7">
        <path d="M3348.681884765625,2069.321044921875L3345.678955078125,2066.318115234375C3344.8291015625,2065.468017578125,3343.699951171875,2065,3342.4970703125,2065L3330.5,2065C3328.01904296875,2065,3326,2067.01904296875,3326,2069.5L3326,2084.5C3326,2086.98095703125,3328.01904296875,2089,3330.5,2089L3345.5,2089C3347.98095703125,2089,3350,2086.98095703125,3350,2084.5L3350,2072.5029296875C3350,2071.319091796875,3349.52001953125,2070.158935546875,3348.681884765625,2069.321044921875L3348.681884765625,2069.321044921875M3332,2066L3342.4970703125,2066C3343.028076171875,2066,3343.534912109375,2066.133056640625,3344,2066.35595703125L3344,2069.5C3344,2070.8779296875,3342.87890625,2072,3341.5,2072L3334.5,2072C3333.12109375,2072,3332,2070.8779296875,3332,2069.5L3332,2066L3332,2066M3349,2084.5C3349,2086.429931640625,3347.429931640625,2088,3345.5,2088L3330.5,2088C3328.570068359375,2088,3327,2086.429931640625,3327,2084.5L3327,2069.5C3327,2067.570068359375,3328.570068359375,2066,3330.5,2066L3331,2066L3331,2069.5C3331,2071.429931640625,3332.570068359375,2073,3334.5,2073L3341.5,2073C3343.429931640625,2073,3345,2071.429931640625,3345,2069.5L3345,2067.052978515625L3347.97509765625,2070.028076171875C3348.6259765625,2070.679931640625,3349,2071.58203125,3349,2072.5029296875L3349,2084.5L3349,2084.5" style="fill:#ff7400;fill-opacity:1">
        </path>
      </g>
    </g>
    <g id="shape-9c3a17ad-a260-8082-8007-6b9bacfe0e09">
      <g class="fills" id="fills-9c3a17ad-a260-8082-8007-6b9bacfe0e09">
        <path d="M3337.988037109375,2084.771484375L3335.226318359375,2077.83251953125C3334.845458984375,2076.732421875,3333.155029296875,2076.732421875,3332.7744140625,2077.83154296875L3330.01220703125,2084.771484375C3329.977783203125,2084.857421875,3330.01953125,2084.9541015625,3330.104736328125,2084.98779296875C3330.19091796875,2085.022705078125,3330.287841796875,2084.98046875,3330.3212890625,2084.895263671875L3331.341064453125,2082.333251953125L3336.658935546875,2082.333251953125L3337.6787109375,2084.895263671875C3337.712646484375,2084.9814453125,3337.811767578125,2085.022216796875,3337.895263671875,2084.98779296875C3337.98046875,2084.9541015625,3338.022216796875,2084.857177734375,3337.988037109375,2084.771484375ZM3331.4736328125,2082L3333.083984375,2077.9541015625C3333.45556640625,2077.10986328125,3334.54541015625,2077.10986328125,3334.91650390625,2077.954833984375L3336.5263671875,2081.99951171875L3331.4736328125,2081.99951171875Z" style="fill:#ff7400;fill-opacity:1">
        </path>
      </g>
      <g id="strokes-02fa671e-1aba-809d-8007-6cdec4b7d31d-9c3a17ad-a260-8082-8007-6b9bacfe0e09" class="strokes">
        <g class="outer-stroke-shape">
          <defs>
            <mask id="outer-stroke-render-13395-9c3a17ad-a260-8082-8007-6b9bacfe0e09-0" x="3329.0343269775826" y="2076.0415645571366" width="9.931346067366567" height="9.92424671573598" maskUnits="userSpaceOnUse">
              <use href="#stroke-shape-render-13395-9c3a17ad-a260-8082-8007-6b9bacfe0e09-0" style="fill:none;stroke:white;stroke-width:0.8">
              </use>
              <use href="#stroke-shape-render-13395-9c3a17ad-a260-8082-8007-6b9bacfe0e09-0" style="fill:black;stroke:none">
              </use>
            </mask>
            <path d="M3337.988037109375,2084.771484375L3335.226318359375,2077.83251953125C3334.845458984375,2076.732421875,3333.155029296875,2076.732421875,3332.7744140625,2077.83154296875L3330.01220703125,2084.771484375C3329.977783203125,2084.857421875,3330.01953125,2084.9541015625,3330.104736328125,2084.98779296875C3330.19091796875,2085.022705078125,3330.287841796875,2084.98046875,3330.3212890625,2084.895263671875L3331.341064453125,2082.333251953125L3336.658935546875,2082.333251953125L3337.6787109375,2084.895263671875C3337.712646484375,2084.9814453125,3337.811767578125,2085.022216796875,3337.895263671875,2084.98779296875C3337.98046875,2084.9541015625,3338.022216796875,2084.857177734375,3337.988037109375,2084.771484375ZM3331.4736328125,2082L3333.083984375,2077.9541015625C3333.45556640625,2077.10986328125,3334.54541015625,2077.10986328125,3334.91650390625,2077.954833984375L3336.5263671875,2081.99951171875L3331.4736328125,2081.99951171875Z" id="stroke-shape-render-13395-9c3a17ad-a260-8082-8007-6b9bacfe0e09-0">
            </path>
          </defs>
          <use href="#stroke-shape-render-13395-9c3a17ad-a260-8082-8007-6b9bacfe0e09-0" mask="url(#outer-stroke-render-13395-9c3a17ad-a260-8082-8007-6b9bacfe0e09-0)" style="fill:none;stroke-width:0.8;stroke:#ff7400;stroke-opacity:1">
          </use>
          <use href="#stroke-shape-render-13395-9c3a17ad-a260-8082-8007-6b9bacfe0e09-0" style="fill:none;fill-opacity:none;stroke-width:0.4;stroke:none;stroke-opacity:1">
          </use>
        </g>
      </g>
    </g>
    <g id="shape-02fa671e-1aba-809d-8007-6cde19831e0e">
      <g class="fills" id="fills-02fa671e-1aba-809d-8007-6cde19831e0e">
        <path d="M3343.7998046875,2085L3340.8671875,2085C3339.837646484375,2085,3339,2084.162353515625,3339,2083.1328125L3339,2082.833251953125C3338.99658203125,2082.6171875,3339.33642578125,2082.6171875,3339.333251953125,2082.833251953125L3339.333251953125,2083.1328125C3339.333251953125,2083.978515625,3340.021240234375,2084.666748046875,3340.8671875,2084.666748046875L3343.800048828125,2084.666748046875C3345.588134765625,2084.645263671875,3345.906494140625,2082.111328125,3344.181884765625,2081.647705078125L3340.40185546875,2080.675048828125C3338.301025390625,2080.10986328125,3338.691650390625,2077.025634765625,3340.8671875,2077L3343.800048828125,2077C3344.829345703125,2077,3345.666748046875,2077.837646484375,3345.666748046875,2078.8671875L3345.666748046875,2079.166748046875C3345.670166015625,2079.3828125,3345.330322265625,2079.3828125,3345.33349609375,2079.166748046875L3345.33349609375,2078.8671875C3345.33349609375,2078.021484375,3344.646240234375,2077.333251953125,3343.800048828125,2077.333251953125L3340.8671875,2077.333251953125C3339.07861328125,2077.354736328125,3338.76025390625,2079.888671875,3340.48486328125,2080.352294921875L3344.264892578125,2081.324951171875C3346.365478515625,2081.89013671875,3345.97509765625,2084.974365234375,3343.7998046875,2085Z" style="fill:#ff7400;fill-opacity:1">
        </path>
      </g>
      <g id="strokes-02fa671e-1aba-809d-8007-6cdec4b7d31e-02fa671e-1aba-809d-8007-6cde19831e0e" class="strokes">
        <g class="outer-stroke-shape">
          <defs>
            <mask id="outer-stroke-render-13396-02fa671e-1aba-809d-8007-6cde19831e0e-0" x="3338.0343145750508" y="2076.0343145750508" width="8.598370666793008" height="9.931370849898476" maskUnits="userSpaceOnUse">
              <use href="#stroke-shape-render-13396-02fa671e-1aba-809d-8007-6cde19831e0e-0" style="fill:none;stroke:white;stroke-width:0.8">
              </use>
              <use href="#stroke-shape-render-13396-02fa671e-1aba-809d-8007-6cde19831e0e-0" style="fill:black;stroke:none">
              </use>
            </mask>
            <path d="M3343.7998046875,2085L3340.8671875,2085C3339.837646484375,2085,3339,2084.162353515625,3339,2083.1328125L3339,2082.833251953125C3338.99658203125,2082.6171875,3339.33642578125,2082.6171875,3339.333251953125,2082.833251953125L3339.333251953125,2083.1328125C3339.333251953125,2083.978515625,3340.021240234375,2084.666748046875,3340.8671875,2084.666748046875L3343.800048828125,2084.666748046875C3345.588134765625,2084.645263671875,3345.906494140625,2082.111328125,3344.181884765625,2081.647705078125L3340.40185546875,2080.675048828125C3338.301025390625,2080.10986328125,3338.691650390625,2077.025634765625,3340.8671875,2077L3343.800048828125,2077C3344.829345703125,2077,3345.666748046875,2077.837646484375,3345.666748046875,2078.8671875L3345.666748046875,2079.166748046875C3345.670166015625,2079.3828125,3345.330322265625,2079.3828125,3345.33349609375,2079.166748046875L3345.33349609375,2078.8671875C3345.33349609375,2078.021484375,3344.646240234375,2077.333251953125,3343.800048828125,2077.333251953125L3340.8671875,2077.333251953125C3339.07861328125,2077.354736328125,3338.76025390625,2079.888671875,3340.48486328125,2080.352294921875L3344.264892578125,2081.324951171875C3346.365478515625,2081.89013671875,3345.97509765625,2084.974365234375,3343.7998046875,2085Z" id="stroke-shape-render-13396-02fa671e-1aba-809d-8007-6cde19831e0e-0">
            </path>
          </defs>
          <use href="#stroke-shape-render-13396-02fa671e-1aba-809d-8007-6cde19831e0e-0" mask="url(#outer-stroke-render-13396-02fa671e-1aba-809d-8007-6cde19831e0e-0)" style="fill:none;stroke-width:0.8;stroke:#ff7300;stroke-opacity:1">
          </use>
          <use href="#stroke-shape-render-13396-02fa671e-1aba-809d-8007-6cde19831e0e-0" style="fill:none;fill-opacity:none;stroke-width:0.4;stroke:none;stroke-opacity:1">
          </use>
        </g>
      </g>
    </g>
  </g>
</svg>