<svg width="24" xmlns="http://www.w3.org/2000/svg" height="24" id="screenshot-9dc44072-a3b1-804a-8007-6f94ea0b9645" viewBox="3203 2200 24 24" style="-webkit-print-color-adjust::exact" xmlns:xlink="http://www.w3.org/1999/xlink" fill="none" version="1.1">
  <g id="shape-9dc44072-a3b1-804a-8007-6f94ea0b9645" style="fill:#000000" rx="0" ry="0">
    <g id="shape-9dc44072-a3b1-804a-8007-6f94ea0cbf70" style="display:none">
      <g class="fills" id="fills-9dc44072-a3b1-804a-8007-6f94ea0cbf70">
        <rect rx="0" ry="0" x="3203" y="2200" transform="matrix(1.000000, 0.000000, 0.000000, 1.000000, 0.000000, 0.000000)" width="24" height="24" fill="none" style="fill:#ff7400;fill-opacity:1">
        </rect>
      </g>
    </g>
    <g id="shape-9dc44072-a3b1-804a-8007-6f94ea0d7975">
      <g class="fills" id="fills-9dc44072-a3b1-804a-8007-6f94ea0d7975">
        <path d="M3221.902099609375,2214.574951171875C3221.02490234375,2214.574951171875,3220.00390625,2214.678955078125,3219.200927734375,2215.23291015625C3218.65087890625,2214.840087890625,3217.31201171875,2213.833984375,3215.715087890625,2212.31005859375C3216.422119140625,2211.595947265625,3217.162109375,2210.7900390625,3217.89892578125,2209.89794921875C3221.22998046875,2205.864013671875,3222.76611328125,2202.180908203125,3222.830078125,2202.02587890625C3222.93505859375,2201.77099609375,3222.81396484375,2201.47900390625,3222.55908203125,2201.3740234375C3222.302978515625,2201.26806640625,3222.011962890625,2201.389892578125,3221.906982421875,2201.64501953125C3221.89111328125,2201.680908203125,3220.35791015625,2205.35009765625,3217.12890625,2209.260986328125C3216.4150390625,2210.1259765625,3215.69189453125,2210.910888671875,3215.0009765625,2211.60791015625C3214.31005859375,2210.910888671875,3213.587890625,2210.126953125,3212.873046875,2209.260986328125C3209.64306640625,2205.35107421875,3208.10888671875,2201.681884765625,3208.093994140625,2201.64599609375C3207.989990234375,2201.39111328125,3207.698974609375,2201.26904296875,3207.44189453125,2201.375C3207.18603515625,2201.47998046875,3207.06494140625,2201.77197265625,3207.1708984375,2202.027099609375C3207.23388671875,2202.181884765625,3208.77099609375,2205.864013671875,3212.10205078125,2209.89892578125C3212.839111328125,2210.791015625,3213.5791015625,2211.596923828125,3214.285888671875,2212.31103515625C3212.68994140625,2213.8349609375,3211.35009765625,2214.840087890625,3210.800048828125,2215.23388671875C3209.9970703125,2214.679931640625,3208.97607421875,2214.575927734375,3208.09912109375,2214.575927734375C3206.340087890625,2214.575927734375,3204.0009765625,2214.9951171875,3204.0009765625,2218.6201171875C3204.0009765625,2222.2451171875,3206.340087890625,2222.6640625,3208.09912109375,2222.6640625C3209.85791015625,2222.6640625,3212.196044921875,2222.2451171875,3212.196044921875,2218.6201171875C3212.196044921875,2217.405029296875,3211.93310546875,2216.551025390625,3211.51806640625,2215.950927734375C3212.1640625,2215.48388671875,3213.465087890625,2214.487060546875,3215.001953125,2213.014892578125C3216.5380859375,2214.487060546875,3217.840087890625,2215.48291015625,3218.486083984375,2215.950927734375C3218.071044921875,2216.551025390625,3217.80810546875,2217.405029296875,3217.80810546875,2218.6201171875C3217.80810546875,2222.2451171875,3220.14599609375,2222.6640625,3221.905029296875,2222.6640625C3223.6640625,2222.6640625,3226.0029296875,2222.2451171875,3226.0029296875,2218.6201171875C3226.0029296875,2214.9951171875,3223.6640625,2214.575927734375,3221.905029296875,2214.575927734375ZM3208.096923828125,2221.6640625C3206.18505859375,2221.6640625,3204.9990234375,2221.155029296875,3204.9990234375,2218.6201171875C3204.9990234375,2216.0849609375,3206.18505859375,2215.575927734375,3208.096923828125,2215.575927734375C3210.009033203125,2215.575927734375,3211.194091796875,2216.0849609375,3211.194091796875,2218.6201171875C3211.194091796875,2221.155029296875,3210.009033203125,2221.6640625,3208.096923828125,2221.6640625ZM3221.902099609375,2221.6640625C3219.989990234375,2221.6640625,3218.804931640625,2221.155029296875,3218.804931640625,2218.6201171875C3218.804931640625,2216.0849609375,3219.989990234375,2215.575927734375,3221.902099609375,2215.575927734375C3223.81396484375,2215.575927734375,3225,2216.0849609375,3225,2218.6201171875C3225,2221.155029296875,3223.81396484375,2221.6640625,3221.902099609375,2221.6640625Z" style="fill:#ff7400;fill-opacity:1">
        </path>
      </g>
    </g>
  </g>
</svg>