<svg width="24" xmlns="http://www.w3.org/2000/svg" height="24" id="screenshot-6ba54527-e926-801d-8007-7cbd65a77d62" viewBox="3266 2247 24 24" style="-webkit-print-color-adjust::exact" xmlns:xlink="http://www.w3.org/1999/xlink" fill="none" version="1.1">
  <g id="shape-6ba54527-e926-801d-8007-7cbd65a77d62" style="fill:#000000" rx="0" ry="0">
    <g id="shape-6ba54527-e926-801d-8007-7cbd65a845af" style="display:none">
      <g class="fills" id="fills-6ba54527-e926-801d-8007-7cbd65a845af">
        <rect rx="0" ry="0" x="3266" y="2247" transform="matrix(1.000000, 0.000000, 0.000000, 1.000000, 0.000000, 0.000000)" width="24" height="24" fill="none" style="fill:#ff7400;fill-opacity:1">
        </rect>
      </g>
    </g>
    <g id="shape-6ba54527-e926-801d-8007-7cbd65a8e8f7">
      <g class="fills" id="fills-6ba54527-e926-801d-8007-7cbd65a8e8f7">
        <path d="M3288.47412109375,2258.5L3285.5791015625,2258.5C3285.508056640625,2256.222900390625,3284.945068359375,2254.6640625,3284.092041015625,2253.60009765625L3285.760009765625,2251.927978515625C3285.955078125,2251.73291015625,3285.955078125,2251.416015625,3285.760009765625,2251.220947265625C3285.56494140625,2251.027099609375,3285.248046875,2251.027099609375,3285.052978515625,2251.220947265625L3283.39404296875,2252.884033203125C3282.0390625,2251.7490234375,3280.23388671875,2251.445068359375,3278.5009765625,2251.39990234375L3278.5009765625,2248.5C3278.5009765625,2248.22412109375,3278.277099609375,2248,3278.0009765625,2248C3277.72509765625,2248,3277.5009765625,2248.22412109375,3277.5009765625,2248.5L3277.5009765625,2251.402099609375C3275.76806640625,2251.447021484375,3273.962890625,2251.75,3272.60791015625,2252.885986328125L3270.948974609375,2251.222900390625C3270.75390625,2251.027099609375,3270.43798828125,2251.027099609375,3270.241943359375,2251.222900390625C3270.0458984375,2251.4189453125,3270.0458984375,2251.735107421875,3270.241943359375,2251.929931640625L3271.909912109375,2253.60205078125C3271.05712890625,2254.6650390625,3270.4951171875,2256.22509765625,3270.423095703125,2258.501953125L3267.52587890625,2258.501953125C3267.25,2258.501953125,3267.02587890625,2258.72607421875,3267.02587890625,2259.001953125C3267.02587890625,2259.278076171875,3267.25,2259.501953125,3267.52587890625,2259.501953125L3270.4208984375,2259.501953125C3270.491943359375,2261.779052734375,3271.054931640625,2263.337890625,3271.907958984375,2264.402099609375L3270.239990234375,2266.073974609375C3270.044921875,2266.26904296875,3270.044921875,2266.5859375,3270.239990234375,2266.781005859375C3270.337890625,2266.8779296875,3270.465087890625,2266.927001953125,3270.593017578125,2266.927001953125C3270.720947265625,2266.927001953125,3270.84912109375,2266.8779296875,3270.947021484375,2266.780029296875L3272.60595703125,2265.116943359375C3273.9609375,2266.251953125,3275.76611328125,2266.555908203125,3277.4990234375,2266.60107421875L3277.4990234375,2269.5029296875C3277.4990234375,2269.779052734375,3277.722900390625,2270.0029296875,3277.9990234375,2270.0029296875C3278.27490234375,2270.0029296875,3278.4990234375,2269.779052734375,3278.4990234375,2269.5029296875L3278.4990234375,2266.60107421875C3280.23193359375,2266.555908203125,3282.0380859375,2266.2529296875,3283.39208984375,2265.116943359375L3285.051025390625,2266.780029296875C3285.14892578125,2266.8779296875,3285.277099609375,2266.927001953125,3285.405029296875,2266.927001953125C3285.532958984375,2266.927001953125,3285.659912109375,2266.8779296875,3285.758056640625,2266.781005859375C3285.9541015625,2266.5859375,3285.9541015625,2266.26904296875,3285.758056640625,2266.073974609375L3284.090087890625,2264.402099609375C3284.94287109375,2263.339111328125,3285.5048828125,2261.779052734375,3285.576904296875,2259.501953125L3288.471923828125,2259.501953125C3288.748046875,2259.501953125,3288.971923828125,2259.278076171875,3288.971923828125,2259.001953125C3288.971923828125,2258.72607421875,3288.748046875,2258.501953125,3288.471923828125,2258.501953125ZM3278,2265.60400390625C3273.321044921875,2265.60400390625,3271.4130859375,2263.68994140625,3271.4130859375,2259C3271.4130859375,2254.31005859375,3273.321044921875,2252.39599609375,3278,2252.39599609375C3282.678955078125,2252.39599609375,3284.5869140625,2254.31005859375,3284.5869140625,2259C3284.5869140625,2263.68994140625,3282.678955078125,2265.60400390625,3278,2265.60400390625Z" style="fill:#ff7400;fill-opacity:1">
        </path>
      </g>
    </g>
  </g>
</svg>