<svg width="24" xmlns="http://www.w3.org/2000/svg" height="24" id="screenshot-9c3a17ad-a260-8082-8007-6b9ba233c168" viewBox="2992.5 2075.5 24 24" style="-webkit-print-color-adjust::exact" xmlns:xlink="http://www.w3.org/1999/xlink" fill="none" version="1.1">
  <g id="shape-9c3a17ad-a260-8082-8007-6b9ba233c168" style="fill:#000000" rx="0" ry="0">
    <g id="shape-9c3a17ad-a260-8082-8007-6b9ba23487b2" style="display:none">
      <g class="fills" id="fills-9c3a17ad-a260-8082-8007-6b9ba23487b2">
        <rect rx="0" ry="0" x="2992.5" y="2075.5" transform="matrix(1.000000, 0.000000, 0.000000, 1.000000, 0.000000, 0.000000)" width="24" height="24" fill="none" style="fill:#ff7400;fill-opacity:1">
        </rect>
      </g>
    </g>
    <g id="shape-9c3a17ad-a260-8082-8007-6b9ba234d564">
      <g class="fills" id="fills-9c3a17ad-a260-8082-8007-6b9ba234d564">
        <path d="M3008.35400390625,2086.35400390625L3005.2080078125,2089.5L3008.35400390625,2092.64599609375C3008.549072265625,2092.841064453125,3008.549072265625,2093.157958984375,3008.35400390625,2093.35302734375C3008.256103515625,2093.450927734375,3008.1279296875,2093.4990234375,3008,2093.4990234375C3007.8720703125,2093.4990234375,3007.743896484375,2093.449951171875,3007.64599609375,2093.35302734375L3004.5,2090.20703125L3001.35400390625,2093.35302734375C3001.256103515625,2093.450927734375,3001.1279296875,2093.4990234375,3001,2093.4990234375C3000.8720703125,2093.4990234375,3000.743896484375,2093.449951171875,3000.64599609375,2093.35302734375C3000.450927734375,2093.157958984375,3000.450927734375,2092.841064453125,3000.64599609375,2092.64599609375L3003.7919921875,2089.5L3000.64599609375,2086.35400390625C3000.450927734375,2086.158935546875,3000.450927734375,2085.842041015625,3000.64599609375,2085.64697265625C3000.841064453125,2085.451904296875,3001.157958984375,2085.451904296875,3001.35302734375,2085.64697265625L3004.4990234375,2088.79296875L3007.64501953125,2085.64697265625C3007.840087890625,2085.451904296875,3008.156982421875,2085.451904296875,3008.35205078125,2085.64697265625C3008.547119140625,2085.842041015625,3008.547119140625,2086.158935546875,3008.35205078125,2086.35400390625ZM3015.5,2080C3015.5,2080.27587890625,3015.27587890625,2080.5,3015,2080.5L3013.5,2080.5C3013.5,2080.514892578125,3013.5,2080.530029296875,3013.498046875,2080.5458984375L3012.1279296875,2095.4130859375C3011.9130859375,2097.742919921875,3009.986083984375,2099.5,3007.64697265625,2099.5L3001.375,2099.5C2999.0380859375,2099.5,2997.112060546875,2097.74609375,2996.89501953125,2095.419921875L2995.5029296875,2080.547119140625C2995.501953125,2080.531005859375,2995.5009765625,2080.51611328125,2995.5009765625,2080.5L2994.0009765625,2080.5C2993.72509765625,2080.5,2993.5009765625,2080.27587890625,2993.5009765625,2080C2993.5009765625,2079.72412109375,2993.72509765625,2079.5,2994.0009765625,2079.5L2999.029052734375,2079.5C2999.279052734375,2077.2529296875,3001.18896484375,2075.5,3003.5009765625,2075.5L3005.5009765625,2075.5C3007.81298828125,2075.5,3009.72412109375,2077.2529296875,3009.972900390625,2079.5L3015.0009765625,2079.5C3015.277099609375,2079.5,3015.5009765625,2079.72412109375,3015.5009765625,2080ZM3000.035888671875,2079.5L3008.964111328125,2079.5C3008.720947265625,2077.80615234375,3007.260009765625,2076.5,3005.5,2076.5L3003.5,2076.5C3001.739990234375,2076.5,3000.279052734375,2077.80615234375,3000.035888671875,2079.5ZM3012.498046875,2080.5L2996.501953125,2080.5L2997.888916015625,2095.325927734375C2998.056884765625,2097.135986328125,2999.555908203125,2098.5,3001.373046875,2098.5L3007.64501953125,2098.5C3009.465087890625,2098.5,3010.962890625,2097.134033203125,3011.1298828125,2095.321044921875L3012.49609375,2080.5Z" style="fill:#ff7400;fill-opacity:1">
        </path>
      </g>
    </g>
  </g>
</svg>