<?xml version="1.0" encoding="utf-8"?><!-- Uploaded to: SVG Repo, www.svgrepo.com, Generator: SVG Repo Mixer Tools -->
<svg fill="#000000" width="800px" height="800px" viewBox="0 0 24 24" id="package" data-name="Flat Color" xmlns="http://www.w3.org/2000/svg" class="icon flat-color"><path id="primary" d="M21.71,7.29,17,2.59A2,2,0,0,0,15.59,2H8.41A2,2,0,0,0,7,2.59L2.29,7.29A1,1,0,0,0,2,8V20a2,2,0,0,0,2,2H20a2,2,0,0,0,2-2V8A1,1,0,0,0,21.71,7.29Z" style="fill: rgb(0, 0, 0);"></path><path id="secondary" d="M15,8H9v5.61a1,1,0,0,0,1.32,1L12,14l1.68.56a1,1,0,0,0,1.32-1Z" style="fill: rgb(44, 169, 188);"></path></svg>