<?xml version="1.0" encoding="utf-8"?><!-- Uploaded to: SVG Repo, www.svgrepo.com, Generator: SVG Repo Mixer Tools -->
<svg fill="#000000" width="800px" height="800px" viewBox="0 0 24 24" id="package-alt-2" data-name="Flat Color" xmlns="http://www.w3.org/2000/svg" class="icon flat-color"><path id="primary" d="M22,9V20a2,2,0,0,1-2,2H4a2,2,0,0,1-2-2V9Zm-.29-1.71L17,2.58A2,2,0,0,0,15.59,2H8.41A2,2,0,0,0,7,2.58L2.29,7.29A1,1,0,0,0,2,8H22A1,1,0,0,0,21.71,7.29Z" style="fill: rgb(0, 0, 0);"></path><path id="secondary" d="M13,2V13a1,1,0,0,1-2,0V2Z" style="fill: rgb(44, 169, 188);"></path></svg>